<svg xmlns="http://www.w3.org/2000/svg" xmlns:xlink="http://www.w3.org/1999/xlink" width="700" zoomAndPan="magnify" viewBox="0 0 525 525.000007" height="700" preserveAspectRatio="xMidYMid meet" version="1.0"><defs><clipPath id="3d5f42eafb"><path d="M 420 210 L 524.5 210 L 524.5 470 L 420 470 Z M 420 210 " clip-rule="nonzero"/></clipPath><clipPath id="5e734b2d9b"><path d="M 173.285156 147 L 258.621094 147 L 258.621094 209 L 173.285156 209 Z M 173.285156 147 " clip-rule="nonzero"/></clipPath><clipPath id="1d1abc397f"><path d="M 208.242188 185.613281 C 207.5 190.257812 204.804688 194.71875 202.203125 195.742188 C 199.507812 196.761719 194.863281 196.113281 192.074219 194.066406 C 188.453125 191.464844 186.128906 183.011719 184.269531 178.644531 C 182.878906 175.488281 181.855469 172.886719 181.296875 170.285156 C 180.832031 168.054688 180.460938 165.824219 180.832031 164.058594 C 181.113281 162.570312 181.761719 161.273438 182.878906 160.25 C 184.179688 158.949219 186.78125 157.554688 188.546875 157.277344 C 190.03125 156.996094 191.519531 157.371094 192.820312 157.832031 C 194.121094 158.296875 195.421875 159.320312 196.347656 160.34375 C 197.277344 161.363281 197.835938 162.109375 198.300781 164.152344 C 199.785156 170.097656 200.53125 194.90625 198.484375 201.59375 C 197.648438 204.382812 196.441406 205.773438 194.769531 206.980469 C 193.097656 208.191406 190.21875 208.65625 188.359375 208.5625 C 186.871094 208.46875 185.480469 207.820312 184.269531 206.980469 C 183.0625 206.144531 182.320312 205.496094 181.296875 203.730469 C 178.882812 199.644531 173.585938 186.542969 173.773438 180.6875 C 173.867188 177.066406 175.074219 174.371094 177.117188 172.050781 C 179.347656 169.539062 183.992188 166.289062 187.152344 166.566406 C 190.496094 166.847656 194.769531 171.304688 196.628906 174.277344 C 198.207031 176.789062 196.90625 180.503906 198.578125 182.546875 C 200.4375 184.871094 205.640625 184.683594 207.871094 186.914062 C 209.914062 189.050781 211.957031 192.304688 211.679688 195.277344 C 211.402344 198.992188 207.035156 205.589844 203.78125 207.074219 C 201.273438 208.191406 197.464844 207.167969 195.140625 205.867188 C 192.910156 204.566406 191.238281 201.871094 190.03125 199.269531 C 188.636719 196.390625 188.171875 192.582031 187.707031 189.238281 C 187.246094 185.890625 187.152344 182.640625 187.335938 179.203125 C 187.523438 175.671875 187.335938 171.492188 188.636719 168.425781 C 189.9375 165.453125 194.585938 160.714844 194.863281 160.898438 C 195.140625 161.085938 191.609375 169.820312 189.847656 169.910156 C 188.171875 170.003906 184.921875 165.082031 184.550781 162.480469 C 184.179688 159.878906 186.035156 156.535156 187.800781 154.117188 C 189.660156 151.609375 192.539062 149.007812 195.421875 147.984375 C 198.113281 146.964844 201.738281 146.871094 204.433594 147.707031 C 207.035156 148.449219 209.726562 150.402344 211.402344 152.632812 C 213.257812 155.046875 213.628906 157.832031 214.746094 161.734375 C 216.601562 168.519531 220.320312 184.964844 220.039062 190.351562 C 219.949219 192.582031 219.484375 193.605469 218.742188 194.90625 C 217.996094 196.203125 216.882812 197.503906 215.582031 198.34375 C 214.28125 199.179688 212.792969 199.828125 211.121094 199.921875 C 209.171875 200.015625 206.199219 199.363281 204.433594 198.0625 C 202.667969 196.761719 200.996094 194.625 200.625 192.210938 C 200.160156 189.050781 202.109375 184.5 203.875 180.226562 C 206.199219 174.558594 210.84375 165.265625 214.28125 161.550781 C 216.230469 159.414062 218.183594 158.296875 220.039062 157.742188 C 221.621094 157.277344 223.199219 157.554688 224.6875 157.925781 C 226.171875 158.296875 227.660156 159.132812 228.773438 160.15625 C 229.890625 161.179688 230.816406 162.664062 231.28125 164.058594 C 231.746094 165.453125 231.933594 167.21875 231.746094 168.703125 C 231.5625 170.191406 231.28125 171.863281 229.980469 172.976562 C 227.660156 174.929688 216.976562 176.878906 216.324219 175.765625 C 215.765625 174.835938 219.855469 169.910156 222.640625 168.890625 C 225.707031 167.683594 230.445312 169.261719 234.164062 169.910156 C 237.878906 170.46875 241.59375 171.398438 245.035156 172.511719 C 248.285156 173.535156 252.1875 174.742188 254.230469 176.324219 C 255.625 177.34375 256.460938 178.550781 257.109375 179.851562 C 257.761719 181.246094 258.320312 182.828125 258.132812 184.40625 C 257.949219 186.355469 256.925781 189.238281 255.4375 190.816406 C 253.953125 192.394531 251.164062 193.511719 249.214844 193.789062 C 247.632812 193.976562 246.148438 193.789062 244.660156 193.046875 C 242.523438 191.929688 239.921875 189.238281 238.34375 186.726562 C 236.671875 184.125 233.882812 178.550781 234.8125 177.53125 C 235.554688 176.695312 241.039062 178.832031 241.039062 178.832031 C 241.039062 178.832031 238.996094 178.738281 237.972656 178.179688 C 236.484375 177.4375 234.257812 175.859375 233.234375 174.1875 C 232.210938 172.511719 231.65625 170.003906 231.839844 168.054688 C 232.027344 166.101562 233.140625 163.871094 234.441406 162.386719 C 235.742188 160.992188 237.972656 159.691406 239.921875 159.414062 C 241.875 159.132812 244.289062 159.507812 246.054688 160.433594 C 247.820312 161.363281 249.585938 163.410156 250.421875 164.894531 C 250.980469 165.917969 251.257812 166.753906 251.257812 167.960938 C 251.351562 169.632812 250.699219 172.605469 249.957031 174.09375 C 249.398438 175.207031 248.84375 175.765625 247.914062 176.507812 C 246.519531 177.53125 244.105469 178.738281 242.152344 178.832031 C 240.203125 178.925781 237.785156 178.273438 236.113281 177.160156 C 234.441406 176.042969 232.957031 173.8125 232.304688 172.234375 C 231.839844 171.121094 231.65625 170.285156 231.746094 169.074219 C 231.839844 167.402344 232.769531 164.617188 233.699219 163.222656 C 234.347656 162.199219 235 161.550781 236.019531 160.992188 C 237.507812 160.15625 240.109375 158.578125 242.058594 159.320312 C 245.496094 160.621094 249.214844 171.492188 252.1875 175.113281 C 253.953125 177.25 256.183594 178.089844 257.109375 179.851562 C 257.949219 181.246094 258.320312 182.828125 258.132812 184.40625 C 257.949219 186.355469 256.738281 189.328125 255.4375 190.816406 C 254.417969 192.023438 252.929688 192.859375 251.535156 193.324219 C 250.144531 193.789062 248.75 193.882812 246.890625 193.695312 C 244.011719 193.324219 239.921875 191.003906 236.207031 190.164062 C 232.398438 189.238281 224.6875 190.074219 224.222656 188.492188 C 223.757812 187.007812 231.5625 180.96875 231.933594 181.246094 C 232.304688 181.527344 229.519531 187.378906 227.378906 189.238281 C 225.335938 191.003906 221.992188 192.304688 219.390625 192.210938 C 216.695312 192.117188 213.351562 190.351562 211.492188 188.308594 C 209.542969 186.171875 208.800781 182.453125 208.242188 179.386719 C 207.683594 176.230469 207.3125 172.699219 208.425781 169.632812 C 209.636719 166.195312 213.539062 161.734375 215.859375 159.785156 C 217.347656 158.578125 218.554688 158.019531 220.039062 157.742188 C 221.527344 157.460938 223.199219 157.554688 224.6875 157.925781 C 226.171875 158.296875 227.660156 159.132812 228.773438 160.15625 C 229.890625 161.179688 230.816406 162.480469 231.28125 164.058594 C 231.839844 165.917969 231.5625 169.355469 231.097656 170.933594 C 230.816406 171.863281 230.167969 173.070312 229.980469 172.976562 C 229.703125 172.886719 230.816406 168.332031 230.539062 168.238281 C 230.167969 168.148438 228.125 175.578125 226.265625 178.925781 C 224.5 182.175781 220.691406 185.335938 219.761719 188.027344 C 219.203125 189.792969 220.039062 191.28125 219.667969 192.765625 C 219.296875 194.253906 218.554688 195.742188 217.347656 196.855469 C 215.859375 198.25 213.074219 199.644531 211.121094 199.921875 C 209.542969 200.199219 207.871094 199.734375 206.476562 199.179688 C 205.082031 198.621094 203.6875 197.597656 202.667969 196.390625 C 201.644531 195.183594 201.273438 194.160156 200.53125 191.929688 C 198.765625 186.542969 192.167969 166.195312 194.957031 163.222656 C 196.535156 161.550781 202.851562 165.546875 203.875 164.335938 C 204.898438 163.128906 200.34375 156.160156 200.902344 155.789062 C 201.460938 155.417969 206.011719 159.226562 207.21875 162.386719 C 209.078125 167.125 208.707031 178.089844 206.753906 182.917969 C 205.453125 186.171875 202.386719 187.191406 200.4375 189.792969 C 198.207031 192.765625 196.90625 198.992188 194.210938 199.921875 C 191.890625 200.757812 188.265625 198.621094 186.035156 196.949219 C 183.808594 195.367188 181.855469 192.859375 180.925781 190.257812 C 179.996094 187.566406 179.160156 182.917969 180.742188 181.0625 C 182.507812 178.925781 189.660156 177.53125 192.539062 179.386719 C 196.347656 181.804688 198.484375 195.089844 198.671875 199.363281 C 198.765625 201.316406 198.300781 202.429688 197.648438 203.730469 C 197 205.03125 196.070312 206.144531 194.769531 206.980469 C 193.191406 207.910156 190.402344 208.839844 188.359375 208.5625 C 186.316406 208.28125 183.898438 206.796875 182.597656 205.496094 C 181.484375 204.382812 181.019531 203.636719 180.554688 201.59375 C 179.160156 195.832031 179.8125 172.234375 180.554688 166.195312 C 180.832031 164.058594 180.925781 163.222656 181.578125 162.015625 C 182.226562 160.808594 183.34375 159.597656 184.457031 158.855469 C 185.664062 158.019531 187.058594 157.371094 188.546875 157.277344 C 190.402344 157.183594 193.097656 157.925781 194.675781 158.855469 C 195.976562 159.691406 196.722656 160.621094 197.558594 162.109375 C 198.859375 164.429688 200.066406 168.703125 200.714844 172.050781 C 201.367188 175.300781 202.945312 179.109375 201.644531 181.710938 C 200.160156 184.589844 192.355469 188.867188 191.148438 188.121094 C 190.402344 187.65625 191.054688 184.964844 191.425781 183.570312 C 191.796875 182.269531 192.261719 180.96875 193.285156 179.945312 C 194.492188 178.738281 197 177.34375 198.671875 177.066406 C 200.066406 176.789062 201.460938 177.160156 202.667969 177.625 C 203.875 178.089844 205.175781 178.832031 206.105469 179.945312 C 207.21875 181.339844 208.242188 185.613281 208.242188 185.613281 " clip-rule="nonzero"/></clipPath><clipPath id="68023f788c"><path d="M 189.824219 134.960938 L 232.492188 134.960938 L 232.492188 186.609375 L 189.824219 186.609375 Z M 189.824219 134.960938 " clip-rule="nonzero"/></clipPath><clipPath id="b46b662867"><path d="M 192.011719 262.402344 L 239.917969 262.402344 L 239.917969 310.3125 L 192.011719 310.3125 Z M 192.011719 262.402344 " clip-rule="nonzero"/></clipPath><clipPath id="d684430e4a"><path d="M 192.011719 322.265625 L 248.902344 322.265625 L 248.902344 356.699219 L 192.011719 356.699219 Z M 192.011719 322.265625 " clip-rule="nonzero"/></clipPath><clipPath id="16777f6732"><path d="M 248 170.582031 L 252.429688 170.582031 L 252.429688 175 L 248 175 Z M 248 170.582031 " clip-rule="nonzero"/></clipPath><clipPath id="93f7db11b5"><path d="M 252.394531 172.171875 C 250.449219 175.167969 248.652344 174.640625 248.277344 173.96875 C 247.902344 173.296875 248.277344 171.5 248.875 171.050781 C 249.476562 170.601562 251.796875 171.273438 251.796875 171.273438 " clip-rule="nonzero"/></clipPath></defs><g clip-path="url(#3d5f42eafb)"><path fill="#2f3037" d="M 524.410156 469.800781 L 420.617188 469.800781 L 420.617188 210.554688 L 524.410156 210.554688 L 524.410156 469.800781 " fill-opacity="1" fill-rule="nonzero"/></g><path fill="#2f3037" d="M 394.230469 256.191406 L 64.027344 256.191406 L 64.027344 65.523438 L 394.230469 65.523438 L 394.230469 256.191406 " fill-opacity="1" fill-rule="nonzero"/><path fill="#f5f5f4" d="M 389.796875 245.097656 L 68.457031 245.097656 L 68.457031 75.882812 L 389.796875 75.882812 L 389.796875 245.097656 " fill-opacity="1" fill-rule="nonzero"/><path fill="#d1d2d0" d="M 183.28125 151.714844 L 76.183594 151.714844 L 76.183594 87.917969 L 183.28125 87.917969 L 183.28125 151.714844 " fill-opacity="1" fill-rule="nonzero"/><path fill="#d1d2d0" d="M 373.34375 133.539062 L 273.191406 133.539062 L 273.191406 90.925781 L 373.34375 90.925781 L 373.34375 133.539062 " fill-opacity="1" fill-rule="nonzero"/><path fill="#2f3037" d="M 371.53125 131.386719 L 274.515625 131.386719 L 274.515625 96.449219 L 371.53125 96.449219 L 371.53125 131.386719 " fill-opacity="1" fill-rule="nonzero"/><path fill="#2f3037" d="M 180.078125 149.238281 L 77.667969 149.238281 L 77.667969 93.042969 L 180.078125 93.042969 L 180.078125 149.238281 " fill-opacity="1" fill-rule="nonzero"/><path fill="#d1d2d0" d="M 376.320312 230.390625 L 294.300781 230.390625 L 294.300781 150.6875 L 376.320312 150.6875 L 376.320312 230.390625 " fill-opacity="1" fill-rule="nonzero"/><path fill="#2f3037" d="M 374.230469 227.742188 L 298.058594 227.742188 L 298.058594 155.601562 L 374.230469 155.601562 L 374.230469 227.742188 " fill-opacity="1" fill-rule="nonzero"/><path fill="#474a53" d="M 428.65625 253.96875 L 428.65625 281.734375 L 516.367188 281.734375 L 516.367188 253.96875 L 428.65625 253.96875 " fill-opacity="1" fill-rule="nonzero"/><path fill="#474a53" d="M 516.367188 246.253906 L 516.367188 220.476562 L 428.65625 220.476562 L 428.65625 246.253906 L 516.367188 246.253906 " fill-opacity="1" fill-rule="nonzero"/><path fill="#f5f5f4" d="M 131.039062 98.589844 C 114.683594 99.261719 98.644531 97.992188 82.351562 97.96875 C 81.144531 97.964844 79.988281 99.804688 81.621094 100.160156 C 97.476562 103.628906 115.367188 103.148438 131.484375 101.753906 C 133.886719 101.546875 133.359375 98.492188 131.039062 98.589844 " fill-opacity="1" fill-rule="nonzero"/><path fill="#f5f5f4" d="M 97.820312 107.972656 C 95.515625 107.042969 92.761719 107.507812 90.316406 107.546875 C 87.753906 107.589844 85.203125 107.625 82.640625 107.769531 C 81.257812 107.847656 81.246094 109.699219 82.601562 109.882812 C 85.371094 110.257812 88.128906 110.40625 90.921875 110.488281 C 93.207031 110.554688 95.664062 110.824219 97.796875 109.890625 C 98.714844 109.488281 98.785156 108.363281 97.820312 107.972656 " fill-opacity="1" fill-rule="nonzero"/><path fill="#f5f5f4" d="M 125.628906 106.890625 C 122.074219 106.257812 118.34375 106.707031 114.765625 106.941406 C 110.871094 107.191406 106.945312 106.804688 103.085938 107.164062 C 102.066406 107.257812 101.234375 108.777344 102.371094 109.367188 C 105.527344 111.007812 109.117188 110.914062 112.617188 110.804688 C 116.925781 110.671875 121.265625 110.550781 125.566406 110.292969 C 127.847656 110.15625 127.753906 107.265625 125.628906 106.890625 " fill-opacity="1" fill-rule="nonzero"/><path fill="#f5f5f4" d="M 115.378906 114.613281 C 110.089844 114.019531 104.804688 114.796875 99.515625 115.164062 C 94.335938 115.523438 88.933594 115.332031 83.945312 116.871094 C 83.179688 117.109375 83.097656 118.257812 83.925781 118.480469 C 88.746094 119.75 93.90625 119.1875 98.847656 118.929688 C 104.515625 118.636719 110.25 118.507812 115.679688 116.761719 C 116.933594 116.355469 116.578125 114.75 115.378906 114.613281 " fill-opacity="1" fill-rule="nonzero"/><path fill="#f5f5f4" d="M 103.496094 123.855469 C 100.621094 123.039062 97.523438 123.460938 94.5625 123.582031 C 91.335938 123.710938 88.046875 123.632812 84.9375 124.570312 C 83.953125 124.867188 83.851562 126.359375 84.910156 126.632812 C 88.027344 127.429688 91.300781 127.171875 94.496094 127.140625 C 97.488281 127.113281 100.597656 127.367188 103.464844 126.421875 C 104.6875 126.015625 104.8125 124.230469 103.496094 123.855469 " fill-opacity="1" fill-rule="nonzero"/><path fill="#f5f5f4" d="M 327.066406 101.039062 C 318.617188 100.828125 310.167969 100.722656 301.71875 100.792969 C 295.214844 100.84375 286.878906 99.835938 280.816406 102.40625 C 280.214844 102.664062 280.140625 103.449219 280.800781 103.6875 C 287.191406 106.015625 295.59375 104.5 302.339844 104.472656 C 310.363281 104.4375 318.386719 104.546875 326.414062 104.757812 C 329.019531 104.824219 329.917969 101.113281 327.066406 101.039062 " fill-opacity="1" fill-rule="nonzero"/><path fill="#f5f5f4" d="M 301.925781 109.203125 C 299.894531 107.039062 297.078125 107.871094 294.398438 108.164062 C 290.421875 108.605469 286.199219 108.074219 282.320312 108.996094 C 281.601562 109.167969 280.707031 110.300781 281.734375 110.789062 C 286.964844 113.273438 295.417969 112.382812 300.945312 111.207031 C 301.816406 111.019531 302.71875 110.046875 301.925781 109.203125 " fill-opacity="1" fill-rule="nonzero"/><path fill="#f5f5f4" d="M 329.917969 117.171875 C 321.761719 116.667969 313.558594 116.578125 305.390625 116.429688 C 298.027344 116.292969 290.242188 115.476562 282.972656 116.757812 C 282.058594 116.914062 281.476562 118.324219 282.65625 118.601562 C 289.777344 120.269531 297.457031 119.878906 304.738281 120.128906 C 312.914062 120.402344 321.117188 120.738281 329.300781 120.660156 C 331.6875 120.636719 332.652344 117.339844 329.917969 117.171875 " fill-opacity="1" fill-rule="nonzero"/><path fill="#f5f5f4" d="M 343.671875 161.730469 C 330.15625 162.355469 316.667969 161.945312 303.148438 161.730469 C 301.527344 161.703125 300.9375 163.8125 302.742188 164.058594 C 316.480469 165.933594 330.332031 165.902344 344.171875 165.273438 C 346.839844 165.152344 346.300781 161.605469 343.671875 161.730469 " fill-opacity="1" fill-rule="nonzero"/><path fill="#f5f5f4" d="M 329.238281 168.925781 C 320.78125 167.402344 312.375 167.722656 303.886719 168.949219 C 302.46875 169.15625 302.25 171.191406 303.84375 171.273438 C 311.859375 171.667969 320.234375 170.117188 328 172.648438 C 330.820312 173.570312 332.53125 169.519531 329.238281 168.925781 " fill-opacity="1" fill-rule="nonzero"/><path fill="#f5f5f4" d="M 345.5625 178.871094 C 331.921875 178.578125 317.425781 177.707031 303.9375 180.125 C 303.042969 180.289062 302.921875 181.460938 303.90625 181.574219 C 317.375 183.175781 331.371094 182.167969 344.929688 182.480469 C 347.464844 182.539062 348.335938 178.929688 345.5625 178.871094 " fill-opacity="1" fill-rule="nonzero"/><path fill="#f5f5f4" d="M 321.847656 185.785156 C 316.4375 186.4375 311.09375 185.328125 305.679688 186.535156 C 304.542969 186.789062 304.359375 188.21875 305.644531 188.402344 C 310.679688 189.128906 316.292969 188.222656 321.195312 189.597656 C 324.765625 190.597656 325.550781 185.34375 321.847656 185.785156 " fill-opacity="1" fill-rule="nonzero"/><path fill="#7d8693" d="M 447.71875 470.199219 L 23.511719 470.199219 L 23.511719 328.894531 L 447.71875 328.894531 L 447.71875 470.199219 " fill-opacity="1" fill-rule="nonzero"/><path fill="#4c505b" d="M 435.164062 470.199219 L 37.175781 470.199219 L 37.175781 328.894531 L 435.164062 328.894531 L 435.164062 470.199219 " fill-opacity="1" fill-rule="nonzero"/><path fill="#8d95a2" d="M 466.894531 328.894531 L 6.105469 328.894531 L 6.105469 316.09375 L 466.894531 316.09375 L 466.894531 328.894531 " fill-opacity="1" fill-rule="nonzero"/><path fill="#f4687d" d="M 222.546875 456.601562 C 222.242188 456.671875 93.589844 445.179688 59.214844 469.894531 C 140.75 510.917969 404.75 484.875 404.75 473.433594 C 404.75 461.996094 319.328125 434.460938 222.546875 456.601562 " fill-opacity="1" fill-rule="nonzero"/><path fill="#fab987" d="M 347.457031 225.097656 C 347.457031 225.097656 378.742188 305.3125 375.4375 312.144531 C 372.128906 318.976562 289.929688 315.007812 289.710938 314.347656 C 289.492188 313.6875 285.085938 297.378906 287.726562 294.734375 C 290.375 292.089844 315.273438 284.378906 316.15625 282.394531 C 317.035156 280.410156 304.378906 261.109375 304.476562 255.507812 C 304.578125 249.90625 347.457031 225.097656 347.457031 225.097656 " fill-opacity="1" fill-rule="nonzero"/><path fill="#fab987" d="M 82.792969 237 C 82.792969 237 64.722656 305.3125 68.027344 312.144531 C 71.332031 318.976562 153.53125 315.007812 153.75 314.347656 C 153.972656 313.6875 158.378906 297.378906 155.734375 294.734375 C 153.089844 292.089844 128.1875 284.378906 127.308594 282.394531 C 126.425781 280.410156 139.085938 261.109375 138.988281 255.511719 C 138.886719 249.910156 82.792969 237 82.792969 237 " fill-opacity="1" fill-rule="nonzero"/><path fill="#fab987" d="M 118.933594 364.617188 C 117.171875 363.269531 29.464844 346.71875 9.628906 379.675781 C 0.59375 401.394531 62.078125 448.523438 118.933594 459.554688 C 146.039062 422.550781 118.933594 364.617188 118.933594 364.617188 " fill-opacity="1" fill-rule="nonzero"/><path fill="#fab987" d="M 332.460938 363.914062 C 332.460938 363.914062 417.53125 339.082031 423.257812 361.535156 C 428.988281 383.984375 382.269531 438.636719 340.84375 447.453125 C 333.351562 418.363281 332.460938 363.914062 332.460938 363.914062 " fill-opacity="1" fill-rule="nonzero"/><path fill="#c36743" d="M 214.351562 25.226562 C 213.789062 25.570312 180.414062 13.105469 174.464844 35.800781 C 140.75 58.277344 161.023438 116.679688 174.464844 124.828125 C 187.910156 132.984375 242 128.339844 242.667969 127.914062 C 253.355469 121.195312 259.308594 88.027344 256.222656 60.042969 C 253.136719 32.058594 222.285156 20.378906 214.351562 25.226562 " fill-opacity="1" fill-rule="nonzero"/><path fill="#c98b45" d="M 145.597656 364.921875 C 145.597656 364.921875 138.324219 365.253906 134.027344 364.921875 C 129.730469 364.589844 122.789062 358.972656 112.875 363.269531 C 102.957031 367.566406 90.066406 449.875 116.179688 459.132812 C 143.285156 470.699219 186.257812 473.34375 195.511719 470.699219 C 204.769531 468.054688 310.214844 483.589844 321.785156 460.785156 C 332.03125 458.136719 344.589844 451.527344 352.691406 446.898438 C 360.789062 442.273438 361.78125 367.980469 329.71875 361.65625 C 323.105469 360.625 322.773438 366.246094 312.53125 366.246094 C 302.277344 366.246094 145.597656 364.921875 145.597656 364.921875 " fill-opacity="1" fill-rule="nonzero"/><path fill="#976c37" d="M 311.039062 370.210938 C 311.535156 370.210938 323.273438 376.492188 328.0625 385.085938 C 332.855469 393.679688 340.128906 363.105469 310.046875 363.929688 C 300.792969 365.085938 311.039062 370.210938 311.039062 370.210938 " fill-opacity="1" fill-rule="nonzero"/><path fill="#976c37" d="M 151.21875 367.734375 C 150.722656 367.734375 129.402344 379.964844 125.765625 389.054688 C 121.136719 389.550781 116.179688 362.445312 143.78125 364.757812 C 171.378906 367.070312 151.21875 367.734375 151.21875 367.734375 " fill-opacity="1" fill-rule="nonzero"/><path fill="#333841" d="M 142.511719 262.785156 C 142.511719 262.785156 81.800781 245.265625 78.496094 235.679688 C 79.816406 233.367188 81.800781 231.378906 82.460938 230.390625 C 83.121094 229.398438 101.964844 167.917969 119.152344 155.355469 C 136.339844 142.792969 172.039062 114.035156 220.632812 118.332031 C 269.222656 122.628906 311.863281 164.941406 314.507812 169.238281 C 317.152344 173.535156 346.738281 222.292969 348.886719 223.449219 C 351.035156 224.605469 352.6875 225.433594 352.6875 227.578125 C 352.6875 229.726562 308.226562 261.296875 302.445312 260.964844 C 301.78125 276.003906 311.753906 339.03125 308.886719 345.640625 C 306.023438 352.253906 314.617188 369.882812 316.382812 373.410156 C 287.734375 403.15625 153.75 391.917969 140.96875 367.898438 C 140.96875 364.375 146.039062 356.660156 145.816406 353.574219 C 145.597656 350.488281 142.289062 263.882812 142.511719 262.785156 " fill-opacity="1" fill-rule="nonzero"/><path fill="#976c37" d="M 297.070312 469.183594 C 281.832031 470.121094 266.425781 469.90625 251.082031 469.777344 C 250.65625 459.085938 248.933594 448.539062 248.566406 437.828125 C 268.546875 435.34375 288.230469 433.863281 308.375 434.929688 C 309.25 446.71875 306.105469 457.207031 303.5625 468.621094 C 301.386719 468.882812 299.207031 469.050781 297.070312 469.183594 Z M 219.613281 446.160156 C 219.445312 454.027344 219.613281 461.933594 219.28125 469.796875 C 204.917969 469.835938 190.554688 469.71875 176.214844 468.863281 C 170.667969 468.53125 165.210938 468.023438 159.804688 467.367188 C 156.253906 456.15625 153.105469 445.578125 153.546875 433.628906 C 169.578125 435.8125 185.988281 436.03125 202.121094 436.957031 C 206.003906 437.179688 209.882812 437.425781 213.765625 437.625 C 215.0625 437.726562 216.355469 437.789062 217.65625 437.808594 C 218.9375 437.421875 219.5 437.941406 219.339844 439.359375 C 220.363281 441.226562 219.65625 444.089844 219.613281 446.160156 Z M 347.484375 446.816406 C 339.992188 449.703125 332.652344 452.570312 326.125 457.371094 C 321.726562 460.609375 318.074219 464.835938 312.78125 466.648438 C 310.824219 467.320312 308.789062 467.800781 306.722656 468.160156 C 311.488281 457.148438 312.035156 444.265625 312.726562 432.507812 C 312.800781 431.25 312.191406 429.933594 310.773438 429.847656 C 289.320312 428.550781 267.230469 429.097656 246.09375 433.328125 C 244.933594 433.5625 243.984375 435.109375 244.226562 436.246094 C 246.609375 447.339844 247.179688 458.660156 249.300781 469.761719 C 244.496094 469.726562 239.695312 469.695312 234.910156 469.722656 C 230.421875 469.746094 225.933594 469.773438 221.441406 469.789062 C 222 460.191406 223.308594 450.625 223.921875 441.03125 C 224.367188 434.070312 222.585938 433.035156 215.675781 432.558594 C 194.703125 431.121094 173.222656 428.949219 152.199219 429.558594 C 150.972656 429.59375 150.203125 430.75 150.289062 431.910156 C 151.164062 443.59375 152.578125 456.199219 157.492188 467.066406 C 143.558594 465.261719 129.9375 462.457031 116.082031 458.820312 C 115.441406 458.648438 115.085938 459.636719 115.675781 459.925781 C 152.050781 477.671875 196.273438 475.058594 235.570312 474.855469 C 256.574219 474.746094 278.007812 475.855469 298.953125 474.152344 C 306.921875 473.503906 315.378906 472.351562 321.707031 467.0625 C 330.078125 460.0625 338.433594 454.378906 348.023438 449.105469 C 349.003906 448.5625 348.8125 446.304688 347.484375 446.816406 " fill-opacity="1" fill-rule="nonzero"/><path fill="#d1d2d0" d="M 200.921875 186.453125 C 197.953125 192.738281 191.351562 189.1875 188.296875 185.6875 C 185.628906 182.632812 184.484375 178.800781 184.667969 174.78125 C 185.035156 166.792969 190.507812 154.6875 199.90625 162.269531 C 201.789062 163.789062 203.601562 160.648438 202.585938 159.046875 C 198.714844 152.964844 191.566406 151.972656 186.507812 157.339844 C 181.789062 162.351562 179.527344 171.777344 180.191406 178.460938 C 181.402344 190.660156 198.027344 203.011719 205.128906 187.984375 C 206.558594 184.964844 202.324219 183.480469 200.921875 186.453125 " fill-opacity="1" fill-rule="nonzero"/><path fill="#d1d2d0" d="M 227.1875 170.054688 C 225.578125 170.011719 223.914062 170.007812 222.242188 170.027344 C 222.097656 167.367188 221.761719 164.75 221.085938 162.351562 C 220.460938 160.140625 217.660156 161.570312 217.484375 163.273438 C 217.253906 165.542969 217.207031 167.875 217.242188 170.226562 C 215.195312 170.359375 213.15625 170.539062 211.207031 170.832031 C 208.914062 171.179688 208.675781 175.332031 211.183594 175.527344 C 213.199219 175.679688 215.300781 175.699219 217.414062 175.65625 C 217.5 177.789062 217.582031 179.90625 217.585938 181.980469 C 217.585938 184.949219 221.871094 184.101562 222.035156 181.484375 C 222.152344 179.554688 222.261719 177.511719 222.308594 175.441406 C 223.761719 175.339844 225.195312 175.21875 226.589844 175.074219 C 229.203125 174.804688 230.277344 170.144531 227.1875 170.054688 " fill-opacity="1" fill-rule="nonzero"/><path fill="#d1d2d0" d="M 249.222656 170.054688 C 247.613281 170.011719 245.953125 170.007812 244.28125 170.027344 C 244.132812 167.367188 243.800781 164.75 243.125 162.351562 C 242.496094 160.140625 239.695312 161.570312 239.519531 163.273438 C 239.289062 165.542969 239.242188 167.875 239.277344 170.226562 C 237.230469 170.359375 235.195312 170.539062 233.242188 170.832031 C 230.953125 171.179688 230.714844 175.332031 233.222656 175.527344 C 235.238281 175.679688 237.339844 175.699219 239.453125 175.65625 C 239.535156 177.789062 239.621094 179.90625 239.621094 181.980469 C 239.625 184.949219 243.910156 184.101562 244.070312 181.484375 C 244.1875 179.554688 244.296875 177.511719 244.347656 175.441406 C 245.796875 175.339844 247.230469 175.21875 248.625 175.074219 C 251.242188 174.804688 252.3125 170.144531 249.222656 170.054688 " fill-opacity="1" fill-rule="nonzero"/><path fill="#a0563a" d="M 186.828125 94.683594 C 183.34375 84.269531 179.871094 74.429688 178.734375 63.398438 C 178.597656 62.085938 176.878906 62.148438 176.523438 63.308594 C 176.285156 64.085938 174.007812 72.507812 173.703125 72.503906 C 171.65625 72.457031 173.179688 65.710938 173.328125 64.746094 C 174.289062 58.363281 176.011719 52.15625 178.199219 46.089844 C 178.457031 45.371094 177.5 45.019531 177.226562 45.738281 C 175.269531 50.832031 173.582031 55.988281 172.332031 61.300781 C 171.617188 64.339844 168.921875 70.898438 170.785156 73.933594 C 173.472656 78.308594 175.667969 74.117188 177.058594 69.910156 C 178.230469 78.96875 180.511719 88.167969 185.039062 96.015625 C 185.730469 97.214844 187.152344 95.660156 186.828125 94.683594 " fill-opacity="1" fill-rule="nonzero"/><path fill="#a0563a" d="M 214.832031 48.941406 C 214.3125 47.582031 212.535156 48.816406 212.980469 49.996094 C 215.707031 57.214844 216.820312 64.542969 218.054688 72.109375 C 218.1875 72.925781 219.285156 72.742188 219.320312 71.96875 C 219.675781 64.089844 217.613281 56.257812 214.832031 48.941406 " fill-opacity="1" fill-rule="nonzero"/><path fill="#a0563a" d="M 232.789062 52.78125 C 232.480469 51.445312 230.703125 52.046875 230.953125 53.257812 C 234.207031 69.050781 232.820312 83.910156 229.09375 99.445312 C 228.738281 100.921875 230.527344 101.683594 231.074219 100.167969 C 236.507812 85.121094 236.332031 68.207031 232.789062 52.78125 " fill-opacity="1" fill-rule="nonzero"/><path fill="#a0563a" d="M 198.933594 111.683594 C 196.925781 108.214844 195.082031 104.71875 193.628906 100.980469 C 193.140625 99.714844 191.511719 100.859375 191.914062 101.953125 C 193.355469 105.855469 195.105469 109.664062 197.40625 113.140625 C 198.15625 114.273438 199.511719 112.675781 198.933594 111.683594 " fill-opacity="1" fill-rule="nonzero"/><path fill="#a0563a" d="M 170.15625 80.757812 C 169.730469 79.574219 168.1875 80.644531 168.554688 81.667969 C 170.886719 88.167969 172.765625 95.320312 176.054688 101.40625 C 176.328125 101.917969 177.027344 101.332031 176.941406 100.902344 C 175.558594 94.0625 172.5 87.320312 170.15625 80.757812 " fill-opacity="1" fill-rule="nonzero"/><path fill="#a0563a" d="M 205.121094 35.621094 C 204.917969 35.621094 204.859375 35.988281 205.074219 35.988281 C 205.277344 35.988281 205.335938 35.621094 205.121094 35.621094 " fill-opacity="1" fill-rule="nonzero"/><path fill="#a0563a" d="M 223.0625 32.445312 C 221.847656 29.632812 217.597656 25.140625 214.167969 25.8125 C 210.464844 26.53125 211.789062 30.019531 211.117188 32.535156 C 207.933594 31.0625 204.789062 29.484375 201.574219 28.078125 C 200.6875 27.6875 199.933594 29.289062 200.714844 29.792969 C 204.023438 31.933594 207.457031 33.871094 210.789062 35.976562 C 211.3125 36.304688 212.097656 36.324219 212.535156 35.804688 C 213.796875 34.308594 213.71875 33.359375 214.058594 31.550781 C 213.496094 29.988281 213.90625 29.496094 215.285156 30.074219 C 216.199219 29.96875 216.953125 30.265625 217.542969 30.964844 C 218.9375 31.800781 219.855469 33.285156 221.207031 34.214844 C 222.277344 34.949219 223.523438 33.515625 223.0625 32.445312 " fill-opacity="1" fill-rule="nonzero"/><path fill="#a0563a" d="M 246.226562 58.757812 C 245.933594 57.652344 244.324219 58.484375 244.535156 59.449219 C 247.734375 74.023438 245.761719 87.070312 241.828125 101.207031 C 241.574219 102.117188 242.722656 103.03125 243.25 101.996094 C 249.898438 88.867188 249.917969 72.707031 246.226562 58.757812 " fill-opacity="1" fill-rule="nonzero"/><path fill="#252930" d="M 139.949219 238.652344 C 137.9375 235.300781 134.632812 232.824219 132.175781 229.820312 C 129.515625 226.566406 127.726562 222.667969 124.808594 219.660156 C 124.125 218.953125 123.148438 220.128906 123.257812 220.824219 C 124.316406 227.601562 129.488281 232.984375 133.625 238.148438 C 139.03125 244.894531 139.910156 255.921875 142.101562 264.144531 C 142.371094 265.160156 143.8125 264.5625 143.824219 263.703125 C 143.914062 255.871094 144.132812 245.609375 139.949219 238.652344 " fill-opacity="1" fill-rule="nonzero"/><path fill="#252930" d="M 306.472656 208.410156 C 306.183594 207.296875 304.695312 207.765625 304.421875 208.625 C 301.542969 217.570312 300.40625 228.082031 298.914062 237.394531 C 297.648438 245.296875 297.113281 255.226562 302.21875 261.957031 C 302.703125 262.59375 303.597656 262.058594 303.652344 261.375 C 304 257.09375 302.878906 253 302.648438 248.726562 C 302.363281 243.410156 302.988281 238.046875 303.90625 232.816406 C 305.25 225.105469 308.507812 216.191406 306.472656 208.410156 " fill-opacity="1" fill-rule="nonzero"/><path fill="#252930" d="M 296.375 366.847656 C 291.460938 368.238281 286.917969 370.695312 281.976562 372.109375 C 277.035156 373.527344 271.953125 374.453125 266.855469 375.109375 C 255.800781 376.527344 244.609375 376.769531 233.492188 376.085938 C 210.304688 374.660156 187.28125 371.25 164.183594 368.859375 C 163.160156 368.753906 162.859375 370.605469 163.960938 370.730469 C 188.515625 373.492188 213.148438 376.386719 237.757812 378.585938 C 248.347656 379.53125 258.921875 380.28125 269.519531 378.96875 C 278.871094 377.8125 289.851562 375.703125 297.53125 369.960938 C 298.757812 369.042969 298.125 366.351562 296.375 366.847656 " fill-opacity="1" fill-rule="nonzero"/><g clip-path="url(#5e734b2d9b)"><g clip-path="url(#1d1abc397f)"><path fill="#333841" d="M 170.054688 143.992188 L 261.851562 143.992188 L 261.851562 212.277344 L 170.054688 212.277344 Z M 170.054688 143.992188 " fill-opacity="1" fill-rule="nonzero"/></g></g><g clip-path="url(#68023f788c)"><path fill="#ffffff" d="M 229.34375 169.578125 C 227.128906 167.929688 223.609375 166.574219 218.882812 165.550781 C 218.097656 165.378906 217.355469 165.195312 216.636719 165.007812 C 217.988281 162.808594 218.777344 160.234375 218.777344 157.472656 L 218.777344 146.363281 C 222.832031 146.394531 226.066406 147.398438 228.378906 149.351562 C 230.402344 151.0625 231.453125 153.082031 231.59375 155.511719 C 231.609375 155.75 231.804688 155.929688 232.035156 155.929688 C 232.046875 155.929688 232.050781 155.929688 232.0625 155.929688 C 232.304688 155.914062 232.496094 155.710938 232.480469 155.460938 C 232.324219 152.773438 231.171875 150.550781 228.949219 148.671875 C 226.472656 146.574219 223.046875 145.503906 218.777344 145.472656 L 218.777344 135.417969 C 218.777344 135.167969 218.574219 134.972656 218.332031 134.972656 L 204.300781 134.972656 C 204.050781 134.972656 203.855469 135.175781 203.855469 135.417969 C 203.855469 135.660156 204.058594 135.859375 204.300781 135.859375 L 217.890625 135.859375 L 217.890625 157.472656 C 217.890625 160.15625 217.097656 162.660156 215.746094 164.765625 C 212.707031 163.902344 210.367188 162.863281 208.769531 161.675781 C 206.894531 160.277344 205.988281 158.332031 205.988281 155.726562 C 205.988281 153.136719 207.066406 150.996094 209.285156 149.183594 C 209.476562 149.027344 209.503906 148.75 209.347656 148.558594 C 209.195312 148.367188 208.914062 148.34375 208.726562 148.496094 C 206.289062 150.492188 205.101562 152.855469 205.101562 155.726562 C 205.101562 158.628906 206.128906 160.808594 208.246094 162.386719 C 209.875 163.601562 212.21875 164.652344 215.222656 165.535156 C 212.742188 168.878906 208.777344 171.0625 204.304688 171.0625 C 196.808594 171.0625 190.714844 164.960938 190.714844 157.472656 C 190.714844 157.222656 190.511719 157.027344 190.269531 157.027344 C 190.023438 157.027344 189.828125 157.230469 189.828125 157.472656 C 189.828125 165.457031 196.324219 171.953125 204.304688 171.953125 C 209.195312 171.953125 213.515625 169.511719 216.136719 165.792969 C 216.953125 166.011719 217.800781 166.222656 218.703125 166.421875 C 223.304688 167.414062 226.710938 168.71875 228.824219 170.292969 C 230.699219 171.691406 231.605469 173.636719 231.605469 176.246094 C 231.605469 178.832031 230.527344 180.972656 228.308594 182.789062 C 226.015625 184.664062 222.882812 185.617188 218.996094 185.617188 C 214.851562 185.617188 211.554688 184.605469 209.203125 182.621094 C 207.183594 180.910156 206.128906 178.890625 205.988281 176.460938 C 205.972656 176.214844 205.773438 176.023438 205.519531 176.042969 C 205.277344 176.058594 205.089844 176.265625 205.101562 176.511719 C 205.257812 179.203125 206.410156 181.421875 208.632812 183.300781 C 211.144531 185.429688 214.632812 186.507812 218.996094 186.507812 C 223.09375 186.507812 226.410156 185.488281 228.867188 183.484375 C 231.304688 181.488281 232.492188 179.125 232.492188 176.253906 C 232.484375 173.332031 231.453125 171.15625 229.34375 169.578125 Z M 229.34375 169.578125 " fill-opacity="1" fill-rule="nonzero"/></g><path fill="#c98b45" d="M 228.175781 204.390625 C 228.523438 204.589844 228.851562 204.820312 229.160156 205.085938 C 229.46875 205.351562 229.757812 205.644531 230.023438 205.96875 C 230.289062 206.292969 230.535156 206.648438 230.757812 207.03125 C 230.980469 207.410156 231.179688 207.820312 231.355469 208.257812 C 231.53125 208.695312 231.679688 209.15625 231.808594 209.640625 C 231.9375 210.128906 232.039062 210.636719 232.117188 211.167969 C 232.195312 211.699219 232.25 212.25 232.277344 212.824219 C 232.304688 213.394531 232.308594 213.984375 232.285156 214.589844 C 232.261719 215.195312 232.214844 215.816406 232.144531 216.449219 C 232.070312 217.085938 231.972656 217.730469 231.851562 218.386719 C 231.726562 219.046875 231.582031 219.710938 231.410156 220.382812 C 231.242188 221.058594 231.046875 221.734375 230.828125 222.417969 C 230.613281 223.101562 230.371094 223.785156 230.109375 224.472656 C 229.847656 225.160156 229.566406 225.84375 229.261719 226.527344 C 228.957031 227.210938 228.636719 227.886719 228.292969 228.5625 C 227.949219 229.234375 227.585938 229.898438 227.207031 230.554688 C 226.828125 231.210938 226.433594 231.855469 226.023438 232.492188 C 225.613281 233.125 225.1875 233.742188 224.746094 234.347656 C 224.308594 234.953125 223.855469 235.539062 223.394531 236.109375 C 222.929688 236.679688 222.457031 237.230469 221.972656 237.757812 C 221.488281 238.289062 221 238.796875 220.5 239.28125 C 220.003906 239.765625 219.5 240.222656 218.992188 240.660156 C 218.484375 241.09375 217.972656 241.5 217.460938 241.882812 C 216.945312 242.261719 216.433594 242.613281 215.921875 242.933594 C 215.40625 243.257812 214.894531 243.550781 214.386719 243.8125 C 213.878906 244.070312 213.375 244.300781 212.875 244.5 C 212.375 244.699219 211.882812 244.863281 211.398438 244.996094 C 210.914062 245.128906 210.4375 245.226562 209.972656 245.292969 C 209.503906 245.359375 209.050781 245.390625 208.609375 245.390625 C 208.167969 245.390625 207.738281 245.355469 207.324219 245.285156 C 206.910156 245.21875 206.511719 245.113281 206.128906 244.980469 C 205.746094 244.84375 205.378906 244.675781 205.03125 244.476562 C 204.683594 244.277344 204.355469 244.042969 204.046875 243.78125 C 203.738281 243.515625 203.453125 243.222656 203.1875 242.898438 C 202.917969 242.570312 202.675781 242.21875 202.453125 241.835938 C 202.230469 241.453125 202.03125 241.042969 201.855469 240.609375 C 201.679688 240.171875 201.527344 239.710938 201.398438 239.222656 C 201.273438 238.738281 201.167969 238.226562 201.089844 237.695312 C 201.011719 237.164062 200.960938 236.613281 200.933594 236.042969 C 200.902344 235.472656 200.902344 234.882812 200.921875 234.277344 C 200.945312 233.671875 200.992188 233.050781 201.066406 232.414062 C 201.136719 231.78125 201.234375 231.136719 201.359375 230.476562 C 201.480469 229.820312 201.625 229.15625 201.796875 228.480469 C 201.96875 227.808594 202.160156 227.128906 202.378906 226.445312 C 202.597656 225.761719 202.835938 225.078125 203.097656 224.390625 C 203.359375 223.707031 203.640625 223.019531 203.945312 222.339844 C 204.25 221.65625 204.574219 220.976562 204.917969 220.304688 C 205.261719 219.632812 205.621094 218.96875 206 218.308594 C 206.378906 217.652344 206.773438 217.007812 207.183594 216.375 C 207.597656 215.742188 208.023438 215.121094 208.460938 214.519531 C 208.902344 213.914062 209.351562 213.324219 209.816406 212.753906 C 210.28125 212.1875 210.753906 211.636719 211.234375 211.105469 C 211.71875 210.578125 212.210938 210.070312 212.707031 209.585938 C 213.207031 209.101562 213.707031 208.640625 214.214844 208.207031 C 214.722656 207.773438 215.234375 207.363281 215.75 206.984375 C 216.261719 206.605469 216.773438 206.253906 217.289062 205.929688 C 217.800781 205.609375 218.3125 205.316406 218.824219 205.054688 C 219.332031 204.792969 219.835938 204.5625 220.335938 204.367188 C 220.835938 204.167969 221.328125 204.003906 221.8125 203.871094 C 222.296875 203.738281 222.773438 203.636719 223.238281 203.570312 C 223.703125 203.507812 224.15625 203.472656 224.601562 203.476562 C 225.042969 203.476562 225.472656 203.511719 225.886719 203.578125 C 226.300781 203.648438 226.699219 203.75 227.082031 203.886719 C 227.464844 204.019531 227.828125 204.1875 228.175781 204.390625 Z M 228.175781 204.390625 " fill-opacity="1" fill-rule="nonzero"/><path fill="#ffffff" d="M 215.953125 237.148438 C 201.539062 237.148438 190.25 232.445312 190.25 226.4375 C 190.25 220.433594 201.539062 215.730469 215.953125 215.730469 C 230.363281 215.730469 241.65625 220.433594 241.65625 226.4375 C 241.65625 232.445312 230.363281 237.148438 215.953125 237.148438 Z M 215.953125 217.871094 C 202.070312 217.871094 192.394531 222.386719 192.394531 226.4375 C 192.394531 230.492188 202.070312 235.003906 215.953125 235.003906 C 229.835938 235.003906 239.511719 230.492188 239.511719 226.4375 C 239.511719 222.386719 229.835938 217.871094 215.953125 217.871094 Z M 215.953125 217.871094 " fill-opacity="1" fill-rule="nonzero"/><path fill="#ffffff" d="M 206.679688 250 C 205.65625 250 204.730469 249.746094 203.921875 249.242188 C 198.820312 246.066406 200.558594 233.570312 207.875 220.789062 C 213.253906 211.402344 220.179688 204.46875 225.527344 203.117188 C 227.3125 202.671875 228.855469 202.84375 230.128906 203.632812 C 235.226562 206.808594 233.488281 219.304688 226.167969 232.085938 C 220.792969 241.472656 213.863281 248.40625 208.515625 249.757812 C 207.875 249.917969 207.261719 250 206.679688 250 Z M 205.050781 247.425781 C 205.808594 247.898438 206.800781 247.980469 207.992188 247.679688 C 212.730469 246.484375 219.289062 239.789062 224.308594 231.023438 C 231.398438 218.648438 232.46875 207.613281 228.996094 205.457031 C 228.238281 204.980469 227.25 204.894531 226.054688 205.199219 C 221.316406 206.394531 214.757812 213.089844 209.738281 221.855469 C 202.648438 234.230469 201.578125 245.261719 205.050781 247.425781 Z M 205.050781 247.425781 " fill-opacity="1" fill-rule="nonzero"/><path fill="#ffffff" d="M 225.226562 250 C 224.644531 250 224.03125 249.917969 223.386719 249.757812 C 218.039062 248.410156 211.109375 241.472656 205.734375 232.085938 C 198.414062 219.308594 196.675781 206.808594 201.777344 203.636719 C 203.050781 202.847656 204.59375 202.675781 206.378906 203.121094 C 211.726562 204.46875 218.652344 211.40625 224.03125 220.792969 C 231.347656 233.570312 233.085938 246.070312 227.988281 249.246094 C 227.175781 249.746094 226.25 250 225.226562 250 Z M 227.421875 248.335938 L 227.441406 248.335938 Z M 204.550781 205.019531 C 203.921875 205.019531 203.371094 205.164062 202.910156 205.453125 C 199.4375 207.613281 200.507812 218.648438 207.597656 231.023438 C 212.617188 239.789062 219.175781 246.484375 223.910156 247.679688 C 225.105469 247.980469 226.097656 247.898438 226.855469 247.421875 C 230.328125 245.261719 229.257812 234.226562 222.167969 221.851562 C 217.148438 213.085938 210.589844 206.390625 205.851562 205.195312 C 205.386719 205.078125 204.953125 205.019531 204.550781 205.019531 Z M 204.550781 205.019531 " fill-opacity="1" fill-rule="nonzero"/><path fill="#ffffff" d="M 215.953125 231.792969 C 213 231.792969 210.597656 229.390625 210.597656 226.4375 C 210.597656 223.484375 213 221.085938 215.953125 221.085938 C 218.90625 221.085938 221.308594 223.484375 221.308594 226.4375 C 221.308594 229.390625 218.90625 231.792969 215.953125 231.792969 Z M 215.953125 223.226562 C 214.183594 223.226562 212.742188 224.667969 212.742188 226.4375 C 212.742188 228.210938 214.183594 229.652344 215.953125 229.652344 C 217.722656 229.652344 219.164062 228.210938 219.164062 226.4375 C 219.164062 224.667969 217.722656 223.226562 215.953125 223.226562 Z M 215.953125 223.226562 " fill-opacity="1" fill-rule="nonzero"/><g clip-path="url(#b46b662867)"><path fill="#ffffff" d="M 215.949219 262.402344 C 207.492188 262.402344 204.390625 266.5625 204.390625 269.636719 L 204.390625 274.785156 L 215.121094 274.785156 L 215.121094 276.4375 L 199.246094 276.4375 C 197.417969 276.4375 195.542969 277.128906 194.1875 278.75 C 192.828125 280.375 192.011719 282.851562 192.011719 286.339844 C 192.011719 289.832031 192.828125 292.308594 194.1875 293.929688 C 195.542969 295.554688 197.417969 296.246094 199.246094 296.246094 L 204.390625 296.246094 L 204.390625 303.042969 C 204.390625 306.117188 207.492188 310.277344 215.949219 310.277344 C 224.402344 310.277344 227.503906 306.117188 227.503906 303.042969 L 227.503906 297.894531 L 216.773438 297.894531 L 216.773438 296.246094 L 232.652344 296.246094 C 234.480469 296.246094 236.355469 295.554688 237.710938 293.929688 C 239.066406 292.308594 239.882812 289.832031 239.882812 286.339844 C 239.882812 282.851562 239.066406 280.375 237.710938 278.75 C 236.355469 277.128906 234.480469 276.4375 232.652344 276.4375 L 227.503906 276.4375 L 227.503906 269.636719 C 227.503906 268.058594 226.730469 266.210938 224.886719 264.792969 C 223.046875 263.378906 220.171875 262.402344 215.949219 262.402344 Z M 215.949219 264.054688 C 219.917969 264.054688 222.410156 264.972656 223.882812 266.105469 C 225.355469 267.234375 225.855469 268.589844 225.855469 269.636719 L 225.855469 276.4375 L 225.851562 276.4375 L 225.851562 282.136719 C 225.851562 282.816406 225.609375 283.460938 225.203125 284 C 224.664062 284.722656 223.84375 285.257812 222.941406 285.445312 C 222.714844 285.492188 222.484375 285.515625 222.25 285.515625 L 209.644531 285.515625 C 206.882812 285.515625 204.390625 287.730469 204.390625 290.542969 L 204.390625 294.59375 L 199.246094 294.59375 C 197.816406 294.59375 196.488281 294.109375 195.453125 292.871094 C 194.417969 291.636719 193.660156 289.574219 193.660156 286.339844 C 193.660156 283.109375 194.417969 281.046875 195.453125 279.808594 C 196.488281 278.574219 197.816406 278.085938 199.246094 278.085938 L 216.773438 278.085938 L 216.773438 273.132812 L 206.042969 273.132812 L 206.042969 269.636719 C 206.042969 267.667969 208.015625 264.054688 215.949219 264.054688 Z M 211.40625 267.355469 C 211.132812 267.355469 210.871094 267.410156 210.617188 267.511719 C 210.367188 267.617188 210.140625 267.765625 209.949219 267.960938 C 209.753906 268.152344 209.605469 268.378906 209.5 268.628906 C 209.398438 268.882812 209.34375 269.144531 209.34375 269.417969 C 209.34375 269.695312 209.398438 269.957031 209.5 270.210938 C 209.605469 270.460938 209.753906 270.683594 209.949219 270.878906 C 210.140625 271.074219 210.367188 271.222656 210.617188 271.328125 C 210.871094 271.429688 211.132812 271.484375 211.40625 271.484375 C 211.683594 271.484375 211.945312 271.429688 212.199219 271.328125 C 212.449219 271.222656 212.671875 271.074219 212.867188 270.878906 C 213.0625 270.683594 213.210938 270.460938 213.316406 270.210938 C 213.417969 269.957031 213.472656 269.695312 213.472656 269.417969 C 213.472656 269.144531 213.417969 268.882812 213.316406 268.628906 C 213.210938 268.378906 213.0625 268.152344 212.867188 267.960938 C 212.671875 267.765625 212.449219 267.617188 212.199219 267.511719 C 211.945312 267.410156 211.683594 267.355469 211.40625 267.355469 Z M 227.503906 278.085938 L 232.652344 278.085938 C 234.082031 278.085938 235.410156 278.574219 236.441406 279.808594 C 237.476562 281.046875 238.234375 283.109375 238.234375 286.339844 C 238.234375 289.574219 237.476562 291.636719 236.441406 292.871094 C 235.410156 294.109375 234.082031 294.59375 232.652344 294.59375 L 215.121094 294.59375 L 215.121094 299.546875 L 225.851562 299.546875 L 225.851562 303.042969 C 225.851562 305.011719 223.878906 308.625 215.949219 308.625 C 208.015625 308.625 206.042969 305.011719 206.042969 303.042969 L 206.042969 290.542969 C 206.042969 290.316406 206.070312 290.09375 206.121094 289.878906 C 206.480469 288.367188 208.015625 287.167969 209.644531 287.167969 L 222.25 287.167969 C 222.421875 287.167969 222.59375 287.15625 222.765625 287.140625 C 223.785156 287.039062 224.746094 286.640625 225.535156 286.03125 C 225.664062 285.929688 225.792969 285.820312 225.914062 285.707031 C 226.882812 284.800781 227.503906 283.546875 227.503906 282.136719 Z M 202.441406 279.792969 C 202.214844 279.796875 202.019531 279.882812 201.863281 280.042969 C 201.703125 280.207031 201.625 280.402344 201.628906 280.628906 L 201.628906 282.28125 C 201.625 282.511719 201.703125 282.707031 201.867188 282.871094 C 202.027344 283.035156 202.222656 283.117188 202.453125 283.117188 C 202.683594 283.117188 202.878906 283.035156 203.042969 282.871094 C 203.203125 282.707031 203.28125 282.511719 203.28125 282.28125 L 203.28125 280.628906 C 203.28125 280.398438 203.203125 280.199219 203.039062 280.035156 C 202.871094 279.871094 202.675781 279.789062 202.441406 279.792969 Z M 206.207031 279.792969 C 205.980469 279.796875 205.789062 279.882812 205.628906 280.042969 C 205.472656 280.207031 205.394531 280.402344 205.394531 280.628906 L 205.394531 282.28125 C 205.394531 282.511719 205.472656 282.707031 205.632812 282.871094 C 205.796875 283.035156 205.992188 283.117188 206.222656 283.117188 C 206.453125 283.117188 206.648438 283.035156 206.808594 282.871094 C 206.972656 282.707031 207.050781 282.511719 207.046875 282.28125 L 207.046875 280.628906 C 207.050781 280.398438 206.96875 280.199219 206.804688 280.035156 C 206.640625 279.871094 206.441406 279.789062 206.207031 279.792969 Z M 209.976562 279.792969 C 209.75 279.796875 209.558594 279.882812 209.398438 280.042969 C 209.238281 280.207031 209.164062 280.402344 209.164062 280.628906 L 209.164062 282.28125 C 209.164062 282.511719 209.242188 282.707031 209.402344 282.871094 C 209.566406 283.035156 209.761719 283.117188 209.992188 283.117188 C 210.222656 283.117188 210.417969 283.035156 210.578125 282.871094 C 210.742188 282.707031 210.820312 282.511719 210.816406 282.28125 L 210.816406 280.628906 C 210.820312 280.398438 210.738281 280.199219 210.574219 280.035156 C 210.410156 279.871094 210.210938 279.789062 209.976562 279.792969 Z M 213.746094 279.792969 C 213.519531 279.796875 213.324219 279.882812 213.167969 280.042969 C 213.007812 280.207031 212.929688 280.402344 212.933594 280.628906 L 212.933594 282.28125 C 212.929688 282.511719 213.007812 282.707031 213.171875 282.871094 C 213.332031 283.035156 213.527344 283.117188 213.757812 283.117188 C 213.988281 283.117188 214.183594 283.035156 214.347656 282.871094 C 214.507812 282.707031 214.585938 282.511719 214.582031 282.28125 L 214.582031 280.628906 C 214.585938 280.398438 214.507812 280.199219 214.339844 280.035156 C 214.175781 279.871094 213.976562 279.789062 213.746094 279.792969 Z M 220.601562 289.632812 C 220.371094 289.632812 220.179688 289.71875 220.019531 289.882812 C 219.863281 290.042969 219.785156 290.238281 219.789062 290.46875 L 219.789062 292.117188 C 219.785156 292.347656 219.863281 292.546875 220.027344 292.710938 C 220.1875 292.875 220.382812 292.957031 220.613281 292.957031 C 220.84375 292.957031 221.039062 292.875 221.199219 292.710938 C 221.363281 292.546875 221.441406 292.347656 221.4375 292.117188 L 221.4375 290.46875 C 221.441406 290.234375 221.359375 290.035156 221.195312 289.871094 C 221.03125 289.707031 220.832031 289.628906 220.601562 289.632812 Z M 224.367188 289.632812 C 224.140625 289.632812 223.945312 289.71875 223.789062 289.882812 C 223.628906 290.042969 223.550781 290.238281 223.554688 290.46875 L 223.554688 292.117188 C 223.550781 292.347656 223.632812 292.546875 223.792969 292.710938 C 223.953125 292.875 224.152344 292.957031 224.378906 292.957031 C 224.609375 292.957031 224.808594 292.875 224.96875 292.710938 C 225.128906 292.546875 225.210938 292.347656 225.207031 292.117188 L 225.207031 290.46875 C 225.210938 290.234375 225.128906 290.035156 224.964844 289.871094 C 224.800781 289.707031 224.601562 289.628906 224.367188 289.632812 Z M 228.136719 289.632812 C 227.910156 289.632812 227.714844 289.71875 227.558594 289.882812 C 227.398438 290.042969 227.320312 290.238281 227.324219 290.46875 L 227.324219 292.117188 C 227.320312 292.347656 227.402344 292.546875 227.5625 292.710938 C 227.722656 292.875 227.917969 292.957031 228.148438 292.957031 C 228.378906 292.957031 228.574219 292.875 228.738281 292.710938 C 228.898438 292.546875 228.980469 292.347656 228.976562 292.117188 L 228.976562 290.46875 C 228.980469 290.234375 228.898438 290.035156 228.734375 289.871094 C 228.570312 289.707031 228.371094 289.628906 228.136719 289.632812 Z M 231.90625 289.632812 C 231.675781 289.632812 231.484375 289.71875 231.324219 289.882812 C 231.167969 290.042969 231.089844 290.238281 231.09375 290.46875 L 231.09375 292.117188 C 231.089844 292.347656 231.167969 292.546875 231.328125 292.710938 C 231.492188 292.875 231.6875 292.957031 231.917969 292.957031 C 232.148438 292.957031 232.34375 292.875 232.503906 292.710938 C 232.667969 292.546875 232.746094 292.347656 232.742188 292.117188 L 232.742188 290.46875 C 232.746094 290.234375 232.664062 290.035156 232.5 289.871094 C 232.335938 289.707031 232.136719 289.628906 231.90625 289.632812 Z M 221.3125 301.199219 C 221.039062 301.199219 220.777344 301.25 220.523438 301.355469 C 220.269531 301.460938 220.046875 301.609375 219.855469 301.800781 C 219.660156 301.996094 219.511719 302.21875 219.40625 302.472656 C 219.300781 302.726562 219.25 302.988281 219.25 303.261719 C 219.25 303.535156 219.300781 303.796875 219.40625 304.050781 C 219.511719 304.304688 219.660156 304.527344 219.855469 304.722656 C 220.046875 304.914062 220.269531 305.0625 220.523438 305.167969 C 220.777344 305.273438 221.039062 305.324219 221.3125 305.324219 C 221.585938 305.324219 221.851562 305.273438 222.101562 305.167969 C 222.355469 305.0625 222.578125 304.914062 222.773438 304.722656 C 222.964844 304.527344 223.113281 304.304688 223.21875 304.050781 C 223.324219 303.796875 223.375 303.535156 223.375 303.261719 C 223.375 302.988281 223.324219 302.726562 223.21875 302.472656 C 223.113281 302.21875 222.964844 301.996094 222.773438 301.800781 C 222.578125 301.609375 222.355469 301.460938 222.101562 301.355469 C 221.851562 301.25 221.585938 301.199219 221.3125 301.199219 Z M 221.3125 301.199219 " fill-opacity="1" fill-rule="nonzero"/></g><g clip-path="url(#d684430e4a)"><path fill="#ffffff" d="M 205.472656 331.253906 L 216.234375 331.253906 L 216.234375 332.109375 L 206.460938 332.109375 L 206.460938 338.546875 L 215.652344 338.546875 L 215.652344 339.402344 L 206.460938 339.402344 L 206.460938 346.46875 L 216.347656 346.46875 L 216.347656 347.324219 L 205.472656 347.324219 Z M 217.199219 331.253906 L 218.34375 331.253906 L 223.410156 338.320312 L 228.585938 331.253906 L 235.632812 322.277344 L 224.058594 339.066406 L 230.023438 347.324219 L 228.832031 347.324219 L 223.410156 339.808594 L 217.960938 347.324219 L 216.796875 347.324219 L 222.804688 339.066406 Z M 230.449219 332.109375 L 230.449219 331.253906 L 242.710938 331.253906 L 242.710938 332.109375 L 237.0625 332.109375 L 237.0625 347.324219 L 236.078125 347.324219 L 236.078125 332.109375 Z M 192.011719 331.253906 L 193.242188 331.253906 L 210.246094 356.699219 L 203.222656 347.324219 L 193.042969 332.46875 L 192.996094 347.324219 L 192.011719 347.324219 Z M 242.613281 346.210938 C 242.410156 346.210938 242.261719 346.054688 242.261719 345.855469 C 242.261719 345.652344 242.410156 345.496094 242.613281 345.496094 C 242.816406 345.496094 242.964844 345.652344 242.964844 345.855469 C 242.964844 346.054688 242.816406 346.210938 242.613281 346.210938 Z M 243.582031 345.269531 L 244.109375 345.269531 C 244.117188 345.554688 244.324219 345.746094 244.632812 345.746094 C 244.976562 345.746094 245.167969 345.542969 245.167969 345.15625 L 245.167969 342.703125 L 245.707031 342.703125 L 245.707031 345.15625 C 245.707031 345.855469 245.304688 346.253906 244.636719 346.253906 C 244.011719 346.253906 243.582031 345.867188 243.582031 345.269531 Z M 246.410156 345.238281 L 246.945312 345.238281 C 246.988281 345.570312 247.308594 345.777344 247.773438 345.777344 C 248.203125 345.777344 248.519531 345.554688 248.519531 345.246094 C 248.519531 344.980469 248.320312 344.824219 247.863281 344.714844 L 247.414062 344.605469 C 246.789062 344.460938 246.503906 344.15625 246.503906 343.648438 C 246.503906 343.03125 247.007812 342.621094 247.761719 342.621094 C 248.46875 342.621094 248.980469 343.03125 249.011719 343.613281 L 248.488281 343.613281 C 248.4375 343.296875 248.160156 343.09375 247.753906 343.09375 C 247.332031 343.09375 247.046875 343.300781 247.046875 343.613281 C 247.046875 343.859375 247.230469 344 247.683594 344.109375 L 248.0625 344.199219 C 248.773438 344.367188 249.066406 344.65625 249.066406 345.175781 C 249.066406 345.839844 248.550781 346.253906 247.734375 346.253906 C 246.964844 346.253906 246.449219 345.859375 246.410156 345.238281 Z M 246.410156 345.238281 " fill-opacity="1" fill-rule="nonzero"/></g><g clip-path="url(#16777f6732)"><g clip-path="url(#93f7db11b5)"><path fill="#333841" d="M 245.28125 168.054688 L 255.386719 168.054688 L 255.386719 177.859375 L 245.28125 177.859375 Z M 245.28125 168.054688 " fill-opacity="1" fill-rule="nonzero"/></g></g></svg>