<!--?xml version="1.0" standalone="no"?-->

<svg version="1.0" xmlns="http://www.w3.org/2000/svg" width="100%" height="100%" viewBox="0 0 400.000000 400.000000" preserveAspectRatio="xMidYMid meet">

  <g transform="translate(0.000000,400.000000) scale(0.100000,-0.100000)" fill="#000000" stroke="none">
    <path d="M2880 3720 c0 -5 5 -10 10 -10 6 0 10 5 10 10 0 6 -4 10 -10 10 -5 0
-10 -4 -10 -10z" class="svg-elem-1"></path>
    <path d="M655 3690 c-3 -5 1 -10 9 -10 9 0 16 5 16 10 0 6 -4 10 -9 10 -6 0
-13 -4 -16 -10z" class="svg-elem-2"></path>
    <path d="M2690 3644 c0 -8 5 -12 10 -9 6 4 8 11 5 16 -9 14 -15 11 -15 -7z" class="svg-elem-3"></path>
    <path d="M3118 3593 c7 -3 16 -2 19 1 4 3 -2 6 -13 5 -11 0 -14 -3 -6 -6z" class="svg-elem-4"></path>
    <path d="M606 3581 c-4 -7 -5 -15 -2 -18 9 -9 19 4 14 18 -4 11 -6 11 -12 0z" class="svg-elem-5"></path>
    <path d="M3430 3540 c0 -5 5 -10 10 -10 6 0 10 5 10 10 0 6 -4 10 -10 10 -5 0
-10 -4 -10 -10z" class="svg-elem-6"></path>
    <path d="M1176 3477 c3 -10 9 -15 12 -12 3 3 0 11 -7 18 -10 9 -11 8 -5 -6z" class="svg-elem-7"></path>
    <path d="M3530 3480 c0 -5 5 -10 10 -10 6 0 10 5 10 10 0 6 -4 10 -10 10 -5 0
-10 -4 -10 -10z" class="svg-elem-8"></path>
    <path d="M2736 3452 c-3 -6 -1 -14 5 -17 15 -10 25 3 12 16 -7 7 -13 7 -17 1z" class="svg-elem-9"></path>
    <path d="M1972 3443 c-6 -2 -10 -9 -7 -13 7 -11 35 -2 35 11 0 10 -8 10 -28 2z" class="svg-elem-10"></path>
    <path d="M2920 3439 c0 -5 5 -7 10 -4 6 3 10 8 10 11 0 2 -4 4 -10 4 -5 0 -10
-5 -10 -11z" class="svg-elem-11"></path>
    <path d="M1150 3426 c0 -2 7 -6 15 -10 8 -3 15 -1 15 4 0 6 -7 10 -15 10 -8 0
-15 -2 -15 -4z" class="svg-elem-12"></path>
    <path d="M2525 3420 c-3 -6 1 -7 9 -4 18 7 21 14 7 14 -6 0 -13 -4 -16 -10z" class="svg-elem-13"></path>
    <path d="M2565 3410 c-3 -5 1 -10 9 -10 9 0 16 5 16 10 0 6 -4 10 -9 10 -6 0
-13 -4 -16 -10z" class="svg-elem-14"></path>
    <path d="M2276 3381 c-4 -5 -2 -12 3 -15 5 -4 12 -2 15 3 4 5 2 12 -3 15 -5 4
-12 2 -15 -3z" class="svg-elem-15"></path>
    <path d="M3060 3375 c-10 -11 -10 -19 -2 -27 15 -15 44 -2 40 19 -4 23 -22 27
-38 8z" class="svg-elem-16"></path>
    <path d="M1450 3365 c0 -8 5 -15 10 -15 6 0 10 7 10 15 0 8 -4 15 -10 15 -5 0
-10 -7 -10 -15z" class="svg-elem-17"></path>
    <path d="M2764 3346 c-6 -28 -54 -99 -54 -80 0 5 -7 -2 -16 -14 -8 -12 -23
-22 -32 -22 -10 0 -13 -3 -7 -8 21 -15 16 -42 -10 -52 -28 -11 -35 -35 -7 -26
13 4 18 0 19 -15 3 -32 -25 -69 -45 -62 -14 6 -15 4 -5 -8 9 -11 8 -18 -2 -32
-10 -14 -18 -16 -39 -7 -15 5 -32 10 -37 10 -14 0 -1 -62 16 -76 11 -8 9 -15
-11 -37 -14 -15 -22 -27 -19 -27 12 0 -54 -86 -99 -130 -25 -24 -46 -50 -46
-56 0 -7 -13 -22 -30 -34 -26 -18 -30 -19 -30 -5 0 11 -7 15 -22 13 -13 -2
-23 -10 -23 -18 0 -9 7 -14 19 -12 16 3 12 -6 -18 -40 -78 -88 -104 -108 -135
-102 -21 5 -30 2 -35 -12 -4 -10 -1 -21 5 -25 8 -5 5 -11 -10 -18 -18 -10 -26
-8 -48 8 -14 12 -33 21 -42 21 -19 0 -90 41 -91 53 0 4 0 11 0 15 0 4 -10 8
-22 9 -11 1 -25 8 -30 15 -6 8 -7 4 -3 -12 l6 -25 -23 25 c-13 14 -44 35 -68
47 -25 12 -37 22 -27 22 23 1 23 41 -1 41 -9 0 -32 -4 -50 -10 -29 -8 -32 -7
-22 5 10 12 10 15 0 15 -8 0 -11 3 -8 6 4 3 15 1 25 -4 15 -8 22 -6 32 10 17
27 3 38 -16 13 -15 -20 -15 -20 -8 2 10 34 -4 48 -24 26 -9 -11 -21 -28 -27
-38 -13 -22 -39 -34 -32 -14 7 20 -20 45 -34 31 -17 -17 -35 -3 -30 24 5 27
-22 35 -31 9 -11 -27 -107 19 -107 52 0 17 -27 17 -33 1 -3 -7 -5 7 -5 31 0
33 6 50 22 64 11 10 15 16 9 12 -7 -3 -13 -1 -13 4 0 6 5 11 12 11 6 0 9 2 6
5 -3 3 -18 1 -33 -5 -35 -13 -53 1 -31 23 20 20 20 31 1 47 -13 11 -18 10 -31
-8 -16 -24 -39 -30 -31 -9 3 7 -2 21 -9 32 -13 17 -18 18 -47 6 -62 -25 -67
-25 -67 -2 0 21 12 26 56 22 33 -2 50 25 37 59 -9 23 -8 30 3 34 9 3 14 -2 14
-14 0 -22 16 -27 23 -7 3 6 6 2 6 -10 1 -16 7 -23 20 -23 28 0 35 16 13 32
-10 7 -21 21 -25 32 -4 11 -13 16 -22 12 -10 -3 -15 1 -15 13 0 23 -23 34 -39
18 -15 -15 -14 -60 1 -75 9 -9 8 -12 -5 -12 -10 0 -17 -8 -17 -19 0 -23 -23
-34 -39 -18 -8 8 -11 8 -11 -1 0 -6 -8 -11 -17 -10 -49 4 -65 -2 -60 -21 4
-15 0 -19 -17 -19 -11 1 -26 5 -33 10 -13 10 -27 -7 -18 -22 3 -5 2 -10 -4
-10 -20 0 -22 21 -6 46 12 18 23 24 36 21 15 -4 19 -1 17 10 -2 9 -13 17 -25
18 -12 1 -20 -2 -18 -6 3 -4 -2 -10 -11 -13 -22 -9 -23 -8 -19 13 3 14 -1 18
-11 14 -17 -6 -17 -8 -3 -32 12 -17 4 -79 -8 -68 -3 4 -18 0 -34 -8 -36 -19
-59 -19 -59 0 0 12 -3 13 -19 3 -11 -7 -18 -15 -15 -19 2 -4 1 -21 -2 -39 -5
-22 -11 -29 -22 -25 -12 4 -12 2 -3 -8 6 -8 11 -45 10 -83 -2 -106 26 -144
104 -144 18 0 39 -6 46 -12 10 -11 15 -10 25 5 7 9 23 17 35 17 26 0 63 -56
58 -87 -3 -18 0 -23 19 -23 12 0 26 -6 31 -12 12 -20 14 -48 3 -48 -6 0 -9
-15 -7 -35 4 -29 1 -35 -15 -35 -10 0 -21 7 -24 15 -7 17 -34 21 -34 5 0 -6 7
-13 16 -17 10 -3 14 -13 11 -25 -4 -15 2 -22 24 -30 24 -8 27 -13 19 -29 -9
-16 -7 -19 8 -19 11 0 25 7 32 15 10 12 10 15 -2 15 -10 0 -14 11 -14 34 1 31
4 35 49 49 l48 16 10 -26 c5 -15 7 -34 3 -42 -6 -13 -8 -12 -11 7 -5 24 -11
26 -32 13 -20 -13 -24 -76 -7 -91 18 -14 36 -5 36 17 0 9 3 13 6 10 4 -3 15
-2 24 3 23 12 35 60 18 71 -10 6 -10 11 -1 20 13 13 56 2 47 -13 -4 -6 1 -8
14 -4 15 5 21 1 25 -15 5 -17 9 -20 19 -11 10 7 18 7 32 -4 11 -8 16 -15 10
-15 -5 -1 -13 -2 -19 -4 -5 -1 -20 -3 -32 -3 -13 -1 -26 -13 -35 -32 -7 -16
-19 -30 -25 -30 -18 0 -16 -27 2 -34 21 -8 19 -26 -2 -27 -11 0 -13 -3 -5 -6
6 -2 12 -10 12 -16 0 -7 8 -21 17 -32 14 -18 15 -18 9 -1 -3 10 -1 25 5 32 6
8 9 20 6 28 -8 20 13 36 46 36 26 0 29 2 23 26 -6 22 -4 25 9 20 9 -3 25 0 36
7 28 17 73 -9 77 -46 4 -33 22 -43 52 -27 16 9 25 9 36 0 19 -16 7 -32 -18
-24 -15 4 -19 2 -16 -7 3 -10 20 -13 54 -12 38 2 55 -3 77 -21 25 -20 28 -27
22 -59 -4 -22 -20 -47 -42 -67 -35 -32 -60 -35 -28 -4 26 26 67 94 63 105 -2
6 -21 -5 -43 -24 -22 -19 -54 -37 -72 -41 -40 -9 -49 -31 -20 -51 14 -10 16
-15 7 -15 -20 1 -50 24 -50 39 0 14 -17 15 -25 1 -10 -16 -25 -12 -19 5 4 9 0
15 -9 15 -8 0 -18 7 -21 16 -3 8 -11 12 -17 9 -7 -5 -3 -14 11 -27 20 -19 20
-21 5 -38 -20 -22 -13 -67 14 -99 19 -22 41 -28 41 -12 0 11 29 23 41 16 5 -3
-1 -21 -14 -40 -22 -35 -37 -44 -37 -24 0 6 -13 1 -29 -10 -34 -25 -41 -26
-41 -7 0 8 -6 16 -14 19 -15 6 -26 -12 -26 -44 0 -16 3 -18 19 -10 14 8 20 7
24 -3 3 -8 -2 -16 -14 -19 -13 -3 -17 -11 -13 -21 4 -12 2 -15 -9 -10 -9 3
-18 12 -21 20 -7 19 -55 18 -62 -1 -4 -8 -1 -22 5 -29 8 -10 9 -16 1 -21 -5
-3 -10 -18 -10 -32 0 -16 -7 -27 -20 -30 -11 -3 -20 -9 -20 -14 0 -15 -27 -10
-33 5 -7 18 3 56 14 56 5 0 9 5 9 11 0 5 -5 7 -12 3 -18 -11 -78 -16 -78 -6 0
4 5 13 10 18 7 7 -4 10 -32 9 -26 -1 -51 5 -62 15 -18 14 -18 14 -7 -8 8 -14
18 -21 27 -18 8 3 14 -1 14 -9 0 -8 11 -25 25 -37 30 -26 31 -38 5 -70 -10
-14 -16 -29 -12 -33 4 -3 -16 -6 -44 -4 -45 2 -58 -2 -108 -35 -31 -20 -56
-43 -56 -50 0 -8 -9 -16 -20 -19 -18 -5 -18 -8 10 -82 34 -87 36 -97 15 -89
-8 4 -15 1 -15 -5 0 -6 5 -11 10 -11 6 0 10 -16 8 -37 -2 -29 1 -38 15 -41 12
-2 20 4 24 18 5 20 6 20 25 3 21 -18 78 -27 78 -11 0 5 9 6 20 3 15 -5 20 -2
20 11 0 23 51 69 73 66 9 -2 17 2 17 8 0 15 61 5 104 -16 32 -16 36 -14 40 12
3 23 26 31 26 10 0 -9 -4 -16 -10 -16 -5 0 -10 -11 -10 -25 0 -15 -5 -24 -12
-23 -8 2 -14 -9 -16 -24 -2 -16 1 -28 7 -28 5 0 16 -3 24 -6 11 -4 14 2 11 25
-4 31 8 38 54 32 7 -1 16 8 20 20 8 21 9 21 17 3 17 -41 11 -52 -28 -45 -5 1
-5 -3 -2 -9 4 -6 1 -11 -6 -9 -27 3 -39 -1 -39 -15 0 -20 59 -15 75 7 7 9 17
17 24 17 6 0 11 5 11 10 0 6 7 10 15 10 9 0 12 -6 8 -17 -6 -14 -3 -14 20 3
14 10 27 27 27 37 0 10 5 15 10 12 14 -9 13 -42 -2 -47 -7 -3 -8 -9 -3 -19 25
-38 33 -126 40 -432 6 -253 10 -299 23 -304 32 -13 47 11 47 78 0 98 -13 339
-26 483 -10 122 -10 131 8 143 15 12 16 15 3 23 -9 6 -17 5 -21 -1 -10 -16
-19 76 -13 128 4 36 3 44 -5 33 -6 -8 -11 -10 -11 -5 1 6 6 17 13 25 11 14 19
16 44 11 3 0 -2 -11 -13 -23 l-19 -22 27 17 c16 10 29 13 33 7 9 -14 -3 -30
-23 -30 -15 0 -15 -2 -2 -10 21 -14 46 18 54 72 7 39 9 41 21 25 8 -12 15 -14
20 -8 3 6 1 11 -4 11 -6 0 -11 7 -11 15 0 8 -6 12 -14 9 -8 -3 -16 3 -19 15
-5 22 25 61 48 61 23 0 18 20 -7 29 -16 6 -25 4 -31 -5 -13 -22 -25 -16 -20
10 5 22 53 76 69 76 3 0 4 -17 2 -37 -3 -43 14 -54 47 -29 12 9 15 15 7 16 -7
0 -10 4 -7 10 3 5 -3 15 -15 22 -23 15 -28 43 -5 34 8 -3 14 -2 14 2 -3 22 17
55 42 67 25 14 29 13 38 -2 14 -26 23 -10 11 21 -10 27 1 66 19 66 4 0 21 13
37 29 15 16 34 26 41 24 8 -3 13 2 13 13 0 15 5 12 20 -11 13 -21 16 -33 9
-42 -6 -7 -7 -22 -3 -35 4 -13 7 -26 6 -30 -1 -5 2 -8 7 -8 16 0 24 42 11 50
-8 5 -10 15 -6 26 5 14 9 15 15 6 6 -10 16 -3 36 22 32 40 55 47 52 16 -1 -11
-6 -20 -12 -20 -22 0 -46 -25 -40 -42 11 -29 35 -30 47 -2 12 25 12 25 20 4 5
-13 15 -20 25 -18 26 5 27 27 1 37 -19 8 -20 10 -4 10 31 1 57 -28 45 -50 -7
-13 -6 -19 1 -19 7 0 9 -8 5 -20 -4 -12 -1 -28 6 -36 9 -11 10 -43 5 -122 -10
-149 -9 -200 5 -332 14 -124 21 -678 10 -732 -4 -18 -1 -58 6 -88 7 -30 13
-73 13 -95 0 -22 1 -51 1 -65 2 -47 1 -135 -2 -182 -3 -48 12 -78 38 -78 9 0
13 -6 10 -13 -5 -14 9 -45 16 -37 12 13 17 50 8 50 -6 0 -7 8 -2 22 4 12 3 42
-2 67 -5 25 -9 59 -9 75 1 16 -3 35 -9 43 -6 7 -8 24 -5 38 4 14 2 35 -5 46
-8 17 -7 23 7 34 17 12 17 15 1 51 -14 31 -15 46 -8 73 6 20 7 40 1 51 -11 21
-13 65 -11 380 0 140 -2 288 -6 329 -4 55 -3 75 7 81 8 5 12 22 10 42 -1 18
-3 50 -2 70 0 21 -4 36 -8 33 -9 -6 -12 95 -4 138 5 22 10 27 25 22 11 -4 19
-2 19 4 0 6 -7 11 -15 11 -8 0 -17 14 -20 34 -6 27 -2 39 14 55 26 26 35 27
28 0 -4 -16 2 -24 31 -37 20 -9 39 -18 41 -19 7 -4 30 -177 31 -225 0 -28 -5
-48 -12 -51 -8 -4 -7 -6 4 -6 13 -1 15 -9 12 -38 -32 -298 -33 -318 -15 -336
24 -24 46 6 51 69 3 32 9 65 13 72 5 7 3 12 -4 12 -12 0 -5 133 11 206 6 27 5
41 -3 46 -7 4 -13 39 -14 89 -1 46 -4 93 -7 105 -6 22 -4 22 23 13 16 -6 32
-17 35 -25 7 -18 65 -18 90 1 23 18 56 0 56 -31 0 -23 26 -50 83 -83 40 -25
48 -41 18 -41 -14 0 -18 -5 -14 -20 5 -17 7 -17 20 -5 18 19 19 19 54 -2 17
-10 29 -26 29 -38 0 -14 3 -16 9 -7 6 10 10 10 20 -2 7 -8 10 -20 6 -26 -3 -5
1 -10 9 -10 9 0 18 -11 22 -25 7 -28 14 -31 32 -13 17 17 15 39 -3 32 -9 -4
-18 1 -22 12 -3 11 -11 22 -17 26 -16 11 7 30 27 22 9 -3 17 -13 17 -21 0 -9
6 -13 15 -9 9 3 15 0 15 -9 0 -8 6 -14 13 -13 7 2 11 -6 9 -19 -3 -22 16 -32
31 -16 12 11 85 14 92 3 9 -15 44 -12 61 4 8 8 23 13 34 11 11 -2 18 0 15 5
-3 5 3 11 13 14 31 10 62 51 69 89 5 35 5 36 -50 63 -46 23 -54 30 -45 42 9
10 8 16 -2 22 -8 5 -18 6 -22 4 -4 -3 -5 2 -2 10 3 9 1 16 -6 16 -6 0 -8 5 -5
10 3 6 1 10 -5 10 -6 0 -9 4 -6 9 3 5 19 7 36 5 22 -3 30 1 30 12 0 14 2 14
16 0 19 -19 34 -12 34 16 0 15 -5 19 -20 15 -19 -5 -34 7 -35 28 0 23 -23 47
-41 43 -13 -2 -20 -13 -22 -36 -3 -30 -1 -33 17 -27 18 5 21 2 21 -19 0 -18
-4 -24 -15 -20 -8 4 -15 10 -15 14 0 5 -9 6 -20 3 -11 -3 -20 0 -20 6 0 6 -4
11 -10 11 -5 0 -9 -11 -8 -25 1 -14 8 -25 16 -25 10 0 10 -5 2 -20 -12 -23
-42 -28 -34 -6 3 8 1 24 -6 35 -8 16 -8 21 1 21 7 0 10 2 7 5 -9 9 -38 -7 -38
-21 0 -17 -16 -18 -26 -2 -4 7 -3 8 4 4 8 -5 12 0 12 13 0 12 6 20 13 19 6 -2
11 2 10 8 -1 7 8 9 24 6 18 -3 24 -1 19 7 -4 6 -19 11 -34 11 -25 1 -25 2 -9
14 19 14 23 36 7 36 -5 0 -10 -7 -10 -15 0 -17 -16 -20 -25 -5 -3 6 -15 10
-27 10 -17 0 -19 5 -14 28 3 15 3 22 0 16 -9 -20 -43 -3 -56 27 -9 20 -19 28
-35 27 -27 -3 -30 -13 -7 -26 21 -12 14 -54 -8 -58 -21 -3 -24 12 -5 19 8 4 9
8 1 14 -6 4 -13 16 -17 26 -4 10 -11 16 -16 13 -4 -3 -16 3 -26 14 -22 24 -35
26 -35 5 0 -18 46 -39 62 -29 7 5 8 2 2 -7 -5 -8 -9 -18 -9 -24 0 -28 -63 0
-72 32 -4 20 -10 23 -29 19 -18 -5 -24 -2 -24 10 0 11 -5 14 -16 10 -24 -9
-85 40 -78 62 5 13 4 14 -4 3 -8 -11 -11 -11 -18 0 -14 22 -13 37 2 50 8 6 14
22 14 35 0 15 6 24 15 24 20 0 19 19 -1 27 -9 3 -20 0 -25 -8 -6 -10 -9 -10
-9 -1 0 6 -4 12 -10 12 -5 0 -10 -9 -10 -20 0 -27 -16 -25 -50 7 -27 25 -27
28 -13 50 8 12 19 20 25 17 5 -3 4 -11 -3 -20 -16 -20 12 -29 50 -16 17 6 31
7 33 2 2 -6 9 -5 18 0 13 8 12 10 -2 10 -11 0 -18 8 -18 19 0 12 -8 21 -22 23
-23 3 -35 38 -12 38 8 0 14 4 14 8 0 4 -16 8 -35 8 -19 0 -35 -4 -35 -9 0 -4
5 -5 10 -2 6 3 10 1 10 -5 0 -6 -11 -15 -25 -22 -13 -6 -22 -14 -20 -18 3 -4
-4 -10 -15 -13 -14 -4 -20 0 -20 12 0 10 3 21 7 25 14 14 13 49 -3 61 -10 7
-14 17 -10 24 5 7 2 10 -6 9 -8 -2 -14 9 -16 27 -2 17 0 26 5 22 4 -5 8 -12 8
-16 0 -4 8 -15 17 -25 10 -9 21 -24 26 -32 5 -9 27 -15 65 -17 40 -1 58 -6 61
-17 2 -8 4 -1 5 17 0 17 6 35 11 38 6 3 10 10 10 16 0 13 -44 11 -59 -3 -10
-11 -17 -7 -37 17 -19 24 -26 27 -33 16 -7 -11 -13 -10 -31 7 -21 19 -60 20
-60 1 0 -5 -7 -9 -15 -9 -8 0 -14 -6 -12 -12 1 -7 -5 -13 -13 -13 -8 0 -18 -4
-21 -8 -3 -5 -9 -1 -12 8 -4 9 -1 18 8 21 10 4 12 12 5 29 -7 17 -5 25 6 29
12 5 19 -11 15 -36 -3 -20 27 -5 38 19 11 24 10 29 -9 45 -22 18 -22 18 -2 18
11 0 23 6 26 13 5 10 7 10 12 0 10 -21 44 -16 44 7 0 18 -10 25 -32 21 -21 -3
-2 34 52 100 53 65 66 91 58 117 -2 4 -8 6 -15 6 -21 -3 -23 25 -2 31 10 4 16
11 13 17 -4 6 1 8 13 4 15 -5 28 3 51 29 19 21 37 32 46 29 8 -3 19 3 25 15 9
16 8 22 -6 30 -16 8 -15 11 11 21 34 12 45 2 46 -40 0 -14 3 -35 6 -47 5 -17
2 -23 -10 -23 -13 0 -14 -4 -5 -17 8 -13 6 -39 -6 -98 -19 -95 -18 -81 -10
-180 9 -117 12 -125 39 -125 39 0 50 23 37 74 -6 25 -11 74 -11 110 0 59 2 66
20 66 11 0 20 5 20 10 0 6 -9 10 -21 10 -18 0 -20 4 -14 28 4 15 9 60 11 100
2 40 6 77 10 83 3 6 -1 18 -9 27 -20 24 -28 50 -16 58 6 3 4 10 -6 18 -11 7
-16 28 -17 61 -1 74 1 87 12 80 6 -4 13 7 16 23 5 23 10 28 25 25 27 -7 25 23
-3 38 -19 10 -19 13 -5 20 9 5 14 16 11 24 -4 8 -11 12 -16 9 -6 -4 -5 3 2 15
6 12 15 19 20 16 6 -3 7 1 4 10 -5 11 -10 13 -19 5 -15 -12 -31 3 -21 19 3 5
-4 11 -15 14 -11 3 -23 14 -25 24 -7 25 -35 42 -95 57 l-48 13 -7 -31z m-41
-143 c-7 -2 -19 -2 -25 0 -7 3 -2 5 12 5 14 0 19 -2 13 -5z m-1481 -215 c-7
-7 -12 -8 -12 -2 0 14 12 26 19 19 2 -3 -1 -11 -7 -17z m-122 -10 c0 -16 -3
-19 -11 -11 -6 6 -8 16 -5 22 11 17 16 13 16 -11z m35 -8 c3 -5 -1 -10 -10
-10 -9 0 -13 5 -10 10 3 6 8 10 10 10 2 0 7 -4 10 -10z m93 -7 c-4 -16 16 -58
32 -70 20 -14 36 -58 17 -46 -7 4 -20 8 -29 8 -22 2 -68 44 -68 62 0 17 17 17
23 1 4 -10 7 -10 18 0 9 9 10 12 1 12 -7 0 -12 9 -12 20 0 11 5 20 10 20 6 0
9 -3 8 -7z m108 -100 c-10 -10 -19 5 -10 18 6 11 8 11 12 0 2 -7 1 -15 -2 -18z
m1 -40 c-8 -7 -37 9 -31 19 3 5 12 4 20 -3 8 -6 13 -14 11 -16z m1099 -460
c18 -24 18 -26 -10 -58 -14 -16 -22 -33 -19 -38 3 -6 1 -7 -5 -3 -18 11 -14
34 8 53 21 18 27 43 10 43 -5 0 -10 5 -10 10 0 15 11 12 26 -7z m30 -108 c8
-20 24 -19 24 2 0 14 2 15 13 4 9 -10 9 -15 0 -18 -21 -8 -3 -31 20 -26 16 3
18 2 9 -5 -8 -5 -13 -13 -12 -18 3 -20 -9 -46 -19 -39 -6 3 -11 11 -11 16 0 6
5 7 11 3 16 -9 -10 37 -32 58 -17 17 -19 17 -29 0 -11 -16 -11 -16 -6 1 3 9 1
17 -5 17 -6 0 -7 5 -4 10 9 15 35 12 41 -5z m-75 -8 c-1 -12 -15 -9 -19 4 -3
6 1 10 8 8 6 -3 11 -8 11 -12z m-31 -7 c0 -5 -7 -10 -15 -10 -8 0 -15 5 -15
10 0 6 7 10 15 10 8 0 15 -4 15 -10z m240 -4 c0 -8 -7 -17 -16 -20 -28 -11
-34 -6 -17 14 20 23 33 26 33 6z m-60 -111 c-7 -9 -15 -13 -19 -10 -3 3 1 10
9 15 21 14 24 12 10 -5z m-864 -103 c-4 -3 -11 0 -16 8 -15 24 -11 33 6 15 9
-9 13 -19 10 -23z m1034 -19 c0 -14 -46 -18 -53 -5 -3 4 1 13 8 19 11 10 15 9
18 -5 3 -11 5 -9 6 8 1 20 3 22 11 10 5 -8 10 -21 10 -27z m390 -263 c0 -5 -7
-10 -16 -10 -8 0 -12 5 -9 10 3 6 10 10 16 10 5 0 9 -4 9 -10z m-1529 -284
c-6 -7 -9 -20 -6 -28 9 -22 -13 -71 -27 -62 -7 4 -5 -2 5 -14 11 -11 16 -26
12 -32 -5 -8 -12 -5 -22 9 -8 12 -20 21 -27 21 -8 0 -20 8 -27 17 -12 15 -12
16 8 11 12 -3 31 1 42 9 24 16 29 45 6 37 -23 -9 -18 13 7 30 28 20 44 21 29
2z m49 4 c0 -5 -2 -10 -4 -10 -3 0 -8 5 -11 10 -3 6 -1 10 4 10 6 0 11 -4 11
-10z m10 -115 c0 -4 -7 -2 -15 5 -12 10 -15 10 -15 -4 0 -9 -7 -16 -15 -16
-15 0 -22 50 -9 62 6 7 54 -35 54 -47z" class="svg-elem-18"></path>
    <path d="M1241 2887 c2 -2 12 -9 22 -16 14 -11 17 -11 17 1 0 7 -10 14 -21 15
-12 1 -20 1 -18 0z" class="svg-elem-19"></path>
    <path d="M2880 3366 c0 -2 7 -7 16 -10 8 -3 12 -2 9 4 -6 10 -25 14 -25 6z" class="svg-elem-20"></path>
    <path d="M3147 3356 c-6 -16 2 -28 14 -20 12 7 11 34 0 34 -5 0 -11 -6 -14
-14z" class="svg-elem-21"></path>
    <path d="M1706 3334 c-9 -22 -8 -24 9 -18 8 4 15 12 15 20 0 19 -16 18 -24 -2z" class="svg-elem-22"></path>
    <path d="M2735 3340 c-3 -5 -1 -10 4 -10 6 0 11 5 11 10 0 6 -2 10 -4 10 -3 0
-8 -4 -11 -10z" class="svg-elem-23"></path>
    <path d="M1083 3320 c-2 -24 12 -27 21 -4 8 22 8 24 -7 24 -7 0 -13 -9 -14
-20z" class="svg-elem-24"></path>
    <path d="M3012 3328 c6 -18 28 -21 28 -4 0 9 -7 16 -16 16 -9 0 -14 -5 -12
-12z" class="svg-elem-25"></path>
    <path d="M835 3320 c-3 -5 -1 -10 4 -10 6 0 11 5 11 10 0 6 -2 10 -4 10 -3 0
-8 -4 -11 -10z" class="svg-elem-26"></path>
    <path d="M2973 3310 c-11 -16 -10 -18 2 -14 8 4 15 12 15 20 0 19 -3 18 -17
-6z" class="svg-elem-27"></path>
    <path d="M2595 3300 c4 -6 11 -8 16 -5 14 9 11 15 -7 15 -8 0 -12 -5 -9 -10z" class="svg-elem-28"></path>
    <path d="M2680 3301 c0 -5 5 -13 10 -16 6 -3 10 -2 10 4 0 5 -4 13 -10 16 -5
3 -10 2 -10 -4z" class="svg-elem-29"></path>
    <path d="M1165 3273 c22 -38 35 -42 35 -11 0 12 -3 18 -7 15 -3 -4 -15 1 -26
10 -20 18 -20 18 -2 -14z" class="svg-elem-30"></path>
    <path d="M2545 3271 c-3 -5 -1 -12 5 -16 5 -3 10 1 10 9 0 18 -6 21 -15 7z" class="svg-elem-31"></path>
    <path d="M2610 3265 c0 -17 2 -18 24 -9 23 9 20 24 -4 24 -11 0 -20 -7 -20
-15z" class="svg-elem-32"></path>
    <path d="M2662 3268 c5 -15 28 -23 28 -10 0 5 -7 13 -16 16 -10 4 -14 1 -12
-6z" class="svg-elem-33"></path>
    <path d="M2395 3260 c-3 -5 -1 -10 4 -10 6 0 11 5 11 10 0 6 -2 10 -4 10 -3 0
-8 -4 -11 -10z" class="svg-elem-34"></path>
    <path d="M2515 3260 c-3 -5 -1 -10 4 -10 6 0 11 5 11 10 0 6 -2 10 -4 10 -3 0
-8 -4 -11 -10z" class="svg-elem-35"></path>
    <path d="M1390 3250 c0 -5 5 -10 10 -10 6 0 10 5 10 10 0 6 -4 10 -10 10 -5 0
-10 -4 -10 -10z" class="svg-elem-36"></path>
    <path d="M1240 3237 c0 -18 21 -37 42 -37 15 0 14 3 -6 25 -26 28 -36 31 -36
12z" class="svg-elem-37"></path>
    <path d="M3020 3235 c-17 -21 -5 -31 17 -14 14 12 16 12 11 -1 -9 -21 -16 -46
-11 -37 8 13 23 7 23 -9 0 -9 6 -14 13 -11 6 2 12 9 12 15 0 5 3 14 8 18 13
13 7 24 -14 24 -11 0 -18 4 -15 9 3 5 -1 12 -10 15 -21 8 -20 8 -34 -9z" class="svg-elem-38"></path>
    <path d="M3115 3230 c3 -5 8 -10 11 -10 2 0 4 5 4 10 0 6 -5 10 -11 10 -5 0
-7 -4 -4 -10z" class="svg-elem-39"></path>
    <path d="M562 3210 c0 -14 2 -19 5 -12 2 6 2 18 0 25 -3 6 -5 1 -5 -13z" class="svg-elem-40"></path>
    <path d="M1087 3216 c-9 -24 -9 -64 1 -69 4 -2 17 7 29 20 14 14 17 23 9 23
-7 0 -17 10 -23 22 -8 20 -10 20 -16 4z" class="svg-elem-41"></path>
    <path d="M1140 3220 c0 -5 10 -10 23 -10 18 0 19 2 7 10 -19 13 -30 13 -30 0z" class="svg-elem-42"></path>
    <path d="M1467 3213 c-4 -3 -7 -15 -7 -25 0 -22 28 -24 36 -3 4 8 10 12 15 9
5 -3 6 2 3 10 -6 16 -35 22 -47 9z" class="svg-elem-43"></path>
    <path d="M1000 3184 c0 -14 -4 -23 -10 -19 -5 3 -10 1 -10 -4 0 -6 -10 -11
-22 -12 -15 0 -18 -3 -8 -6 8 -4 22 -15 31 -26 9 -12 21 -17 28 -13 16 10 -6
39 -23 29 -8 -4 -8 -3 0 6 9 10 17 10 34 1 12 -6 24 -9 28 -6 3 3 0 6 -6 6 -6
0 -9 6 -6 14 3 9 12 12 21 9 11 -4 14 -2 11 8 -3 8 -11 14 -19 14 -8 0 -18 6
-22 13 -13 20 -27 14 -27 -14z" class="svg-elem-44"></path>
    <path d="M1197 3204 c-8 -8 1 -24 14 -24 5 0 9 7 9 15 0 15 -12 20 -23 9z" class="svg-elem-45"></path>
    <path d="M1775 3201 c-2 -5 4 -11 15 -14 11 -3 20 -2 20 3 0 12 -28 21 -35 11z" class="svg-elem-46"></path>
    <path d="M812 3178 c4 -29 36 -48 48 -28 11 17 -2 36 -31 43 -16 4 -20 1 -17
-15z" class="svg-elem-47"></path>
    <path d="M1165 3160 c3 -5 8 -10 11 -10 2 0 4 5 4 10 0 6 -5 10 -11 10 -5 0
-7 -4 -4 -10z" class="svg-elem-48"></path>
    <path d="M1195 3160 c3 -5 8 -10 11 -10 2 0 4 5 4 10 0 6 -5 10 -11 10 -5 0
-7 -4 -4 -10z" class="svg-elem-49"></path>
    <path d="M3000 3160 c0 -5 5 -10 10 -10 6 0 10 5 10 10 0 6 -4 10 -10 10 -5 0
-10 -4 -10 -10z" class="svg-elem-50"></path>
    <path d="M1111 3144 c0 -11 3 -14 6 -6 3 7 2 16 -1 19 -3 4 -6 -2 -5 -13z" class="svg-elem-51"></path>
    <path d="M3046 3135 c-18 -13 -18 -15 -1 -32 17 -17 19 -16 33 5 8 12 22 22
31 22 14 0 14 2 1 10 -21 13 -42 12 -64 -5z" class="svg-elem-52"></path>
    <path d="M867 3121 c-6 -23 9 -39 24 -24 5 5 4 16 -4 28 -13 17 -14 17 -20 -4z" class="svg-elem-53"></path>
    <path d="M3186 3133 c5 -5 12 -12 16 -18 4 -6 8 -2 8 8 0 9 -7 17 -17 17 -9 0
-12 -3 -7 -7z" class="svg-elem-54"></path>
    <path d="M1136 3115 c4 -8 8 -15 10 -15 2 0 4 7 4 15 0 8 -4 15 -10 15 -5 0
-7 -7 -4 -15z" class="svg-elem-55"></path>
    <path d="M1170 3120 c0 -5 5 -10 10 -10 6 0 10 5 10 10 0 6 -4 10 -10 10 -5 0
-10 -4 -10 -10z" class="svg-elem-56"></path>
    <path d="M1515 3120 c-3 -5 -1 -10 4 -10 6 0 11 5 11 10 0 6 -2 10 -4 10 -3 0
-8 -4 -11 -10z" class="svg-elem-57"></path>
    <path d="M2210 3115 c0 -8 7 -15 15 -15 8 0 15 7 15 15 0 8 -7 15 -15 15 -8 0
-15 -7 -15 -15z" class="svg-elem-58"></path>
    <path d="M2600 3109 c0 -11 5 -17 10 -14 6 3 10 13 10 21 0 8 -4 14 -10 14 -5
0 -10 -9 -10 -21z" class="svg-elem-59"></path>
    <path d="M1055 3110 c-4 -7 2 -14 14 -17 12 -3 21 -12 21 -20 0 -8 7 -13 18
-11 22 4 23 33 1 33 -9 0 -23 6 -32 13 -11 9 -17 10 -22 2z" class="svg-elem-60"></path>
    <path d="M2530 3111 c-29 -8 -39 -38 -15 -47 20 -8 34 5 40 34 2 12 3 22 2 21
-1 -1 -13 -4 -27 -8z" class="svg-elem-61"></path>
    <path d="M1173 3093 c-15 -5 -17 -23 -4 -23 5 0 11 7 15 15 3 8 4 15 3 14 -1
0 -8 -3 -14 -6z" class="svg-elem-62"></path>
    <path d="M1371 3084 c0 -11 3 -14 6 -6 3 7 2 16 -1 19 -3 4 -6 -2 -5 -13z" class="svg-elem-63"></path>
    <path d="M3097 3081 c-4 -17 -3 -21 5 -13 5 5 8 16 6 23 -3 8 -7 3 -11 -10z" class="svg-elem-64"></path>
    <path d="M1610 3080 c0 -5 5 -10 10 -10 6 0 10 5 10 10 0 6 -4 10 -10 10 -5 0
-10 -4 -10 -10z" class="svg-elem-65"></path>
    <path d="M1710 3079 c0 -5 5 -7 10 -4 6 3 10 8 10 11 0 2 -4 4 -10 4 -5 0 -10
-5 -10 -11z" class="svg-elem-66"></path>
    <path d="M2976 3081 c-3 -5 1 -11 9 -14 9 -4 12 -1 8 9 -6 16 -10 17 -17 5z" class="svg-elem-67"></path>
    <path d="M3271 3071 c-10 -6 -10 -10 -1 -16 13 -8 24 -1 19 14 -3 6 -10 7 -18
2z" class="svg-elem-68"></path>
    <path d="M880 3066 c0 -2 7 -6 15 -10 8 -3 15 -1 15 4 0 6 -7 10 -15 10 -8 0
-15 -2 -15 -4z" class="svg-elem-69"></path>
    <path d="M1670 3059 c0 -5 5 -7 10 -4 6 3 10 8 10 11 0 2 -4 4 -10 4 -5 0 -10
-5 -10 -11z" class="svg-elem-70"></path>
    <path d="M1994 3059 c-3 -6 -1 -16 5 -22 8 -8 16 -6 31 9 20 20 20 20 -4 22
-14 1 -28 -3 -32 -9z" class="svg-elem-71"></path>
    <path d="M1355 3040 c16 -53 25 -70 37 -71 7 0 4 -4 -7 -9 -18 -8 -17 -9 7 -9
15 -1 30 4 34 11 4 6 3 8 -3 5 -13 -8 -26 20 -17 35 3 5 -2 8 -12 6 -12 -2
-20 4 -22 17 -2 11 -9 25 -14 30 -7 7 -8 2 -3 -15z" class="svg-elem-72"></path>
    <path d="M2355 3050 c-4 -6 -3 -16 3 -22 6 -6 12 -6 17 2 4 6 3 16 -3 22 -6 6
-12 6 -17 -2z" class="svg-elem-73"></path>
    <path d="M3320 3050 c-9 -6 -10 -10 -3 -10 6 0 15 5 18 10 8 12 4 12 -15 0z" class="svg-elem-74"></path>
    <path d="M1540 3040 c0 -5 5 -10 10 -10 6 0 10 5 10 10 0 6 -4 10 -10 10 -5 0
-10 -4 -10 -10z" class="svg-elem-75"></path>
    <path d="M1820 3040 c20 -13 40 -13 40 0 0 6 -12 10 -27 10 -22 0 -25 -2 -13
-10z" class="svg-elem-76"></path>
    <path d="M3070 3041 c0 -17 18 -21 24 -6 3 9 0 15 -9 15 -8 0 -15 -4 -15 -9z" class="svg-elem-77"></path>
    <path d="M925 3030 c-19 -7 -19 -7 3 -19 22 -12 42 -8 42 9 0 12 -23 18 -45
10z" class="svg-elem-78"></path>
    <path d="M1405 3030 c-3 -5 -2 -10 4 -10 5 0 13 5 16 10 3 6 2 10 -4 10 -5 0
-13 -4 -16 -10z" class="svg-elem-79"></path>
    <path d="M2940 3027 c0 -23 21 -37 41 -26 10 5 30 7 44 3 19 -5 25 -2 25 9 0
12 -9 15 -35 12 -19 -2 -35 1 -35 6 0 5 -9 9 -20 9 -11 0 -20 -6 -20 -13z" class="svg-elem-80"></path>
    <path d="M3122 3028 c3 -7 -5 -17 -16 -23 -11 -6 -22 -19 -24 -29 -4 -16 -2
-17 21 -2 13 9 31 14 38 11 11 -4 15 3 17 25 2 25 -1 30 -19 30 -12 0 -19 -5
-17 -12z" class="svg-elem-81"></path>
    <path d="M2435 3020 c3 -5 14 -10 23 -10 15 0 15 2 2 10 -20 13 -33 13 -25 0z" class="svg-elem-82"></path>
    <path d="M1290 3010 c0 -5 5 -10 10 -10 6 0 10 5 10 10 0 6 -4 10 -10 10 -5 0
-10 -4 -10 -10z" class="svg-elem-83"></path>
    <path d="M1697 3013 c-11 -10 -8 -43 3 -43 12 0 31 35 23 44 -8 8 -18 8 -26
-1z" class="svg-elem-84"></path>
    <path d="M310 2999 c0 -5 5 -7 10 -4 6 3 10 8 10 11 0 2 -4 4 -10 4 -5 0 -10
-5 -10 -11z" class="svg-elem-85"></path>
    <path d="M740 2990 c0 -5 7 -10 16 -10 8 0 12 5 9 10 -3 6 -10 10 -16 10 -5 0
-9 -4 -9 -10z" class="svg-elem-86"></path>
    <path d="M1500 2979 c0 -11 5 -17 10 -14 6 3 10 13 10 21 0 8 -4 14 -10 14 -5
0 -10 -9 -10 -21z" class="svg-elem-87"></path>
    <path d="M2991 2973 c12 -15 12 -16 -3 -11 -19 8 -27 -8 -19 -40 6 -23 6 -23
24 7 12 21 24 29 37 26 24 -5 25 -1 4 19 -8 9 -25 16 -36 16 -18 0 -19 -2 -7
-17z" class="svg-elem-88"></path>
    <path d="M888 2973 c7 -3 16 -2 19 1 4 3 -2 6 -13 5 -11 0 -14 -3 -6 -6z" class="svg-elem-89"></path>
    <path d="M2250 2969 c0 -5 5 -7 10 -4 6 3 10 8 10 11 0 2 -4 4 -10 4 -5 0 -10
-5 -10 -11z" class="svg-elem-90"></path>
    <path d="M2155 2960 c4 -6 11 -8 16 -5 14 9 11 15 -7 15 -8 0 -12 -5 -9 -10z" class="svg-elem-91"></path>
    <path d="M1440 2933 c0 -24 4 -28 28 -28 25 0 27 3 24 28 -3 21 -10 27 -28 27
-20 0 -24 -5 -24 -27z" class="svg-elem-92"></path>
    <path d="M1782 2941 c4 -13 18 -16 19 -4 0 4 -5 9 -11 12 -7 2 -11 -2 -8 -8z" class="svg-elem-93"></path>
    <path d="M425 2930 c3 -5 10 -10 16 -10 5 0 9 5 9 10 0 6 -7 10 -16 10 -8 0
-12 -4 -9 -10z" class="svg-elem-94"></path>
    <path d="M1565 2930 c4 -6 11 -8 16 -5 14 9 11 15 -7 15 -8 0 -12 -5 -9 -10z" class="svg-elem-95"></path>
    <path d="M771 2904 c0 -11 3 -14 6 -6 3 7 2 16 -1 19 -3 4 -6 -2 -5 -13z" class="svg-elem-96"></path>
    <path d="M2156 2905 c-3 -8 -1 -15 4 -15 13 0 22 18 11 24 -5 3 -11 -1 -15 -9z" class="svg-elem-97"></path>
    <path d="M3125 2910 c3 -5 8 -10 11 -10 2 0 4 5 4 10 0 6 -5 10 -11 10 -5 0
-7 -4 -4 -10z" class="svg-elem-98"></path>
    <path d="M1686 2878 c4 -18 11 -37 16 -43 13 -15 41 7 49 39 7 25 6 27 -19 25
-15 -2 -33 0 -39 4 -10 6 -11 0 -7 -25z" class="svg-elem-99"></path>
    <path d="M607 2885 c-8 -18 11 -31 25 -17 11 11 3 32 -12 32 -4 0 -10 -7 -13
-15z" class="svg-elem-100"></path>
    <path d="M1463 2878 c-9 -11 -8 -16 8 -26 20 -13 22 -9 10 21 -6 16 -9 17 -18
5z" class="svg-elem-101"></path>
    <path d="M2296 2875 c-12 -32 -7 -46 17 -43 16 2 22 10 22 28 0 29 -29 40 -39
15z" class="svg-elem-102"></path>
    <path d="M1385 2860 c-3 -5 1 -10 9 -10 9 0 16 5 16 10 0 6 -4 10 -9 10 -6 0
-13 -4 -16 -10z" class="svg-elem-103"></path>
    <path d="M1790 2856 c0 -2 7 -7 16 -10 8 -3 12 -2 9 4 -6 10 -25 14 -25 6z" class="svg-elem-104"></path>
    <path d="M1895 2850 c3 -5 8 -10 11 -10 2 0 4 5 4 10 0 6 -5 10 -11 10 -5 0
-7 -4 -4 -10z" class="svg-elem-105"></path>
    <path d="M1425 2840 c-8 -14 3 -30 21 -30 8 0 14 9 14 20 0 21 -24 28 -35 10z" class="svg-elem-106"></path>
    <path d="M1530 2839 c0 -5 -5 -7 -10 -4 -14 8 -43 -22 -37 -38 4 -9 6 -9 6 1
1 8 6 10 13 6 17 -11 48 -12 48 -3 0 4 -4 10 -10 14 -5 3 -7 12 -3 20 3 8 2
15 -1 15 -3 0 -6 -5 -6 -11z" class="svg-elem-107"></path>
    <path d="M1950 2840 c0 -5 5 -10 10 -10 6 0 10 5 10 10 0 6 -4 10 -10 10 -5 0
-10 -4 -10 -10z" class="svg-elem-108"></path>
    <path d="M2165 2840 c3 -5 8 -10 11 -10 2 0 4 5 4 10 0 6 -5 10 -11 10 -5 0
-7 -4 -4 -10z" class="svg-elem-109"></path>
    <path d="M1627 2834 c-3 -3 -3 -12 0 -20 6 -17 39 -19 49 -3 11 18 -33 39 -49
23z" class="svg-elem-110"></path>
    <path d="M2025 2830 c3 -5 11 -10 16 -10 6 0 7 5 4 10 -3 6 -11 10 -16 10 -6
0 -7 -4 -4 -10z" class="svg-elem-111"></path>
    <path d="M2116 2824 c-11 -7 -17 -17 -13 -20 3 -4 14 1 23 10 21 22 15 28 -10
10z" class="svg-elem-112"></path>
    <path d="M1774 2815 c-8 -19 4 -35 21 -29 17 7 15 44 -2 44 -8 0 -16 -7 -19
-15z" class="svg-elem-113"></path>
    <path d="M2345 2820 c-3 -5 -1 -10 4 -10 6 0 11 5 11 10 0 6 -2 10 -4 10 -3 0
-8 -4 -11 -10z" class="svg-elem-114"></path>
    <path d="M795 2810 c-3 -5 -1 -10 4 -10 6 0 11 5 11 10 0 6 -2 10 -4 10 -3 0
-8 -4 -11 -10z" class="svg-elem-115"></path>
    <path d="M1580 2800 c0 -11 5 -20 10 -20 6 0 10 9 10 20 0 11 -4 20 -10 20 -5
0 -10 -9 -10 -20z" class="svg-elem-116"></path>
    <path d="M1930 2800 c0 -5 5 -10 10 -10 6 0 10 5 10 10 0 6 -4 10 -10 10 -5 0
-10 -4 -10 -10z" class="svg-elem-117"></path>
    <path d="M752 2775 c2 -21 4 -23 16 -11 8 8 11 19 8 25 -13 20 -26 12 -24 -14z" class="svg-elem-118"></path>
    <path d="M1456 2784 c-4 -9 -4 -19 -1 -22 2 -3 7 3 11 12 4 9 4 19 1 22 -2 3
-7 -3 -11 -12z" class="svg-elem-119"></path>
    <path d="M2030 2791 c0 -6 5 -13 10 -16 6 -4 8 -11 5 -16 -4 -5 1 -9 10 -9 14
0 14 2 -1 25 -17 27 -24 31 -24 16z" class="svg-elem-120"></path>
    <path d="M1784 2765 c-7 -17 4 -37 17 -30 12 8 12 45 -1 45 -6 0 -13 -7 -16
-15z" class="svg-elem-121"></path>
    <path d="M2273 2762 c-13 -2 -23 -8 -23 -13 0 -9 37 -3 49 7 8 7 -4 10 -26 6z" class="svg-elem-122"></path>
    <path d="M3110 2750 c0 -13 5 -20 13 -17 6 2 12 10 12 17 0 7 -6 15 -12 18 -8
2 -13 -5 -13 -18z" class="svg-elem-123"></path>
    <path d="M2270 2731 c0 -6 5 -13 10 -16 6 -3 10 1 10 9 0 9 -4 16 -10 16 -5 0
-10 -4 -10 -9z" class="svg-elem-124"></path>
    <path d="M525 2721 c-6 -11 9 -23 19 -14 9 9 7 23 -3 23 -6 0 -12 -4 -16 -9z" class="svg-elem-125"></path>
    <path d="M770 2720 c0 -5 5 -10 10 -10 6 0 10 5 10 10 0 6 -4 10 -10 10 -5 0
-10 -4 -10 -10z" class="svg-elem-126"></path>
    <path d="M2767 2724 c-11 -11 -8 -44 3 -44 15 0 24 30 13 41 -5 5 -12 6 -16 3z" class="svg-elem-127"></path>
    <path d="M2155 2710 c-3 -5 1 -10 10 -10 9 0 13 5 10 10 -3 6 -8 10 -10 10 -2
0 -7 -4 -10 -10z" class="svg-elem-128"></path>
    <path d="M1775 2691 c-3 -5 -1 -12 5 -16 5 -3 10 1 10 9 0 18 -6 21 -15 7z" class="svg-elem-129"></path>
    <path d="M2308 2693 c7 -3 16 -2 19 1 4 3 -2 6 -13 5 -11 0 -14 -3 -6 -6z" class="svg-elem-130"></path>
    <path d="M610 2664 c0 -8 5 -12 10 -9 6 4 8 11 5 16 -9 14 -15 11 -15 -7z" class="svg-elem-131"></path>
    <path d="M1816 2663 c-6 -14 -5 -15 5 -6 7 7 10 15 7 18 -3 3 -9 -2 -12 -12z" class="svg-elem-132"></path>
    <path d="M930 2636 c0 -9 5 -16 10 -16 6 0 10 4 10 9 0 6 -4 13 -10 16 -5 3
-10 -1 -10 -9z" class="svg-elem-133"></path>
    <path d="M2205 2640 c-3 -5 -1 -10 4 -10 6 0 11 5 11 10 0 6 -2 10 -4 10 -3 0
-8 -4 -11 -10z" class="svg-elem-134"></path>
    <path d="M3000 2639 c0 -5 5 -7 10 -4 6 3 10 8 10 11 0 2 -4 4 -10 4 -5 0 -10
-5 -10 -11z" class="svg-elem-135"></path>
    <path d="M2015 2629 c-4 -6 -4 -13 -1 -16 8 -8 36 5 36 17 0 13 -27 13 -35 -1z" class="svg-elem-136"></path>
    <path d="M965 2620 c3 -5 8 -10 11 -10 2 0 4 5 4 10 0 6 -5 10 -11 10 -5 0 -7
-4 -4 -10z" class="svg-elem-137"></path>
    <path d="M1835 2620 c3 -5 8 -10 11 -10 2 0 4 5 4 10 0 6 -5 10 -11 10 -5 0
-7 -4 -4 -10z" class="svg-elem-138"></path>
    <path d="M1908 2613 c7 -3 16 -2 19 1 4 3 -2 6 -13 5 -11 0 -14 -3 -6 -6z" class="svg-elem-139"></path>
    <path d="M357 2604 c-8 -8 1 -24 14 -24 5 0 9 7 9 15 0 15 -12 20 -23 9z" class="svg-elem-140"></path>
    <path d="M800 2600 c0 -5 9 -14 20 -20 19 -10 20 -10 8 9 -13 22 -28 28 -28
11z" class="svg-elem-141"></path>
    <path d="M986 2594 c-13 -9 -17 -17 -10 -24 7 -7 17 -5 30 4 13 10 16 18 9 25
-7 6 -16 5 -29 -5z" class="svg-elem-142"></path>
    <path d="M2755 2600 c3 -5 8 -10 11 -10 2 0 4 5 4 10 0 6 -5 10 -11 10 -5 0
-7 -4 -4 -10z" class="svg-elem-143"></path>
    <path d="M3095 2600 c-3 -5 -1 -10 4 -10 6 0 11 5 11 10 0 6 -2 10 -4 10 -3 0
-8 -4 -11 -10z" class="svg-elem-144"></path>
    <path d="M2050 2584 c0 -9 7 -14 17 -12 25 5 28 28 4 28 -12 0 -21 -6 -21 -16z" class="svg-elem-145"></path>
    <path d="M2195 2559 c-11 -16 -1 -19 13 -3 7 8 8 14 3 14 -5 0 -13 -5 -16 -11z" class="svg-elem-146"></path>
    <path d="M796 2545 c4 -8 8 -15 10 -15 2 0 4 7 4 15 0 8 -4 15 -10 15 -5 0 -7
-7 -4 -15z" class="svg-elem-147"></path>
    <path d="M2144 2549 c-7 -12 15 -31 28 -23 9 6 -1 34 -12 34 -5 0 -12 -5 -16
-11z" class="svg-elem-148"></path>
    <path d="M980 2540 c0 -5 4 -10 9 -10 6 0 13 5 16 10 3 6 -1 10 -9 10 -9 0
-16 -4 -16 -10z" class="svg-elem-149"></path>
    <path d="M1060 2519 c0 -20 4 -29 13 -27 18 7 20 45 3 51 -12 5 -16 -1 -16
-24z" class="svg-elem-150"></path>
    <path d="M2100 2540 c0 -5 5 -10 11 -10 5 0 7 5 4 10 -3 6 -8 10 -11 10 -2 0
-4 -4 -4 -10z" class="svg-elem-151"></path>
    <path d="M435 2520 c3 -5 8 -10 11 -10 2 0 4 5 4 10 0 6 -5 10 -11 10 -5 0 -7
-4 -4 -10z" class="svg-elem-152"></path>
    <path d="M930 2505 c-15 -19 -5 -65 15 -65 8 0 24 9 36 21 20 20 20 22 3 40
-21 23 -37 24 -54 4z" class="svg-elem-153"></path>
    <path d="M2045 2500 c3 -5 8 -10 11 -10 2 0 4 5 4 10 0 6 -5 10 -11 10 -5 0
-7 -4 -4 -10z" class="svg-elem-154"></path>
    <path d="M1020 2491 c0 -5 7 -12 16 -15 14 -5 15 -4 4 9 -14 17 -20 19 -20 6z" class="svg-elem-155"></path>
    <path d="M2717 2479 c4 -13 9 -17 15 -11 11 11 3 32 -12 32 -4 0 -6 -9 -3 -21z" class="svg-elem-156"></path>
    <path d="M2965 2471 c-3 -5 -1 -12 5 -16 12 -7 30 2 30 16 0 12 -27 12 -35 0z" class="svg-elem-157"></path>
    <path d="M2670 2453 c1 -18 22 -53 33 -53 3 0 3 9 0 20 -3 11 -9 20 -14 20 -5
0 -6 7 -3 15 4 8 1 15 -5 15 -6 0 -11 -8 -11 -17z" class="svg-elem-158"></path>
    <path d="M2746 2453 c-3 -3 -6 -16 -6 -29 0 -12 -4 -24 -8 -26 -5 -1 -3 -16 3
-32 l12 -29 13 23 c9 18 10 25 1 28 -14 5 -15 32 -1 32 12 0 13 27 1 34 -4 3
-11 3 -15 -1z" class="svg-elem-159"></path>
    <path d="M1015 2420 c3 -5 8 -10 11 -10 2 0 4 5 4 10 0 6 -5 10 -11 10 -5 0
-7 -4 -4 -10z" class="svg-elem-160"></path>
    <path d="M956 2365 c8 -53 19 -71 44 -78 14 -4 26 3 41 24 11 16 17 33 14 39
-3 5 -1 10 5 10 6 0 9 4 5 10 -3 5 -12 7 -19 4 -8 -3 -20 3 -27 13 -8 11 -26
18 -42 18 -27 0 -28 -1 -21 -40z" class="svg-elem-161"></path>
    <path d="M2640 2401 c0 -10 30 -24 37 -17 3 3 2 9 -2 15 -8 13 -35 15 -35 2z" class="svg-elem-162"></path>
    <path d="M2822 2401 c-21 -13 -10 -46 16 -49 27 -4 40 22 22 43 -14 17 -20 18
-38 6z" class="svg-elem-163"></path>
    <path d="M830 2391 c0 -10 42 -23 49 -15 7 6 -20 24 -36 24 -7 0 -13 -4 -13
-9z" class="svg-elem-164"></path>
    <path d="M2630 2371 c0 -6 5 -13 10 -16 6 -3 10 1 10 9 0 9 -4 16 -10 16 -5 0
-10 -4 -10 -9z" class="svg-elem-165"></path>
    <path d="M1300 2340 c0 -5 5 -10 10 -10 6 0 10 5 10 10 0 6 -4 10 -10 10 -5 0
-10 -4 -10 -10z" class="svg-elem-166"></path>
    <path d="M1173 2320 c-1 -11 2 -18 8 -15 11 7 12 35 1 35 -4 0 -8 -9 -9 -20z" class="svg-elem-167"></path>
    <path d="M1492 2300 c0 -16 4 -30 10 -30 5 0 8 7 5 15 -4 8 -2 17 3 20 15 9
12 25 -3 25 -9 0 -14 -12 -15 -30z" class="svg-elem-168"></path>
    <path d="M1290 2299 c0 -5 5 -7 10 -4 6 3 10 8 10 11 0 2 -4 4 -10 4 -5 0 -10
-5 -10 -11z" class="svg-elem-169"></path>
    <path d="M940 2290 c0 -5 5 -10 10 -10 6 0 10 5 10 10 0 6 -4 10 -10 10 -5 0
-10 -4 -10 -10z" class="svg-elem-170"></path>
    <path d="M1089 2293 c-1 -4 -1 -11 0 -15 0 -5 -3 -8 -9 -8 -5 0 -10 -4 -10
-10 0 -16 14 -11 27 10 8 12 9 21 3 25 -6 3 -11 3 -11 -2z" class="svg-elem-171"></path>
    <path d="M1141 2276 c-7 -8 -8 -17 -3 -20 6 -3 15 1 21 8 7 8 8 17 3 20 -6 3
-15 -1 -21 -8z" class="svg-elem-172"></path>
    <path d="M1185 2271 c3 -10 1 -31 -5 -46 -7 -19 -7 -31 0 -41 8 -9 8 -19 0
-34 -6 -12 -9 -24 -6 -28 3 -3 6 0 6 7 0 10 6 9 25 -3 34 -22 35 -21 33 25 -1
26 4 44 13 50 11 7 10 9 -6 9 -17 0 -17 2 -5 10 8 5 10 10 4 10 -6 0 -14 14
-17 30 -5 22 -12 30 -27 30 -16 0 -20 -5 -15 -19z" class="svg-elem-173"></path>
    <path d="M1240 2265 c0 -15 6 -25 15 -25 9 0 12 6 9 15 -4 8 -1 15 6 15 6 0 8
5 5 10 -12 20 -35 10 -35 -15z" class="svg-elem-174"></path>
    <path d="M2857 2284 c-4 -4 -7 -15 -7 -25 0 -12 6 -16 20 -12 12 3 20 12 18
21 -3 17 -21 26 -31 16z" class="svg-elem-175"></path>
    <path d="M865 2269 c-10 -15 3 -25 16 -12 7 7 7 13 1 17 -6 3 -14 1 -17 -5z" class="svg-elem-176"></path>
    <path d="M1040 2270 c0 -5 5 -10 10 -10 6 0 10 5 10 10 0 6 -4 10 -10 10 -5 0
-10 -4 -10 -10z" class="svg-elem-177"></path>
    <path d="M1541 2251 c-8 -5 -20 -7 -27 -4 -6 2 -15 -1 -20 -8 -5 -9 -2 -10 9
-6 9 3 19 2 22 -2 6 -10 55 10 55 22 0 10 -22 9 -39 -2z" class="svg-elem-178"></path>
    <path d="M1422 2211 c2 -20 8 -25 23 -23 11 2 26 4 33 4 28 3 5 34 -31 40 -25
5 -28 3 -25 -21z" class="svg-elem-179"></path>
    <path d="M2840 2219 c0 -5 -6 -7 -12 -3 -7 4 -10 3 -5 -1 4 -5 -3 -19 -15 -32
-18 -19 -19 -25 -9 -36 11 -9 14 -9 18 1 3 6 12 12 22 12 9 0 25 6 35 13 16
12 15 14 -8 35 -15 12 -26 17 -26 11z" class="svg-elem-180"></path>
    <path d="M2788 2212 c-18 -3 -26 -32 -9 -32 10 0 36 29 30 33 -2 2 -12 2 -21
-1z" class="svg-elem-181"></path>
    <path d="M1525 2190 c3 -5 10 -10 16 -10 5 0 9 5 9 10 0 6 -7 10 -16 10 -8 0
-12 -4 -9 -10z" class="svg-elem-182"></path>
    <path d="M1667 2184 c-10 -11 3 -24 24 -24 23 0 25 15 3 24 -19 7 -19 7 -27 0z" class="svg-elem-183"></path>
    <path d="M3000 2180 c0 -5 5 -10 10 -10 6 0 10 5 10 10 0 6 -4 10 -10 10 -5 0
-10 -4 -10 -10z" class="svg-elem-184"></path>
    <path d="M1254 2165 c-13 -34 28 -49 45 -16 8 15 7 20 -5 25 -24 9 -34 7 -40
-9z" class="svg-elem-185"></path>
    <path d="M1376 2144 c-26 -26 -16 -49 27 -59 22 -6 27 -4 28 11 0 11 3 14 6 7
5 -15 33 -18 33 -4 0 5 -9 13 -20 16 -11 3 -20 12 -20 20 0 7 -7 16 -16 19
-21 8 -20 8 -38 -10z" class="svg-elem-186"></path>
    <path d="M394 2115 c-4 -8 -10 -13 -14 -10 -10 6 -21 -21 -13 -29 11 -11 19
-6 41 24 18 24 20 30 7 30 -9 0 -18 -7 -21 -15z" class="svg-elem-187"></path>
    <path d="M1295 2120 c-3 -5 -1 -10 4 -10 6 0 11 5 11 10 0 6 -2 10 -4 10 -3 0
-8 -4 -11 -10z" class="svg-elem-188"></path>
    <path d="M2825 2120 c3 -5 10 -10 16 -10 5 0 9 5 9 10 0 6 -7 10 -16 10 -8 0
-12 -4 -9 -10z" class="svg-elem-189"></path>
    <path d="M710 2105 c0 -8 5 -15 10 -15 6 0 10 7 10 15 0 8 -4 15 -10 15 -5 0
-10 -7 -10 -15z" class="svg-elem-190"></path>
    <path d="M3240 2090 c0 -5 5 -10 11 -10 5 0 7 5 4 10 -3 6 -8 10 -11 10 -2 0
-4 -4 -4 -10z" class="svg-elem-191"></path>
    <path d="M3560 2076 c0 -31 6 -34 13 -6 3 11 1 23 -4 26 -5 3 -9 -6 -9 -20z" class="svg-elem-192"></path>
    <path d="M1335 2080 c3 -5 8 -10 11 -10 2 0 4 5 4 10 0 6 -5 10 -11 10 -5 0
-7 -4 -4 -10z" class="svg-elem-193"></path>
    <path d="M1095 2071 c-6 -11 9 -23 19 -14 9 9 7 23 -3 23 -6 0 -12 -4 -16 -9z" class="svg-elem-194"></path>
    <path d="M2840 2072 c0 -4 9 -8 20 -9 11 -1 20 2 20 8 0 5 -9 9 -20 9 -11 0
-20 -4 -20 -8z" class="svg-elem-195"></path>
    <path d="M640 2035 c0 -8 5 -15 10 -15 6 0 10 7 10 15 0 8 -4 15 -10 15 -5 0
-10 -7 -10 -15z" class="svg-elem-196"></path>
    <path d="M1370 2040 c0 -5 5 -10 10 -10 6 0 10 5 10 10 0 6 -4 10 -10 10 -5 0
-10 -4 -10 -10z" class="svg-elem-197"></path>
    <path d="M2970 2043 c0 -5 7 -18 15 -29 15 -18 15 -18 13 5 -3 23 -28 44 -28
24z" class="svg-elem-198"></path>
    <path d="M3366 2041 c-4 -7 -5 -15 -2 -18 9 -9 19 4 14 18 -4 11 -6 11 -12 0z" class="svg-elem-199"></path>
    <path d="M1426 2021 c-4 -5 -1 -22 4 -37 8 -20 14 -24 22 -16 8 8 8 15 -1 26
-7 8 -10 20 -6 26 3 5 2 10 -4 10 -5 0 -12 -4 -15 -9z" class="svg-elem-200"></path>
    <path d="M1045 2010 c-3 -5 1 -10 9 -10 9 0 16 5 16 10 0 6 -4 10 -9 10 -6 0
-13 -4 -16 -10z" class="svg-elem-201"></path>
    <path d="M2815 2006 c-3 -9 -7 -23 -10 -31 -2 -8 1 -25 8 -38 10 -18 17 -22
32 -16 11 4 16 8 10 8 -5 1 1 8 13 17 16 11 22 24 20 42 -2 22 -9 28 -36 30
-22 2 -34 -1 -37 -12z" class="svg-elem-202"></path>
    <path d="M1276 1992 c-10 -32 -3 -122 9 -112 6 5 17 5 25 0 24 -16 70 -12 70
5 0 8 -5 15 -11 15 -17 0 -48 43 -49 66 0 20 -17 44 -31 44 -4 0 -10 -8 -13
-18z" class="svg-elem-203"></path>
    <path d="M3125 1990 c-3 -5 -1 -10 4 -10 6 0 11 5 11 10 0 6 -2 10 -4 10 -3 0
-8 -4 -11 -10z" class="svg-elem-204"></path>
    <path d="M1155 1970 c-3 -5 -2 -17 3 -26 5 -9 7 -24 5 -34 -2 -9 2 -22 11 -29
12 -10 19 -10 35 1 19 13 19 16 5 36 -8 12 -21 22 -29 22 -8 0 -11 7 -8 20 5
20 -11 28 -22 10z" class="svg-elem-205"></path>
    <path d="M3340 1960 c0 -5 7 -10 16 -10 8 0 12 5 9 10 -3 6 -10 10 -16 10 -5
0 -9 -4 -9 -10z" class="svg-elem-206"></path>
    <path d="M1380 1935 c0 -17 5 -25 13 -22 6 2 12 12 12 22 0 10 -6 20 -12 23
-8 2 -13 -6 -13 -23z" class="svg-elem-207"></path>
    <path d="M3046 1951 c-10 -16 5 -41 25 -41 11 0 22 7 26 16 9 24 -38 47 -51
25z" class="svg-elem-208"></path>
    <path d="M3410 1950 c0 -5 5 -10 10 -10 6 0 10 5 10 10 0 6 -4 10 -10 10 -5 0
-10 -4 -10 -10z" class="svg-elem-209"></path>
    <path d="M1248 1905 c5 -29 8 -31 15 -11 3 8 0 19 -7 25 -10 9 -12 6 -8 -14z" class="svg-elem-210"></path>
    <path d="M3117 1915 c-18 -13 -18 -14 2 -34 29 -29 38 -26 39 14 1 38 -11 44
-41 20z" class="svg-elem-211"></path>
    <path d="M1120 1910 c0 -5 5 -10 10 -10 6 0 10 5 10 10 0 6 -4 10 -10 10 -5 0
-10 -4 -10 -10z" class="svg-elem-212"></path>
    <path d="M632 1889 c2 -6 8 -10 13 -10 5 0 11 4 13 10 2 6 -4 11 -13 11 -9 0
-15 -5 -13 -11z" class="svg-elem-213"></path>
    <path d="M1400 1883 c0 -12 7 -23 15 -26 22 -9 25 6 4 27 -19 19 -19 19 -19
-1z" class="svg-elem-214"></path>
    <path d="M697 1884 c-8 -8 1 -24 14 -24 5 0 9 7 9 15 0 15 -12 20 -23 9z" class="svg-elem-215"></path>
    <path d="M2080 1880 c0 -5 5 -10 10 -10 6 0 10 5 10 10 0 6 -4 10 -10 10 -5 0
-10 -4 -10 -10z" class="svg-elem-216"></path>
    <path d="M1287 1863 c-11 -10 -8 -25 3 -18 6 3 10 0 10 -8 0 -20 26 -29 39
-13 9 10 5 17 -13 30 -29 18 -30 19 -39 9z" class="svg-elem-217"></path>
    <path d="M3175 1860 c3 -5 8 -10 11 -10 2 0 4 5 4 10 0 6 -5 10 -11 10 -5 0
-7 -4 -4 -10z" class="svg-elem-218"></path>
    <path d="M1043 1848 c-22 -28 -21 -36 0 -66 l23 -30 22 25 c27 30 28 45 4 66
-22 20 -36 21 -49 5z" class="svg-elem-219"></path>
    <path d="M2015 1848 c-13 -37 -9 -62 12 -73 13 -7 20 -15 16 -18 -3 -4 1 -7
10 -7 19 0 23 -16 6 -22 -8 -3 -8 -10 2 -26 11 -18 20 -21 39 -16 14 4 33 6
43 6 9 0 17 3 17 8 0 13 -23 18 -42 8 -15 -7 -18 -4 -18 18 0 18 -6 28 -21 31
-16 5 -19 11 -14 34 4 16 4 38 0 49 -7 22 -43 28 -50 8z" class="svg-elem-220"></path>
    <path d="M3120 1850 c0 -5 5 -10 10 -10 6 0 10 5 10 10 0 6 -4 10 -10 10 -5 0
-10 -4 -10 -10z" class="svg-elem-221"></path>
    <path d="M2955 1840 c4 -6 11 -8 16 -5 14 9 11 15 -7 15 -8 0 -12 -5 -9 -10z" class="svg-elem-222"></path>
    <path d="M2176 1805 c4 -8 13 -15 21 -15 13 0 13 3 3 15 -7 8 -16 15 -21 15
-5 0 -6 -7 -3 -15z" class="svg-elem-223"></path>
    <path d="M1265 1800 c-3 -5 -1 -10 4 -10 6 0 11 5 11 10 0 6 -2 10 -4 10 -3 0
-8 -4 -11 -10z" class="svg-elem-224"></path>
    <path d="M2232 1783 c2 -10 10 -17 16 -15 15 3 16 -24 2 -33 -19 -12 -10 -25
14 -19 14 3 29 0 39 -10 22 -22 24 -20 19 15 -6 42 -28 85 -35 67 -3 -10 -8
-11 -26 0 -28 16 -33 15 -29 -5z" class="svg-elem-225"></path>
    <path d="M2130 1774 c0 -8 10 -14 26 -14 28 0 25 15 -6 23 -13 3 -20 0 -20 -9z" class="svg-elem-226"></path>
    <path d="M3260 1774 c0 -8 5 -12 10 -9 6 3 10 10 10 16 0 5 -4 9 -10 9 -5 0
-10 -7 -10 -16z" class="svg-elem-227"></path>
    <path d="M3418 1773 c7 -3 16 -2 19 1 4 3 -2 6 -13 5 -11 0 -14 -3 -6 -6z" class="svg-elem-228"></path>
    <path d="M1918 1745 c-15 -32 -1 -48 42 -47 19 0 30 -4 30 -13 0 -19 30 -27
36 -10 10 24 -6 87 -19 82 -7 -2 -11 -11 -9 -21 2 -9 -2 -16 -8 -16 -5 0 -10
7 -10 15 0 13 -28 35 -45 35 -3 0 -11 -11 -17 -25z" class="svg-elem-229"></path>
    <path d="M2202 1749 c2 -7 10 -15 17 -17 8 -3 12 1 9 9 -2 7 -10 15 -17 17 -8
3 -12 -1 -9 -9z" class="svg-elem-230"></path>
    <path d="M1330 1735 c0 -8 5 -15 10 -15 6 0 10 7 10 15 0 8 -4 15 -10 15 -5 0
-10 -7 -10 -15z" class="svg-elem-231"></path>
    <path d="M2175 1720 c3 -5 8 -10 11 -10 2 0 4 5 4 10 0 6 -5 10 -11 10 -5 0
-7 -4 -4 -10z" class="svg-elem-232"></path>
    <path d="M1090 1705 c0 -7 -7 -18 -16 -23 -14 -8 -12 -10 10 -14 31 -6 40 4
31 32 -7 23 -25 27 -25 5z" class="svg-elem-233"></path>
    <path d="M1130 1710 c0 -5 7 -10 15 -10 8 0 15 5 15 10 0 6 -7 10 -15 10 -8 0
-15 -4 -15 -10z" class="svg-elem-234"></path>
    <path d="M1900 1685 c0 -8 5 -15 10 -15 6 0 10 7 10 15 0 8 -4 15 -10 15 -5 0
-10 -7 -10 -15z" class="svg-elem-235"></path>
    <path d="M2190 1690 c-9 -6 -10 -10 -3 -10 6 0 15 5 18 10 8 12 4 12 -15 0z" class="svg-elem-236"></path>
    <path d="M2233 1678 c-41 -14 -43 -28 -3 -28 19 0 30 5 30 14 0 9 8 12 26 8
19 -3 25 -1 20 7 -8 13 -29 13 -73 -1z" class="svg-elem-237"></path>
    <path d="M2140 1660 c0 -11 7 -20 15 -20 17 0 20 -16 5 -25 -13 -8 -13 -28 1
-23 6 2 11 8 11 13 0 6 3 15 8 20 11 14 -7 55 -25 55 -8 0 -15 -9 -15 -20z" class="svg-elem-238"></path>
    <path d="M830 1660 c0 -5 5 -10 10 -10 6 0 10 5 10 10 0 6 -4 10 -10 10 -5 0
-10 -4 -10 -10z" class="svg-elem-239"></path>
    <path d="M2095 1660 c-3 -5 -1 -10 4 -10 6 0 11 5 11 10 0 6 -2 10 -4 10 -3 0
-8 -4 -11 -10z" class="svg-elem-240"></path>
    <path d="M1920 1646 c0 -24 18 -28 30 -6 9 17 8 20 -10 20 -11 0 -20 -6 -20
-14z" class="svg-elem-241"></path>
    <path d="M2005 1640 c-3 -5 1 -10 9 -10 9 0 16 5 16 10 0 6 -4 10 -9 10 -6 0
-13 -4 -16 -10z" class="svg-elem-242"></path>
    <path d="M3340 1642 c0 -12 19 -26 26 -19 2 2 -2 10 -11 17 -9 8 -15 8 -15 2z" class="svg-elem-243"></path>
    <path d="M2050 1600 c-10 -19 -9 -20 14 -14 19 4 26 1 31 -16 5 -15 12 -19 26
-15 11 4 19 2 19 -4 0 -6 5 -11 12 -11 9 0 9 3 0 12 -7 7 -12 20 -12 29 0 21
-5 24 -47 33 -26 6 -34 4 -43 -14z" class="svg-elem-244"></path>
    <path d="M3700 1600 c0 -5 5 -10 10 -10 6 0 10 5 10 10 0 6 -4 10 -10 10 -5 0
-10 -4 -10 -10z" class="svg-elem-245"></path>
    <path d="M1880 1585 c0 -8 5 -15 10 -15 6 0 10 7 10 15 0 8 -4 15 -10 15 -5 0
-10 -7 -10 -15z" class="svg-elem-246"></path>
    <path d="M755 1580 c-3 -5 -1 -10 4 -10 6 0 11 5 11 10 0 6 -2 10 -4 10 -3 0
-8 -4 -11 -10z" class="svg-elem-247"></path>
    <path d="M2254 1576 c23 -18 36 -20 36 -6 0 6 -4 10 -9 10 -5 0 -18 3 -28 6
-16 5 -16 4 1 -10z" class="svg-elem-248"></path>
    <path d="M2455 1580 c3 -5 11 -10 16 -10 6 0 7 5 4 10 -3 6 -11 10 -16 10 -6
0 -7 -4 -4 -10z" class="svg-elem-249"></path>
    <path d="M1925 1570 c3 -5 8 -10 11 -10 2 0 4 5 4 10 0 6 -5 10 -11 10 -5 0
-7 -4 -4 -10z" class="svg-elem-250"></path>
    <path d="M2725 1570 c-3 -5 -1 -10 4 -10 6 0 11 5 11 10 0 6 -2 10 -4 10 -3 0
-8 -4 -11 -10z" class="svg-elem-251"></path>
    <path d="M3481 1564 c0 -11 3 -14 6 -6 3 7 2 16 -1 19 -3 4 -6 -2 -5 -13z" class="svg-elem-252"></path>
    <path d="M830 1550 c0 -5 5 -10 11 -10 5 0 7 5 4 10 -3 6 -8 10 -11 10 -2 0
-4 -4 -4 -10z" class="svg-elem-253"></path>
    <path d="M1815 1539 c-4 -6 -5 -13 -1 -16 8 -8 56 6 56 17 0 13 -47 13 -55 -1z" class="svg-elem-254"></path>
    <path d="M696 1533 c-11 -11 -6 -23 9 -23 8 0 15 4 15 9 0 13 -16 22 -24 14z" class="svg-elem-255"></path>
    <path d="M1893 1514 c-18 -8 -33 -15 -33 -17 0 -6 78 1 89 8 14 8 5 25 -12 24
-7 0 -27 -7 -44 -15z" class="svg-elem-256"></path>
    <path d="M520 1510 c0 -5 5 -10 11 -10 5 0 7 5 4 10 -3 6 -8 10 -11 10 -2 0
-4 -4 -4 -10z" class="svg-elem-257"></path>
    <path d="M1937 1473 c-12 -12 -7 -22 8 -17 8 4 15 10 15 15 0 11 -14 12 -23 2z" class="svg-elem-258"></path>
    <path d="M1842 1450 c-10 -17 -10 -23 3 -36 13 -14 15 -12 15 20 0 42 -1 43
-18 16z" class="svg-elem-259"></path>
    <path d="M2447 1463 c-4 -3 -7 -11 -7 -17 0 -6 5 -5 12 2 6 6 9 14 7 17 -3 3
-9 2 -12 -2z" class="svg-elem-260"></path>
    <path d="M2825 1450 c3 -5 8 -10 11 -10 2 0 4 5 4 10 0 6 -5 10 -11 10 -5 0
-7 -4 -4 -10z" class="svg-elem-261"></path>
    <path d="M3545 1450 c-3 -5 -1 -10 4 -10 6 0 11 5 11 10 0 6 -2 10 -4 10 -3 0
-8 -4 -11 -10z" class="svg-elem-262"></path>
    <path d="M1960 1435 c7 -9 15 -13 17 -11 7 7 -7 26 -19 26 -6 0 -6 -6 2 -15z" class="svg-elem-263"></path>
    <path d="M2101 1414 c0 -11 3 -14 6 -6 3 7 2 16 -1 19 -3 4 -6 -2 -5 -13z" class="svg-elem-264"></path>
    <path d="M820 1401 c0 -6 5 -13 10 -16 6 -3 10 1 10 9 0 9 -4 16 -10 16 -5 0
-10 -4 -10 -9z" class="svg-elem-265"></path>
    <path d="M1810 1395 c0 -8 4 -15 10 -15 5 0 7 7 4 15 -4 8 -8 15 -10 15 -2 0
-4 -7 -4 -15z" class="svg-elem-266"></path>
    <path d="M1875 1381 c-3 -5 -1 -12 5 -16 5 -3 10 1 10 9 0 18 -6 21 -15 7z" class="svg-elem-267"></path>
    <path d="M1810 1350 c-6 -11 -20 -20 -31 -20 -11 0 -18 4 -14 9 3 5 0 13 -6
17 -9 5 -10 0 -6 -17 4 -13 7 -27 7 -31 0 -15 39 -8 49 10 6 9 11 13 11 8 0
-5 7 -3 16 5 13 10 17 10 24 0 5 -10 9 -10 15 -1 8 13 9 12 -27 28 -24 10 -29
9 -38 -8z" class="svg-elem-268"></path>
    <path d="M2105 1361 c-3 -5 -1 -12 5 -16 5 -3 10 1 10 9 0 18 -6 21 -15 7z" class="svg-elem-269"></path>
    <path d="M3100 1356 c0 -8 -5 -16 -10 -18 -6 -2 -2 -8 7 -14 16 -9 18 -7 19
18 1 15 -3 28 -7 28 -5 0 -9 -6 -9 -14z" class="svg-elem-270"></path>
    <path d="M2277 1353 c-4 -3 -7 -11 -7 -17 0 -6 5 -5 12 2 6 6 9 14 7 17 -3 3
-9 2 -12 -2z" class="svg-elem-271"></path>
    <path d="M2700 1344 c0 -8 5 -12 10 -9 6 4 8 11 5 16 -9 14 -15 11 -15 -7z" class="svg-elem-272"></path>
    <path d="M2799 1333 c-13 -16 -12 -17 4 -4 9 7 17 15 17 17 0 8 -8 3 -21 -13z" class="svg-elem-273"></path>
    <path d="M2930 1340 c0 -5 7 -7 15 -4 8 4 15 8 15 10 0 2 -7 4 -15 4 -8 0 -15
-4 -15 -10z" class="svg-elem-274"></path>
    <path d="M1297 1333 c-4 -3 -7 -14 -7 -24 0 -22 34 -31 57 -14 15 11 15 15 4
29 -14 16 -42 21 -54 9z" class="svg-elem-275"></path>
    <path d="M1964 1313 c-2 -18 3 -23 22 -23 19 0 24 5 24 24 0 33 -44 32 -46 -1z" class="svg-elem-276"></path>
    <path d="M2165 1330 c4 -6 11 -8 16 -5 14 9 11 15 -7 15 -8 0 -12 -5 -9 -10z" class="svg-elem-277"></path>
    <path d="M3400 1330 c0 -5 5 -10 10 -10 6 0 10 5 10 10 0 6 -4 10 -10 10 -5 0
-10 -4 -10 -10z" class="svg-elem-278"></path>
    <path d="M366 1321 c-4 -5 -2 -12 3 -15 5 -4 12 -2 15 3 4 5 2 12 -3 15 -5 4
-12 2 -15 -3z" class="svg-elem-279"></path>
    <path d="M1243 1315 c-8 -22 6 -33 17 -15 13 20 12 30 0 30 -6 0 -13 -7 -17
-15z" class="svg-elem-280"></path>
    <path d="M3320 1320 c0 -5 5 -10 10 -10 6 0 10 5 10 10 0 6 -4 10 -10 10 -5 0
-10 -4 -10 -10z" class="svg-elem-281"></path>
    <path d="M3175 1310 c3 -5 8 -10 11 -10 2 0 4 5 4 10 0 6 -5 10 -11 10 -5 0
-7 -4 -4 -10z" class="svg-elem-282"></path>
    <path d="M1880 1280 c6 -11 15 -18 21 -15 13 9 11 13 -12 25 -19 11 -20 10 -9
-10z" class="svg-elem-283"></path>
    <path d="M1765 1277 c-4 -10 -5 -21 -1 -24 10 -10 18 4 13 24 -4 17 -4 17 -12
0z" class="svg-elem-284"></path>
    <path d="M3140 1280 c0 -5 7 -10 15 -10 8 0 15 5 15 10 0 6 -7 10 -15 10 -8 0
-15 -4 -15 -10z" class="svg-elem-285"></path>
    <path d="M1235 1263 c12 -33 10 -38 -17 -38 -35 -1 -42 -9 -23 -25 18 -15 20
-47 3 -52 -9 -3 -9 -6 0 -12 7 -4 12 -2 12 3 0 6 9 11 19 11 22 0 29 8 41 51
6 20 5 27 -2 23 -6 -4 -8 1 -3 16 5 15 2 25 -6 31 -22 14 -32 10 -24 -8z" class="svg-elem-286"></path>
    <path d="M465 1260 c3 -5 8 -10 11 -10 2 0 4 5 4 10 0 6 -5 10 -11 10 -5 0 -7
-4 -4 -10z" class="svg-elem-287"></path>
    <path d="M1200 1254 c0 -8 5 -12 10 -9 6 3 10 10 10 16 0 5 -4 9 -10 9 -5 0
-10 -7 -10 -16z" class="svg-elem-288"></path>
    <path d="M1322 1254 c2 -11 11 -20 22 -22 13 -3 17 1 14 14 -2 11 -11 20 -22
22 -13 3 -17 -1 -14 -14z" class="svg-elem-289"></path>
    <path d="M1800 1262 c0 -4 9 -15 19 -24 18 -15 20 -15 26 -1 6 17 -10 33 -32
33 -7 0 -13 -3 -13 -8z" class="svg-elem-290"></path>
    <path d="M1535 1250 c-12 -19 5 -50 28 -48 12 0 30 -3 40 -7 12 -5 17 -3 17
10 0 11 -6 15 -18 11 -12 -4 -21 1 -27 16 -12 25 -30 34 -40 18z" class="svg-elem-291"></path>
    <path d="M3124 1246 c-6 -17 2 -36 17 -36 12 0 12 37 -1 45 -6 3 -13 -1 -16
-9z" class="svg-elem-292"></path>
    <path d="M3275 1250 c-3 -5 -1 -10 4 -10 6 0 11 5 11 10 0 6 -2 10 -4 10 -3 0
-8 -4 -11 -10z" class="svg-elem-293"></path>
    <path d="M1112 1223 c5 -29 27 -48 40 -35 9 9 7 17 -7 32 -22 25 -37 26 -33 3z" class="svg-elem-294"></path>
    <path d="M1380 1232 c0 -5 7 -13 16 -16 10 -4 14 -1 12 6 -5 15 -28 23 -28 10z" class="svg-elem-295"></path>
    <path d="M2020 1220 c0 -5 5 -10 11 -10 5 0 7 5 4 10 -3 6 -8 10 -11 10 -2 0
-4 -4 -4 -10z" class="svg-elem-296"></path>
    <path d="M580 1210 c0 -5 5 -10 10 -10 6 0 10 5 10 10 0 6 -4 10 -10 10 -5 0
-10 -4 -10 -10z" class="svg-elem-297"></path>
    <path d="M1470 1201 c0 -12 6 -21 16 -21 9 0 14 7 12 17 -5 25 -28 28 -28 4z" class="svg-elem-298"></path>
    <path d="M1726 1203 c-4 -9 -2 -21 4 -27 7 -7 10 -2 10 17 0 31 -5 34 -14 10z" class="svg-elem-299"></path>
    <path d="M3535 1210 c3 -5 8 -10 11 -10 2 0 4 5 4 10 0 6 -5 10 -11 10 -5 0
-7 -4 -4 -10z" class="svg-elem-300"></path>
    <path d="M1331 1184 c10 -13 10 -17 -1 -24 -10 -6 -17 -4 -23 5 -13 25 -37 18
-37 -11 0 -21 3 -24 20 -19 18 6 20 3 15 -22 -4 -15 -8 -33 -10 -39 -2 -7 6
-9 21 -6 13 2 24 11 24 18 0 8 5 14 10 14 6 0 9 3 8 8 0 4 2 15 7 25 10 24
-10 67 -31 67 -14 0 -14 -2 -3 -16z" class="svg-elem-301"></path>
    <path d="M1388 1193 c0 -5 -2 -19 -3 -33 -1 -14 -6 -33 -10 -44 -7 -15 -5 -17
12 -12 12 4 25 1 33 -9 7 -8 20 -15 29 -15 13 0 12 4 -5 18 -14 11 -21 26 -19
42 1 14 -2 33 -7 43 -9 17 -27 23 -30 10z" class="svg-elem-302"></path>
    <path d="M1843 1180 c-1 -11 0 -20 2 -20 2 0 9 9 15 20 8 15 8 20 -3 20 -7 0
-13 -9 -14 -20z" class="svg-elem-303"></path>
    <path d="M1895 1186 c-12 -8 -16 -19 -12 -30 8 -19 22 -14 37 14 13 24 -2 33
-25 16z" class="svg-elem-304"></path>
    <path d="M1171 1174 c0 -11 3 -14 6 -6 3 7 2 16 -1 19 -3 4 -6 -2 -5 -13z" class="svg-elem-305"></path>
    <path d="M2010 1180 c0 -5 5 -10 10 -10 6 0 10 5 10 10 0 6 -4 10 -10 10 -5 0
-10 -4 -10 -10z" class="svg-elem-306"></path>
    <path d="M2285 1180 c-3 -6 1 -13 10 -16 19 -8 30 0 20 15 -8 14 -22 14 -30 1z" class="svg-elem-307"></path>
    <path d="M2604 1176 c-3 -8 -4 -23 -2 -33 3 -11 6 -6 9 15 6 34 2 42 -7 18z" class="svg-elem-308"></path>
    <path d="M3055 1170 c-3 -5 -1 -10 4 -10 6 0 11 5 11 10 0 6 -2 10 -4 10 -3 0
-8 -4 -11 -10z" class="svg-elem-309"></path>
    <path d="M1058 1145 c-3 -14 -1 -25 3 -25 5 0 9 11 9 25 0 14 -2 25 -4 25 -2
0 -6 -11 -8 -25z" class="svg-elem-310"></path>
    <path d="M1506 1161 c-12 -19 6 -40 33 -39 16 1 33 -2 40 -6 25 -16 9 14 -18
33 -32 23 -47 26 -55 12z" class="svg-elem-311"></path>
    <path d="M790 1130 c0 -5 5 -10 11 -10 5 0 7 5 4 10 -3 6 -8 10 -11 10 -2 0
-4 -4 -4 -10z" class="svg-elem-312"></path>
    <path d="M2000 1120 c0 -5 5 -10 11 -10 5 0 7 5 4 10 -3 6 -8 10 -11 10 -2 0
-4 -4 -4 -10z" class="svg-elem-313"></path>
    <path d="M1786 1084 c-9 -23 -8 -24 14 -24 11 0 20 6 20 14 0 20 -27 28 -34
10z" class="svg-elem-314"></path>
    <path d="M1910 1090 c-8 -5 -10 -10 -5 -10 6 0 17 5 25 10 8 5 11 10 5 10 -5
0 -17 -5 -25 -10z" class="svg-elem-315"></path>
    <path d="M1180 1080 c0 -5 4 -10 9 -10 6 0 13 5 16 10 3 6 -1 10 -9 10 -9 0
-16 -4 -16 -10z" class="svg-elem-316"></path>
    <path d="M1532 1078 c-16 -16 -15 -48 1 -48 19 0 50 37 42 49 -8 14 -28 14
-43 -1z" class="svg-elem-317"></path>
    <path d="M1875 1070 c3 -5 11 -10 16 -10 6 0 7 5 4 10 -3 6 -11 10 -16 10 -6
0 -7 -4 -4 -10z" class="svg-elem-318"></path>
    <path d="M1115 1049 c-4 -5 -13 -8 -21 -5 -9 3 -14 -2 -14 -14 0 -11 6 -20 13
-20 19 0 51 37 38 44 -5 4 -13 1 -16 -5z" class="svg-elem-319"></path>
    <path d="M1305 1030 c3 -5 10 -10 16 -10 5 0 9 5 9 10 0 6 -7 10 -16 10 -8 0
-12 -4 -9 -10z" class="svg-elem-320"></path>
    <path d="M1830 1030 c0 -5 5 -10 10 -10 6 0 10 5 10 10 0 6 -4 10 -10 10 -5 0
-10 -4 -10 -10z" class="svg-elem-321"></path>
    <path d="M917 1003 c-4 -6 0 -18 7 -28 8 -11 16 -14 19 -8 4 6 0 18 -7 28 -8
11 -16 14 -19 8z" class="svg-elem-322"></path>
    <path d="M1510 985 c-12 -14 -11 -22 5 -51 10 -19 21 -34 25 -34 17 0 31 31
28 62 -3 38 -35 50 -58 23z" class="svg-elem-323"></path>
    <path d="M1040 980 c0 -5 5 -10 11 -10 5 0 7 5 4 10 -3 6 -8 10 -11 10 -2 0
-4 -4 -4 -10z" class="svg-elem-324"></path>
    <path d="M2180 979 c0 -5 5 -7 10 -4 6 3 10 8 10 11 0 2 -4 4 -10 4 -5 0 -10
-5 -10 -11z" class="svg-elem-325"></path>
    <path d="M2240 970 c0 -5 5 -10 11 -10 5 0 7 5 4 10 -3 6 -8 10 -11 10 -2 0
-4 -4 -4 -10z" class="svg-elem-326"></path>
    <path d="M855 960 c-3 -5 1 -10 10 -10 9 0 13 5 10 10 -3 6 -8 10 -10 10 -2 0
-7 -4 -10 -10z" class="svg-elem-327"></path>
    <path d="M1145 961 c-3 -5 -1 -12 4 -15 5 -3 11 1 15 9 6 16 -9 21 -19 6z" class="svg-elem-328"></path>
    <path d="M1910 960 c0 -5 7 -10 16 -10 8 0 12 5 9 10 -3 6 -10 10 -16 10 -5 0
-9 -4 -9 -10z" class="svg-elem-329"></path>
    <path d="M1410 940 c0 -5 7 -7 15 -4 8 4 15 8 15 10 0 2 -7 4 -15 4 -8 0 -15
-4 -15 -10z" class="svg-elem-330"></path>
    <path d="M856 931 c-4 -7 -5 -15 -2 -18 9 -9 19 4 14 18 -4 11 -6 11 -12 0z" class="svg-elem-331"></path>
    <path d="M1025 920 c-3 -5 -2 -10 4 -10 5 0 13 5 16 10 3 6 2 10 -4 10 -5 0
-13 -4 -16 -10z" class="svg-elem-332"></path>
    <path d="M1873 923 c-27 -5 -28 -9 -9 -28 12 -12 16 -12 26 0 7 8 9 15 4 15
-5 0 -2 5 6 10 15 10 11 10 -27 3z" class="svg-elem-333"></path>
    <path d="M1165 900 c3 -5 8 -10 11 -10 2 0 4 5 4 10 0 6 -5 10 -11 10 -5 0 -7
-4 -4 -10z" class="svg-elem-334"></path>
    <path d="M1455 890 c-3 -5 -1 -10 4 -10 6 0 11 5 11 10 0 6 -2 10 -4 10 -3 0
-8 -4 -11 -10z" class="svg-elem-335"></path>
    <path d="M2192 838 c6 -18 28 -21 28 -4 0 9 -7 16 -16 16 -9 0 -14 -5 -12 -12z" class="svg-elem-336"></path>
    <path d="M1330 799 c0 -5 5 -7 10 -4 6 3 10 8 10 11 0 2 -4 4 -10 4 -5 0 -10
-5 -10 -11z" class="svg-elem-337"></path>
    <path d="M1380 795 c0 -8 5 -15 10 -15 6 0 10 7 10 15 0 8 -4 15 -10 15 -5 0
-10 -7 -10 -15z" class="svg-elem-338"></path>
    <path d="M1600 710 c0 -5 5 -10 10 -10 6 0 10 5 10 10 0 6 -4 10 -10 10 -5 0
-10 -4 -10 -10z" class="svg-elem-339"></path>
    <path d="M1570 690 c0 -5 5 -10 10 -10 6 0 10 5 10 10 0 6 -4 10 -10 10 -5 0
-10 -4 -10 -10z" class="svg-elem-340"></path>
    <path d="M1785 650 c-14 -16 -15 -20 -4 -20 16 0 39 19 39 32 0 14 -16 9 -35
-12z" class="svg-elem-341"></path>
    <path d="M1230 515 c0 -8 5 -15 10 -15 6 0 10 7 10 15 0 8 -4 15 -10 15 -5 0
-10 -7 -10 -15z" class="svg-elem-342"></path>
    <path d="M1600 440 c0 -5 5 -10 11 -10 5 0 7 5 4 10 -3 6 -8 10 -11 10 -2 0
-4 -4 -4 -10z" class="svg-elem-343"></path>
    <path d="M1230 370 c0 -5 5 -10 10 -10 6 0 10 5 10 10 0 6 -4 10 -10 10 -5 0
-10 -4 -10 -10z" class="svg-elem-344"></path>
    <path d="M1384 299 c-8 -14 11 -33 25 -25 6 4 11 14 11 22 0 16 -26 19 -36 3z" class="svg-elem-345"></path>
    <path d="M1610 290 c0 -5 5 -10 10 -10 6 0 10 5 10 10 0 6 -4 10 -10 10 -5 0
-10 -4 -10 -10z" class="svg-elem-346"></path>
    <path d="M1870 275 c0 -8 5 -15 10 -15 6 0 10 7 10 15 0 8 -4 15 -10 15 -5 0
-10 -7 -10 -15z" class="svg-elem-347"></path>
    <path d="M1214 229 c-10 -17 13 -36 27 -22 12 12 4 33 -11 33 -5 0 -12 -5 -16
-11z" class="svg-elem-348"></path>
    <path d="M1675 190 c3 -5 8 -10 11 -10 2 0 4 5 4 10 0 6 -5 10 -11 10 -5 0 -7
-4 -4 -10z" class="svg-elem-349"></path>
  </g>
</svg>