<svg xmlns="http://www.w3.org/2000/svg" xmlns:xlink="http://www.w3.org/1999/xlink" width="400" zoomAndPan="magnify" viewBox="0 0 300 299.999988" height="400" preserveAspectRatio="xMidYMid meet" version="1.0">
  <path stroke-linecap="butt" transform="matrix(0.674612, 0, 0, 0.674612, -18.686748, -18.686754)" fill-opacity="1" fill="#ffffff" fill-rule="nonzero" stroke-linejoin="miter" d="M 469.846467 249.9979 C 469.846467 371.421853 371.421844 469.846476 249.997891 469.846476 C 128.579729 469.846476 30.149315 371.421853 30.149315 249.9979 C 30.149315 128.579738 128.579729 30.149324 249.997891 30.149324 C 371.421844 30.149324 469.846467 128.579738 469.846467 249.9979 Z M 469.846467 249.9979 " stroke="#000000" stroke-width="5" stroke-opacity="1" stroke-miterlimit="10" />
  <path fill="#000000" d="M 103.964844 192.671875 C 106.023438 194.828125 105.945312 198.242188 103.792969 200.304688 C 102.75 201.304688 101.40625 201.800781 100.0625 201.800781 C 98.640625 201.800781 97.222656 201.242188 96.164062 200.132812 L 51.746094 153.699219 C 49.75 151.609375 49.75 148.324219 51.746094 146.234375 L 96.164062 99.800781 C 98.222656 97.644531 101.640625 97.570312 103.792969 99.628906 C 105.949219 101.691406 106.023438 105.105469 103.964844 107.261719 L 63.113281 149.964844 Z M 103.964844 192.671875 " fill-opacity="1" fill-rule="nonzero" />
  <path fill="#000000" d="M 248.1875 153.695312 L 203.769531 200.132812 C 202.710938 201.242188 201.289062 201.800781 199.871094 201.800781 C 198.527344 201.800781 197.183594 201.304688 196.140625 200.300781 C 193.984375 198.242188 193.910156 194.824219 195.96875 192.671875 L 236.820312 149.964844 L 195.96875 107.261719 C 193.910156 105.105469 193.984375 101.691406 196.140625 99.628906 C 198.292969 97.570312 201.710938 97.644531 203.769531 99.796875 L 248.1875 146.234375 C 250.183594 148.320312 250.183594 151.609375 248.1875 153.695312 Z M 248.1875 153.695312 " fill-opacity="1" fill-rule="nonzero" />
  <path fill="#000000" d="M 170.890625 105.269531 L 139.261719 198.144531 C 138.496094 200.386719 136.398438 201.800781 134.152344 201.800781 C 133.578125 201.800781 132.988281 201.707031 132.414062 201.511719 C 129.589844 200.550781 128.082031 197.484375 129.042969 194.664062 L 160.671875 101.789062 C 161.632812 98.96875 164.699219 97.460938 167.519531 98.421875 C 170.339844 99.382812 171.847656 102.449219 170.890625 105.269531 Z M 170.890625 105.269531 " fill-opacity="1" fill-rule="nonzero" />
</svg>