<svg class="border shadow-md" viewBox="0 0 381.48 762.96" style="width: 381.48px; height: 762.96px;" xmlns="http://www.w3.org/2000/svg" preserveAspectRatio="none"><rect class="bg" id="bg" x="0" y="0" width="381.48" height="762.96" fill="#ffffff"/><g transform="rotate(32 190.74 381.48)"><path d="M -190.74 442.96 S -105.37 389.96&#10;            0.00 442.96 85.37 293.96&#10;            190.74 442.96 276.11 202.96&#10;            381.48 442.96 466.85 352.96&#10;            572.22 442.96 584.96 442.96&#10;            762.96 442.96 771.70 391.96&#10;            953.70 442.96 h 110 V 1362.96 H -190.74 Z" fill="#FFFFFF"/><path d="M -190.74 345.00 S -174.00 170.00&#10;            0.00 345.00 85.37 182.50&#10;            190.74 345.00 236.48 182.50&#10;            381.48 345.00 466.85 182.50&#10;            572.22 345.00 631.96 58.00&#10;            762.96 345.00 848.33 106.00&#10;            953.70 345.00 h 110 V -600 H -190.74 Z" fill="#000000"/></g></svg>