<svg class="border shadow-md" viewBox="0 0 1351.68 675.84" style="width: 1351.68px; height: 675.84px;" xmlns="http://www.w3.org/2000/svg" preserveAspectRatio="none"><rect class="bg" id="bg" x="0" y="0" width="1351.68" height="675.84" fill="#ffffff"/><g transform="rotate(22 675.84 337.92)"><path d="M -337.92 355.84 S -178.96 163.84&#10;            0.00 355.84 158.96 90.84&#10;            337.92 355.84 369.84 332.84&#10;            675.84 355.84 834.80 231.84&#10;            1013.76 355.84 1084.68 211.84&#10;            1351.68 355.84 1479.60 257.84&#10;            1689.60 355.84 h 110 V 1275.8400000000001 H -337.92 Z" fill="#FFFFFF"/><path d="M -337.92 345.00 S -202.00 182.50&#10;            0.00 345.00 82.92 25.00&#10;            337.92 345.00 496.88 182.50&#10;            675.84 345.00 834.80 96.00&#10;            1013.76 345.00 1172.72 182.50&#10;            1351.68 345.00 1510.64 62.00&#10;            1689.60 345.00 h 110 V -600 H -337.92 Z" fill="#000000"/></g></svg>