<svg class="border shadow-md" viewBox="0 0 1351.68 675.84" style="width: 1351.68px; height: 675.84px;" xmlns="http://www.w3.org/2000/svg" preserveAspectRatio="none"><rect class="bg" id="bg" x="0" y="0" width="1351.68" height="675.84" fill="#ffffff"/><g transform="rotate(39 675.84 337.92)"><path d="M -450.56 385.84 S -355.00 130.84&#10;            0.00 385.84 215.28 377.84&#10;            450.56 385.84 444.12 198.84&#10;            901.12 385.84 961.68 157.84&#10;            1351.68 385.84 1354.24 346.84&#10;            1802.24 385.84 h 110 V 1275.8400000000001 H -450.56 Z" fill="#FFFFFF"/><path d="M -450.56 315.00 S -270.00 167.50&#10;            0.00 315.00 215.28 67.00&#10;            450.56 315.00 597.12 167.50&#10;            901.12 315.00 1116.40 26.00&#10;            1351.68 315.00 1566.96 167.50&#10;            1802.24 315.00 h 110 V -600 H -450.56 Z" fill="#000000"/></g></svg>