<svg class="border shadow-md" viewBox="0 0 1351.68 760.32" style="width: 1351.68px; height: 760.32px;" xmlns="http://www.w3.org/2000/svg" preserveAspectRatio="none"><rect class="bg" id="bg" x="0" y="0" width="1351.68" height="760.32" fill="#ffffff"/><g transform="rotate(27 675.84 380.16)"><path d="M -337.92 440.32 S -346.00 270.32&#10;            0.00 440.32 57.92 349.32&#10;            337.92 440.32 496.88 414.32&#10;            675.84 440.32 834.80 239.32&#10;            1013.76 440.32 1102.68 296.32&#10;            1351.68 440.32 1458.60 183.32&#10;            1689.60 440.32 h 110 V 1360.3200000000002 H -337.92 Z" fill="#FFFFFF"/><path d="M -337.92 345.00 S -178.96 82.00&#10;            0.00 345.00 105.92 157.00&#10;            337.92 345.00 466.84 68.00&#10;            675.84 345.00 834.80 92.00&#10;            1013.76 345.00 1172.72 95.00&#10;            1351.68 345.00 1510.64 182.50&#10;            1689.60 345.00 h 110 V -600 H -337.92 Z" fill="#000000"/></g></svg>