<svg xmlns="http://www.w3.org/2000/svg" xmlns:xlink="http://www.w3.org/1999/xlink" width="400" zoomAndPan="magnify" viewBox="0 0 300 299.999988" height="400" preserveAspectRatio="xMidYMid meet" version="1.0"><defs><clipPath id="f92f7b55fa"><path d="M 5.261719 3.519531 L 294.296875 3.519531 L 294.296875 299.601562 L 5.261719 299.601562 Z M 5.261719 3.519531 " clip-rule="nonzero"/></clipPath></defs><g clip-path="url(#f92f7b55fa)"><path fill="#000000" d="M 201.925781 146.636719 C 200.035156 146.21875 199.003906 146.765625 197.910156 147.964844 C 199.632812 148.34375 200.6875 147.921875 201.925781 146.636719 Z M 88.691406 188.109375 C 90.5625 188.53125 91.59375 187.980469 92.707031 186.78125 C 90.984375 186.40625 89.910156 186.824219 88.691406 188.109375 Z M 106.886719 149.121094 C 108.484375 149.648438 109.707031 149.226562 110.652344 147.816406 C 109.054688 147.289062 107.832031 147.710938 106.886719 149.121094 Z M 71.757812 233.242188 C 72.472656 234.1875 73.335938 234.566406 74.46875 234.714844 C 74.257812 231.914062 73.25 232.019531 71.757812 233.242188 Z M 66.328125 234.945312 C 65.363281 235.679688 65.003906 236.523438 64.855469 237.679688 C 67.65625 237.449219 67.550781 236.4375 66.328125 234.945312 Z M 126.261719 141.144531 C 124.367188 140.726562 123.359375 141.273438 122.242188 142.449219 C 123.96875 142.851562 125.039062 142.410156 126.261719 141.144531 Z M 105.539062 220.953125 C 104.929688 221.394531 104.089844 222.003906 103.269531 222.613281 C 105.351562 222.761719 106.65625 222.46875 105.539062 220.953125 Z M 126.367188 105.566406 C 124.492188 105.144531 123.460938 105.691406 122.347656 106.890625 C 124.074219 107.269531 125.144531 106.851562 126.367188 105.566406 Z M 150.515625 201.089844 C 152.386719 201.511719 153.417969 200.941406 154.53125 199.765625 C 152.808594 199.367188 151.734375 199.808594 150.515625 201.089844 Z M 69.84375 127.953125 C 70.535156 127.195312 71.1875 126.503906 72.136719 125.449219 C 69.378906 125.386719 68.515625 125.933594 69.84375 127.953125 Z M 52.382812 133.613281 C 54.003906 134.140625 55.222656 133.738281 56.167969 132.332031 C 54.570312 131.804688 53.328125 132.226562 52.382812 133.613281 Z M 88.667969 153.140625 C 88.730469 155.558594 89.382812 156.503906 90.4375 155.371094 C 89.910156 154.71875 89.277344 153.9375 88.667969 153.140625 Z M 121.234375 190.695312 C 121.421875 190.800781 121.652344 190.992188 121.800781 190.949219 C 122.328125 190.800781 123.085938 190.695312 123.316406 190.316406 C 123.546875 189.898438 123.484375 188.90625 123.167969 188.65625 C 122.03125 187.773438 122.074219 189.117188 121.714844 189.625 C 121.484375 189.9375 121.378906 190.339844 121.234375 190.695312 Z M 197.300781 181.019531 C 195.425781 180.597656 194.394531 181.144531 193.28125 182.34375 C 195.007812 182.722656 196.078125 182.300781 197.300781 181.019531 Z M 129.039062 188.613281 C 128.574219 187.980469 127.964844 187.160156 127.058594 185.941406 C 126.976562 188.824219 127.605469 189.582031 129.039062 188.613281 Z M 96.894531 144.21875 C 96.222656 144.871094 95.507812 145.542969 94.453125 146.554688 C 97.355469 146.617188 98.09375 146.007812 96.894531 144.21875 Z M 197.027344 176.9375 C 196.835938 176.832031 196.625 176.621094 196.480469 176.683594 C 195.929688 176.832031 195.175781 176.9375 194.964844 177.316406 C 194.734375 177.734375 194.796875 178.722656 195.109375 178.976562 C 196.246094 179.859375 196.183594 178.492188 196.5625 178.007812 C 196.792969 177.695312 196.878906 177.292969 197.027344 176.9375 Z M 197.71875 165.972656 C 201.128906 165.046875 201.128906 165.046875 200.371094 163.871094 C 200.011719 164.164062 199.234375 164.773438 197.71875 165.972656 Z M 279.445312 146.320312 C 278.8125 146.765625 277.992188 147.375 276.773438 148.300781 C 279.65625 148.363281 280.410156 147.753906 279.445312 146.320312 Z M 227.296875 163.027344 C 227.359375 165.46875 228.03125 166.351562 229.0625 165.238281 C 228.558594 164.605469 227.925781 163.808594 227.296875 163.027344 Z M 236.511719 154.613281 C 236.425781 154.800781 236.214844 155.011719 236.257812 155.160156 C 236.425781 155.707031 236.53125 156.464844 236.910156 156.675781 C 237.332031 156.90625 238.320312 156.863281 238.550781 156.546875 C 239.453125 155.390625 238.085938 155.453125 237.582031 155.074219 C 237.289062 154.863281 236.886719 154.757812 236.511719 154.613281 Z M 79.980469 144.703125 C 80.128906 146.363281 80.128906 146.363281 83.429688 145.058594 C 81.539062 144.847656 80.570312 144.765625 79.980469 144.703125 Z M 265.390625 142.894531 C 265.117188 146.636719 266.445312 145.753906 267.917969 144.933594 C 267.03125 144.238281 266.296875 143.648438 265.390625 142.894531 Z M 166.984375 142.808594 C 167.089844 142.617188 167.300781 142.410156 167.257812 142.261719 C 167.089844 141.714844 166.984375 140.957031 166.609375 140.746094 C 166.1875 140.492188 165.199219 140.558594 164.964844 140.871094 C 164.0625 142.007812 165.429688 141.96875 165.914062 142.34375 C 166.230469 142.554688 166.628906 142.660156 166.984375 142.808594 Z M 179.882812 253.039062 C 182.175781 252.871094 182.175781 251.882812 181.121094 250.640625 C 180.765625 251.378906 180.324219 252.199219 179.882812 253.039062 Z M 159.011719 62.625 C 157.917969 62.980469 156.445312 62.625 155.605469 64.160156 C 157.265625 64.410156 158.382812 64.097656 159.011719 62.625 Z M 151.671875 65.128906 C 150.578125 65.484375 149.125 65.128906 148.265625 66.683594 C 149.945312 66.914062 151.039062 66.601562 151.671875 65.128906 Z M 201.925781 273.996094 C 203 273.636719 204.472656 273.996094 205.3125 272.460938 C 203.652344 272.207031 202.535156 272.523438 201.925781 273.996094 Z M 141.636719 148.867188 C 141.554688 149.058594 141.34375 149.269531 141.386719 149.414062 C 141.554688 149.960938 141.660156 150.71875 142.039062 150.929688 C 142.457031 151.160156 143.425781 151.097656 143.679688 150.78125 C 144.582031 149.648438 143.214844 149.710938 142.710938 149.332031 C 142.417969 149.097656 142.015625 149.015625 141.636719 148.867188 Z M 121.90625 168.625 C 120.9375 168.183594 120.117188 167.785156 118.5625 167.046875 C 119.445312 169.699219 120.097656 170.601562 121.90625 168.625 Z M 163.976562 155.539062 C 162.105469 155.117188 161.074219 155.664062 159.960938 156.863281 C 161.683594 157.242188 162.757812 156.820312 163.976562 155.539062 Z M 187.308594 220.996094 C 186.214844 221.351562 184.761719 220.996094 183.898438 222.550781 C 185.582031 222.785156 186.675781 222.46875 187.308594 220.996094 Z M 168.523438 225.011719 C 166.921875 224.488281 165.683594 224.910156 164.734375 226.296875 C 166.355469 226.824219 167.574219 226.402344 168.523438 225.011719 Z M 80.109375 173.652344 C 81.179688 173.273438 82.652344 173.632812 83.09375 171.929688 C 82.042969 172.433594 80.632812 171.886719 80.109375 173.652344 Z M 188.695312 212.851562 C 188.527344 210.558594 187.558594 210.558594 186.316406 211.609375 C 187.035156 211.988281 187.855469 212.410156 188.695312 212.851562 Z M 48.574219 118.527344 C 50.195312 119.054688 51.414062 118.632812 52.359375 117.222656 C 50.761719 116.695312 49.542969 117.117188 48.574219 118.527344 Z M 214.359375 285.210938 C 214.886719 283.589844 214.464844 282.371094 213.054688 281.421875 C 212.527344 283.023438 212.949219 284.261719 214.359375 285.210938 Z M 119.738281 94.183594 C 117.847656 93.761719 116.835938 94.308594 115.722656 95.488281 C 117.445312 95.886719 118.519531 95.46875 119.738281 94.183594 Z M 85.410156 173.191406 C 86.503906 172.8125 87.953125 173.167969 88.417969 171.464844 C 87.34375 171.992188 85.933594 171.421875 85.410156 173.191406 Z M 214.191406 164.964844 C 214.714844 163.449219 214.273438 162.25 213.160156 161.410156 C 212.59375 162.164062 212.046875 162.902344 211.476562 163.660156 C 212.675781 164.226562 213.414062 164.585938 214.191406 164.964844 Z M 184.46875 112.910156 C 182.785156 112.929688 181.039062 112.929688 179.503906 114.804688 C 181.773438 114.78125 183.269531 114.257812 184.46875 112.910156 Z M 159.433594 127.007812 C 163.011719 126.480469 163.011719 126.480469 162.191406 124.25 C 161.285156 125.15625 160.378906 126.058594 159.433594 127.007812 Z M 131.035156 163.386719 C 131.792969 163.28125 131.980469 162.691406 131.835938 162.058594 C 131.644531 161.175781 131.246094 160.566406 130.109375 160.945312 C 129.351562 161.199219 129.101562 161.683594 129.246094 162.3125 C 129.4375 163.175781 129.898438 163.847656 131.035156 163.386719 Z M 160.800781 154.550781 C 161.558594 154.445312 161.75 153.855469 161.601562 153.222656 C 161.410156 152.359375 160.992188 151.730469 159.875 152.109375 C 159.117188 152.359375 158.867188 152.84375 159.011719 153.476562 C 159.203125 154.359375 159.644531 155.03125 160.800781 154.550781 Z M 163.808594 150.78125 C 163.011719 151.054688 162.359375 151.394531 162.738281 152.527344 C 162.988281 153.285156 163.472656 153.539062 164.105469 153.390625 C 164.964844 153.203125 165.597656 152.78125 165.21875 151.644531 C 164.964844 150.886719 164.503906 150.742188 163.808594 150.78125 Z M 104.300781 148.824219 C 103.480469 149.457031 102.679688 150.066406 101.691406 150.804688 C 103.753906 151.160156 104.824219 150.675781 105.792969 149.5625 C 104.742188 149.035156 103.984375 148.679688 104.300781 148.824219 Z M 113.933594 173.820312 C 115.195312 176.410156 110.210938 174.453125 111.136719 176.597656 C 112.441406 176.789062 113.535156 176.472656 114.460938 175.378906 C 114.292969 174.894531 114.101562 174.347656 113.933594 173.820312 Z M 108.949219 178.871094 C 108.546875 178.304688 108.148438 178.03125 107.390625 178.28125 C 106.277344 178.683594 106.320312 179.441406 106.695312 180.238281 C 106.96875 180.828125 107.453125 181.058594 108.210938 180.785156 C 109.347656 180.40625 109.199219 179.671875 108.949219 178.871094 Z M 148.980469 58.960938 C 149.695312 59.675781 150.367188 60.371094 150.871094 60.898438 C 151.585938 59.761719 152.007812 59.089844 153.1875 57.214844 C 151.019531 58.5625 149.421875 57.890625 148.980469 58.960938 Z M 65.550781 100.011719 C 65.257812 99.210938 64.917969 98.558594 63.785156 98.9375 C 63.027344 99.191406 62.773438 99.675781 62.921875 100.328125 C 63.109375 101.191406 63.53125 101.800781 64.667969 101.421875 C 65.425781 101.167969 65.570312 100.707031 65.550781 100.011719 Z M 207.542969 239.363281 C 207.144531 238.796875 206.742188 238.523438 205.988281 238.796875 C 204.871094 239.175781 204.914062 239.929688 205.292969 240.730469 C 205.566406 241.320312 206.050781 241.550781 206.808594 241.300781 C 207.941406 240.898438 207.796875 240.183594 207.542969 239.363281 Z M 171.445312 245.757812 C 172.835938 246.285156 173.886719 247.96875 175.652344 245.90625 C 174.265625 245.378906 173.210938 243.699219 171.445312 245.757812 Z M 179.25 61.046875 C 178.957031 60.246094 178.617188 59.59375 177.484375 59.972656 C 176.726562 60.226562 176.496094 60.707031 176.640625 61.339844 C 176.832031 62.222656 177.25 62.832031 178.367188 62.453125 C 179.125 62.203125 179.292969 61.738281 179.25 61.046875 Z M 204.808594 225.414062 C 204.683594 226.929688 204.554688 228.210938 204.410156 229.664062 C 205.230469 229.367188 205.753906 229.199219 206.238281 229.03125 C 206.449219 227.621094 206.132812 226.527344 204.808594 225.414062 Z M 177.609375 227.769531 C 177.210938 227.179688 176.808594 226.90625 176.050781 227.179688 C 174.9375 227.582031 174.980469 228.316406 175.359375 229.117188 C 175.632812 229.726562 176.117188 229.957031 176.871094 229.683594 C 178.007812 229.285156 177.863281 228.570312 177.609375 227.769531 Z M 80.695312 108.640625 C 78.488281 109.523438 78.488281 109.523438 78.445312 111.710938 C 80.042969 111.332031 80.382812 110.070312 80.695312 108.640625 Z M 177.925781 196.777344 C 177.652344 195.976562 177.316406 195.324219 176.179688 195.703125 C 175.421875 195.957031 175.167969 196.441406 175.316406 197.09375 C 175.503906 197.957031 175.925781 198.566406 177.0625 198.207031 C 177.820312 197.957031 177.96875 197.472656 177.925781 196.777344 Z M 113.027344 218.679688 C 112.921875 217.921875 112.3125 217.734375 111.683594 217.859375 C 110.820312 218.050781 110.1875 218.46875 110.566406 219.605469 C 110.820312 220.363281 111.304688 220.59375 111.933594 220.46875 C 112.820312 220.257812 113.492188 219.816406 113.027344 218.679688 Z M 77.792969 224.675781 C 80.066406 224.867188 81.683594 224.296875 83.367188 222.761719 C 81.097656 222.574219 79.476562 223.140625 77.792969 224.675781 Z M 58 133.128906 C 59.597656 132.878906 61.597656 133.464844 62.5 131.171875 C 60.648438 131.320312 59.132812 131.761719 58 133.128906 Z M 179.734375 190.929688 C 183.058594 188.84375 181.375 187.476562 180.554688 185.375 C 180.261719 187.371094 180.070312 188.632812 179.734375 190.929688 Z M 141.195312 105.523438 C 140.902344 104.726562 140.585938 104.074219 139.449219 104.453125 C 138.691406 104.703125 138.441406 105.1875 138.585938 105.820312 C 138.777344 106.683594 139.199219 107.3125 140.332031 106.933594 C 141.089844 106.683594 141.238281 106.21875 141.195312 105.523438 Z M 65.910156 152.972656 C 65.59375 151.792969 64.773438 151.835938 63.972656 152.214844 C 63.382812 152.507812 63.152344 152.992188 63.40625 153.75 C 63.804688 154.863281 64.5625 154.824219 65.363281 154.445312 C 65.949219 154.148438 66.308594 153.644531 65.910156 152.972656 Z M 111.621094 110.53125 C 110.125 110.40625 108.78125 110.300781 107.328125 110.175781 C 107.8125 112.277344 109.054688 112.65625 110.316406 112.867188 C 110.757812 112.066406 111.15625 111.351562 111.621094 110.53125 Z M 130.445312 90.542969 C 132.425781 90.859375 133.6875 89.976562 135.03125 89.511719 C 135.222656 89.449219 135.222656 88.398438 135.09375 87.851562 C 135.03125 87.554688 134.507812 87.386719 134.171875 87.136719 C 134.210938 89.554688 131.433594 88.714844 130.445312 90.542969 Z M 145.699219 82.066406 C 147.90625 82.253906 150.050781 82.128906 151.398438 80.109375 C 149.503906 80.761719 147.589844 81.414062 145.699219 82.066406 Z M 133.414062 118.339844 C 134.820312 118.589844 135.894531 118.210938 136.777344 117.222656 C 136.882812 116.359375 136.589844 115.667969 135.707031 115.351562 C 134.042969 115.6875 133.726562 116.972656 133.414062 118.339844 Z M 132.84375 120.398438 C 133.351562 121.578125 132.800781 123.113281 134.570312 123.957031 C 135.03125 123.703125 135.539062 123.429688 137.660156 122.316406 C 132.527344 123.386719 136.398438 120.210938 134.445312 119.851562 C 134.042969 119.980469 133.664062 120.125 132.84375 120.398438 Z M 172.496094 43.8125 C 174.410156 42.972656 175.949219 43.519531 176.726562 41.855469 C 176.535156 41.035156 176.390625 40.195312 175.085938 40.300781 C 173.695312 40.550781 173.78125 42.128906 172.496094 43.8125 Z M 170.269531 193.726562 C 171.339844 192.402344 172.140625 191.347656 171.425781 189.832031 C 170.625 189.328125 169.910156 189.496094 169.089844 190.316406 C 169.425781 191.285156 169.804688 192.359375 170.269531 193.726562 Z M 200.644531 141.628906 C 202.261719 139.882812 203.671875 140.429688 204.410156 139.148438 C 204.492188 138.222656 204.175781 137.570312 203.292969 137.253906 C 201.675781 137.632812 201.359375 138.914062 200.644531 141.628906 Z M 186.886719 259.140625 C 187.433594 260.171875 187.328125 261.078125 188.128906 261.097656 C 189.429688 261.097656 189.429688 261.015625 190.210938 258.003906 C 189.242188 258.339844 188.316406 258.65625 186.886719 259.140625 Z M 112.523438 213.566406 C 113.070312 214.597656 112.964844 215.480469 113.765625 215.503906 C 115.070312 215.546875 115.046875 215.460938 115.867188 212.429688 C 114.902344 212.769531 113.953125 213.082031 112.523438 213.566406 Z M 174.515625 185.730469 C 174.242188 186.867188 174.707031 187.917969 175.589844 188.824219 C 176.789062 188.71875 178.03125 188.699219 178.660156 187.5625 C 177.273438 186.953125 175.863281 186.339844 174.515625 185.730469 Z M 61.511719 135.507812 C 61.636719 135.84375 61.742188 136.179688 61.847656 136.539062 C 63.027344 136.136719 64.226562 135.78125 65.363281 135.316406 C 66.496094 134.835938 68.011719 134.855469 69.125 132.898438 C 66.117188 133.929688 63.824219 134.730469 61.511719 135.507812 Z M 85.410156 135.488281 C 83.367188 135.316406 83.472656 137.191406 82.714844 138.746094 C 84.167969 137.378906 85.261719 138.980469 87.238281 138.601562 C 86.101562 137.675781 86.753906 136.222656 85.410156 135.488281 Z M 102.554688 216.429688 C 101.5625 217.921875 98.472656 216.722656 100.175781 220.660156 C 101.144531 219.628906 102.554688 220.175781 103.375 218.785156 C 103.207031 218.300781 103.015625 217.753906 102.554688 216.429688 Z M 133.9375 104.304688 C 136.652344 104.21875 139.09375 103.398438 141.28125 101.800781 C 138.566406 101.863281 136.125 102.707031 133.9375 104.304688 Z M 194.941406 169.023438 C 195.511719 167.238281 195.109375 166.015625 193.722656 165.113281 C 193.175781 165.40625 192.375 165.300781 192.144531 166.5625 C 192.398438 167.132812 192.753906 168.058594 193.238281 168.917969 C 193.34375 169.109375 193.976562 168.984375 194.941406 169.023438 Z M 147.90625 208.855469 C 150.597656 208.769531 153.058594 207.929688 155.226562 206.328125 C 152.535156 206.414062 150.074219 207.253906 147.90625 208.855469 Z M 216.019531 288.03125 C 217.554688 288.535156 218.796875 288.136719 219.679688 286.746094 C 219.386719 286.179688 219.492188 285.398438 218.230469 285.167969 C 217.683594 286.050781 214.78125 285.019531 216.019531 288.03125 Z M 89.617188 111.859375 C 88.164062 111.394531 88.355469 109.332031 87.238281 108.953125 C 86.398438 108.679688 85.683594 109.121094 85.324219 110.113281 C 85.890625 110.320312 86.460938 110.554688 86.921875 110.742188 C 87.070312 111.5 85.640625 112.027344 86.816406 112.824219 C 87.765625 112.511719 88.691406 112.195312 89.617188 111.859375 Z M 94.476562 188.382812 C 94.832031 189.644531 94.980469 190.527344 96.367188 190.316406 C 97.316406 189.371094 98.410156 188.277344 99.566406 187.121094 C 97.714844 186.613281 96.328125 187.644531 94.476562 188.382812 Z M 36.6875 107.585938 C 38.058594 107.945312 39.425781 109.921875 40.792969 107.585938 C 40.414062 105.945312 39.152344 105.566406 37.804688 105.292969 C 37.425781 106.09375 37.066406 106.828125 36.6875 107.585938 Z M 146.855469 112.171875 C 147.023438 110.113281 148.832031 108.933594 146.855469 107.566406 C 144.582031 107.3125 144.878906 110.363281 142.984375 110.660156 C 143.972656 111.753906 145.464844 110.046875 146.855469 112.171875 Z M 75.101562 134.625 C 74.429688 136.347656 73.164062 137.96875 73.648438 139.777344 C 74.636719 140.640625 75.183594 140.074219 75.796875 139.96875 C 76.761719 138.304688 74.28125 136.558594 75.101562 134.625 Z M 195.070312 138.601562 C 194.5 137.589844 194.207031 137.085938 193.976562 136.664062 C 191.894531 136.621094 190.714844 137.507812 190.0625 139.273438 C 189.851562 139.800781 189.789062 140.011719 190.589844 140.136719 C 191.789062 139.714844 193.132812 139.253906 195.070312 138.601562 Z M 231.0625 156.863281 C 229.105469 156.695312 227.800781 157.347656 227.128906 159.179688 C 226.9375 159.683594 226.792969 159.933594 227.359375 160.230469 C 228.789062 160.039062 230.304688 159.640625 231.671875 158.652344 C 231.417969 157.9375 231.25 157.390625 231.0625 156.863281 Z M 60.734375 202.269531 C 60.605469 201.933594 60.480469 201.59375 60.355469 201.28125 C 57.765625 202.164062 55.199219 203.027344 52.632812 203.953125 C 52.488281 204.015625 52.550781 204.5625 52.464844 205.089844 C 55.304688 204.121094 58.019531 203.195312 60.734375 202.269531 Z M 83.199219 113.835938 C 83.496094 115.015625 81.957031 115.582031 82.609375 117.054688 C 84.671875 116.320312 86.734375 116.066406 88.648438 114.53125 C 86.734375 114.296875 85.199219 114.089844 83.199219 113.835938 Z M 143.511719 95.804688 C 144.351562 96.371094 145.277344 95.65625 146.179688 95.300781 C 147.023438 94.960938 147.886719 96.8125 148.664062 95.027344 C 147.484375 92.835938 145.296875 93.761719 143.53125 93.574219 C 143.066406 93.511719 142.667969 94.375 143.511719 95.804688 Z M 212.738281 257.078125 C 213.179688 256.132812 213.960938 255.394531 213.769531 254.324219 C 212.003906 254.722656 212.78125 251.925781 211.097656 252.261719 C 211.246094 253.921875 210.761719 255.289062 209.226562 256.195312 C 210.257812 256.425781 210.972656 257.519531 212.738281 257.078125 Z M 88.183594 218.492188 C 86.523438 220.152344 85.324219 221.351562 84.082031 222.613281 C 84.652344 223.289062 85.007812 223.730469 86.25 225.160156 C 85.597656 221.960938 90.203125 222.71875 88.183594 218.492188 Z M 125.460938 206.941406 C 123.800781 207.71875 122.8125 206.667969 121.085938 205.949219 C 122.707031 208.054688 117.066406 208.203125 120.582031 210.851562 C 122.347656 209.886719 123.210938 207.761719 125.460938 206.941406 Z M 118.730469 212.726562 C 118.371094 211 118.539062 209.128906 116.921875 207.84375 C 115.511719 208.539062 113.765625 208.453125 112.546875 210.117188 C 115.363281 209.824219 117.195312 210.75 118.730469 212.726562 Z M 207.019531 275.449219 C 206.050781 275.554688 205.292969 275.804688 205.417969 277.339844 C 206.890625 278.394531 208.59375 279.59375 210.46875 280.917969 C 210.699219 277.824219 207.964844 277.195312 207.019531 275.449219 Z M 53.519531 144.28125 C 55.515625 143.839844 58.019531 146.132812 60.605469 142.449219 C 57.515625 144.300781 55.894531 141.609375 53.960938 141.863281 C 53.078125 142.492188 52.78125 142.957031 53.519531 144.28125 Z M 180.28125 171.78125 C 180.765625 170.667969 181.859375 169.488281 179.988281 168.582031 C 178.34375 170.097656 179.144531 172.222656 178.386719 174.179688 C 180.324219 173.925781 181.902344 173.570312 183.164062 172.347656 C 182.320312 171.191406 181.101562 172.707031 180.28125 171.78125 Z M 187.582031 166.078125 C 185.707031 166.730469 183.835938 167.363281 181.859375 168.035156 C 182.929688 169.109375 183.835938 170.035156 184.761719 170.941406 C 185.601562 169.320312 186.128906 167.488281 187.582031 166.078125 Z M 143.46875 223.265625 C 147.402344 222.511719 143.742188 219.941406 145.066406 218.742188 C 145.65625 218.34375 146.8125 218.554688 146.496094 217.3125 C 142.183594 218.53125 142.164062 218.554688 143.46875 223.265625 Z M 82.484375 131.003906 C 81.601562 134.078125 79.140625 134.371094 77.5625 135.90625 C 78.191406 136.664062 78.570312 137.105469 79.390625 138.074219 C 80.128906 135.527344 82.589844 135.234375 84.019531 133.824219 C 83.621094 133.109375 83.429688 132.75 82.484375 131.003906 Z M 51.289062 136.011719 C 50.363281 136.8125 48.449219 136.035156 48.492188 138.199219 C 50.046875 140.285156 51.878906 140.535156 54.085938 138.894531 C 53.222656 137.988281 52.445312 137.210938 51.289062 136.011719 Z M 58.167969 206.835938 C 55.285156 207.296875 51.960938 205.699219 49.480469 208.160156 C 52.824219 209.695312 55.601562 208.726562 58.167969 206.835938 Z M 84.503906 151.601562 C 84.292969 149.75 82.863281 149.625 81.644531 148.910156 C 81.558594 151.289062 78.675781 150.445312 77.898438 152.277344 C 80.042969 151.960938 82.210938 153.6875 84.503906 151.601562 Z M 126.597656 183.144531 C 124.933594 182.511719 123.378906 184.511719 121.714844 183.816406 C 121.652344 182.363281 123.925781 183.039062 122.957031 180.953125 C 122.074219 181.984375 120.519531 181.3125 119.90625 182.890625 C 120.179688 183.691406 120.453125 184.488281 120.75 185.394531 C 121.988281 185.542969 123.292969 185.710938 124.640625 185.898438 C 124.074219 183.964844 127.101562 184.910156 126.597656 183.144531 Z M 172.222656 193.410156 C 175.949219 194.253906 179.019531 194.148438 181.964844 191.875 C 178.617188 190.949219 175.714844 191.265625 172.222656 193.410156 Z M 70.957031 136.097656 C 69.464844 136.75 67.929688 137.484375 66.351562 136.414062 C 65.699219 135.96875 66.496094 136.136719 66.160156 136.789062 C 65.53125 139.800781 68.453125 137.84375 69.105469 138.9375 C 68.894531 139.546875 68.726562 140.03125 68.558594 140.558594 C 70.050781 140.746094 71.167969 140.453125 72.050781 139.316406 C 71.757812 138.433594 71.441406 137.507812 70.957031 136.097656 Z M 217.050781 163.34375 C 218.417969 163.953125 219.871094 163.40625 220.355469 162.417969 C 221.152344 160.839844 221.933594 162.058594 222.6875 161.914062 C 223.574219 161.722656 225.234375 161.976562 225.402344 160.207031 C 222.078125 160.167969 218.398438 158.695312 217.050781 163.34375 Z M 187.789062 226.339844 C 189.558594 224.570312 191.242188 225.097656 192.796875 225.289062 C 193.300781 223.960938 194.460938 222.929688 192.902344 221.667969 C 191.074219 222.300781 189.199219 222.953125 187.347656 223.582031 C 187.453125 224.191406 187.515625 224.59375 187.789062 226.339844 Z M 138.082031 110.113281 C 135.769531 109.859375 134.023438 109.691406 131.835938 109.460938 C 132.527344 111.5 133.035156 112.972656 133.539062 114.46875 C 133.9375 111.941406 137.03125 113.078125 138.082031 110.113281 Z M 222.5625 166.101562 C 223.234375 168.855469 221.46875 170.308594 219.617188 172.433594 C 223.613281 171.695312 225.234375 169.65625 225.738281 166.351562 C 225.800781 165.828125 226.054688 165.574219 225.214844 165.363281 C 224.6875 165.511719 223.886719 165.722656 222.5625 166.101562 Z M 167.765625 25.046875 C 162.882812 26.769531 165.050781 31.019531 162.570312 32.871094 C 164.0625 33.460938 165.070312 34.511719 166.882812 33.480469 C 165.324219 31.042969 167.175781 28.664062 167.765625 25.046875 Z M 180.742188 138.832031 C 177.0625 139.292969 176.410156 139.125 174.515625 137.464844 C 174.515625 138.367188 174.496094 139.148438 174.496094 140.136719 C 173.359375 141.210938 171.171875 140.640625 170.269531 142.304688 C 170.4375 142.933594 170.394531 143.628906 171.171875 143.902344 C 172.644531 143.796875 173.78125 143.417969 174.683594 141.882812 C 175.589844 140.367188 177.503906 141.125 177.546875 141.144531 C 178.851562 140.199219 179.542969 139.695312 180.742188 138.832031 Z M 182.636719 72.40625 C 182.34375 68.453125 180.40625 66.136719 179.207031 63.148438 C 177.292969 64.390625 178.515625 67.398438 175.949219 68.007812 C 177.105469 68.136719 178.070312 68.21875 178.957031 68.324219 C 179.921875 69.460938 178.851562 70.324219 178.765625 71.292969 C 179.859375 71.839844 181.269531 70.871094 182.636719 72.40625 Z M 50.382812 247.253906 C 46.996094 247.714844 45.820312 250.367188 43.589844 251.25 C 44.15625 253.292969 45.609375 253.269531 46.933594 253.882812 C 48.890625 252.28125 50.238281 250.304688 50.382812 247.253906 Z M 110.839844 152.738281 C 111.324219 153.6875 111.21875 154.464844 112.230469 154.675781 C 112.273438 152.296875 115.363281 153.308594 115.933594 151.433594 C 115.449219 149.519531 114.019531 149.332031 112.628906 149.203125 C 111.453125 149.414062 111.535156 150.488281 111.050781 151.015625 C 110.230469 150.910156 109.621094 150.003906 109.808594 151.140625 C 108.84375 151.8125 107.894531 152.488281 105.960938 153.855469 C 108.484375 153.265625 109.472656 153.054688 110.839844 152.738281 Z M 131.539062 86.167969 C 135.242188 85.894531 138.691406 85.640625 142.183594 85.390625 C 142.585938 84.210938 144.121094 82.925781 141.996094 81.769531 C 141.28125 82.632812 141.21875 84.503906 139.324219 83.515625 C 138.378906 82.757812 138.988281 80.949219 138.820312 80.929688 C 135.433594 82.273438 133.390625 83.851562 131.539062 86.167969 Z M 125.691406 123.261719 C 127.355469 123.113281 128.867188 124.925781 130.46875 123.871094 C 130.679688 122.988281 131.6875 122.316406 131.246094 121.304688 C 130.742188 121.050781 130.382812 120.863281 130.046875 120.675781 C 130.699219 118.71875 132.277344 117.097656 132.320312 115.222656 C 131.457031 113.835938 130.679688 114.234375 129.921875 114.636719 C 129.351562 116.023438 130.171875 117.898438 128.511719 118.949219 C 127.355469 118.90625 128.070312 116.550781 126.324219 117.160156 C 125.691406 117.285156 125.25 117.6875 125.207031 118.273438 C 124.765625 120.273438 127.984375 119.644531 127.4375 121.851562 C 126.914062 122.273438 126.300781 122.757812 125.691406 123.261719 Z M 95.652344 119.578125 C 97.1875 118.757812 97.820312 118.925781 98.492188 120.210938 C 99.144531 121.496094 100.15625 120.925781 101.082031 119.726562 C 98.535156 115.601562 94.285156 118.128906 91.003906 117.179688 C 91.214844 118.863281 87.46875 118.652344 89.175781 121.050781 C 90.5 122.148438 91.84375 119.832031 93.148438 121.050781 C 92.941406 121.601562 92.707031 122.148438 92.476562 122.714844 C 93.824219 122.882812 95.085938 123.03125 96.496094 123.199219 C 96.199219 121.894531 95.96875 120.90625 95.652344 119.578125 Z M 60.816406 106.238281 C 65.488281 105.820312 70.640625 107.019531 73.945312 109.332031 C 74.996094 108.195312 76.070312 107.0625 77.097656 105.882812 C 77.164062 105.796875 76.972656 105.484375 76.890625 105.273438 C 75.542969 103.042969 72.050781 104.660156 70.957031 101.988281 C 69.335938 102.242188 68.011719 103.230469 66.078125 102.894531 C 65.152344 102.726562 63.804688 105.1875 61.910156 103.839844 C 61.511719 104.703125 61.175781 105.441406 60.816406 106.238281 Z M 178.746094 92.269531 C 180.007812 93.617188 180.847656 93.132812 181.523438 92.753906 C 182.554688 92.121094 183.351562 93.300781 184.277344 92.984375 C 184.636719 92.207031 184.949219 91.492188 185.289062 90.773438 C 184.972656 90.628906 184.71875 90.585938 184.613281 90.4375 C 182.828125 87.894531 184.109375 84.503906 182.300781 81.980469 C 181.417969 80.71875 183.375 79.644531 182.003906 77.835938 C 181.710938 77.710938 180.808594 77.332031 179.714844 76.867188 C 179.714844 77.855469 179.714844 78.65625 179.691406 79.433594 C 178.070312 79.601562 176.117188 78.464844 174.894531 80.96875 C 178.242188 79.855469 179.542969 82.546875 181.058594 83.769531 C 181.796875 87.15625 179.480469 89.40625 178.746094 92.269531 Z M 202.011719 175.210938 C 204.175781 177.148438 206.132812 175.863281 208.089844 175.210938 C 208.238281 175.167969 208.320312 174.851562 208.386719 174.664062 C 208.636719 173.84375 208.574219 175.019531 208.113281 174.117188 C 206.933594 173.613281 205.859375 175.359375 204.597656 174.515625 C 204.304688 173.421875 202.957031 172.433594 204.136719 171.128906 C 209.457031 171.339844 209.457031 171.339844 210.066406 166.710938 C 207.902344 166.878906 205.777344 167.363281 204.261719 168.730469 C 202.851562 170.015625 201.820312 171.695312 199.90625 172.664062 C 199.570312 171.128906 200.9375 169.949219 199.421875 168.917969 C 197.574219 169.550781 195.65625 170.203125 193.175781 171.042969 C 195.363281 171.253906 196.648438 171.695312 197.574219 173.085938 C 198.980469 175.230469 201.105469 172.726562 202.789062 173.632812 C 202.558594 174.09375 202.367188 174.496094 202.011719 175.210938 Z M 110.546875 126.691406 C 109.707031 128.691406 109.09375 130.140625 108.484375 131.550781 C 108.800781 131.679688 109.558594 131.992188 110.042969 132.203125 C 111.914062 132.140625 111.621094 129.257812 114.164062 130.183594 C 113.617188 131.089844 112.882812 132.246094 114.082031 133.277344 C 115.257812 134.078125 116.332031 132.058594 117.59375 132.917969 C 117.445312 133.675781 117.300781 134.414062 117.132812 135.234375 C 118.183594 136.242188 119.234375 137.253906 120.453125 138.410156 C 120.582031 136.769531 121.863281 136.621094 122.8125 135.632812 C 121.421875 130.792969 117.679688 126.921875 116.457031 121.304688 C 113.785156 124.230469 110.273438 121.535156 107.875 123.871094 C 109.179688 124.925781 110.378906 125.28125 111.933594 125.175781 C 112.796875 125.113281 112.988281 126.292969 112.585938 127.195312 C 111.828125 127.007812 111.09375 126.816406 110.546875 126.691406 Z M 140.4375 171.085938 C 142.289062 170.246094 143.953125 174.09375 145.992188 171.339844 C 145.402344 171.023438 144.855469 170.730469 144.332031 170.433594 C 144.6875 168.710938 147.191406 169.699219 147.445312 167.992188 C 147.71875 166.414062 146.179688 166.542969 145.632812 165.910156 C 145.613281 164.691406 147.003906 165.132812 147.359375 164.269531 C 147.695312 163.429688 146.390625 162.144531 148.074219 161.640625 C 149.125 160.925781 149.90625 162.671875 150.640625 161.410156 C 151.796875 163.554688 151.609375 165.617188 153.207031 166.730469 C 153.777344 166.5 154.152344 166.351562 154.53125 166.207031 C 155.457031 163.449219 153.503906 162.648438 150.976562 162.019531 C 149.609375 157.726562 147.445312 154.128906 143.214844 152.59375 C 141.257812 153.265625 139.472656 153.855469 137.597656 154.507812 C 138.230469 155.136719 138.691406 155.601562 139.175781 156.0625 C 137.871094 157.011719 136.671875 157.914062 136.695312 159.660156 C 137.324219 159.933594 137.703125 160.105469 138.691406 160.503906 C 137.808594 162.207031 136.988281 163.828125 136.148438 165.46875 C 136.527344 166.5 137.976562 164.144531 138.378906 165.804688 C 138.378906 166.941406 136.167969 166.289062 136.863281 167.824219 C 138.1875 168.371094 139.261719 166.648438 140.796875 167.761719 C 139.15625 168.710938 140.058594 169.910156 140.816406 171.066406 C 133.097656 171.71875 132.84375 171.96875 134.652344 177.019531 C 135.601562 176.703125 136.546875 176.367188 137.261719 176.136719 C 138.378906 175.296875 136.925781 174.410156 137.578125 173.757812 C 138.398438 172.644531 140.226562 173.234375 140.4375 171.085938 Z M 49.5625 129.007812 C 50.382812 127.050781 51.246094 126.230469 52.59375 126.039062 C 53.726562 125.890625 53.980469 125.367188 53.390625 124.398438 C 52.972656 123.703125 53.222656 122.628906 52.191406 122.273438 C 51.6875 122.839844 51.265625 123.492188 50.679688 123.933594 C 49.898438 124.480469 48.492188 124.1875 48.363281 125.472656 C 48.679688 126.417969 48.953125 127.21875 52.886719 120.714844 C 55.347656 122.757812 54.339844 125.15625 54.171875 127.363281 C 55.707031 127.765625 56.820312 129.554688 58.652344 127.492188 C 57.894531 127.027344 56.695312 126.859375 56.546875 125.261719 C 57.242188 124.585938 56.988281 122.757812 59.050781 122.527344 C 59.976562 123.640625 58.417969 125.09375 59.472656 126.269531 C 60.503906 127.40625 59.449219 128.859375 59.914062 131.089844 C 61.554688 128.457031 63.089844 126.605469 63.910156 124.480469 C 64.5 122.96875 63.425781 121.324219 62.417969 120.105469 C 60.3125 120.230469 58.628906 121.851562 56.464844 121.453125 C 56.800781 119.472656 59.492188 120.738281 59.492188 118.445312 C 57.640625 119.097656 55.851562 119.683594 49.5625 129.007812 Z M 195.425781 201.132812 C 193.34375 202.773438 191.535156 204.121094 190.839844 206.476562 C 191.703125 207.128906 194.710938 207.886719 195.152344 207.59375 C 194.667969 207.320312 194.1875 207.023438 193.785156 206.792969 C 193.089844 204.457031 197.886719 204.582031 191.386719 204.183594 C 190.335938 202.3125 188.359375 202.710938 186.738281 202.3125 C 187.074219 200.628906 189.640625 201.765625 189.789062 199.828125 C 188 198.921875 186.488281 201.46875 184.65625 200.25 C 185.601562 198.503906 188.210938 199.367188 189.054688 197.304688 C 187.097656 197.554688 185.351562 196.210938 181.183594 197.851562 C 183.792969 198.101562 183.308594 195.367188 185.078125 195.179688 C 185.5625 195.113281 185.457031 194.503906 184.71875 194.359375 C 183.308594 194.652344 181.730469 194.882812 180.449219 196.082031 C 180.703125 196.691406 180.933594 197.21875 183.5625 197.304688 C 184.003906 200.25 181.039062 200.480469 179.480469 202.039062 C 181.648438 202.332031 183.519531 202.585938 185.539062 202.835938 C 184.195312 204.667969 184.65625 206.054688 186.171875 207.253906 C 186.90625 207.066406 187.832031 207.128906 187.75 205.992188 C 187.285156 205.53125 185.917969 205.71875 186.675781 204.4375 C 188.210938 203.574219 189.875 205.339844 195.425781 201.132812 Z M 131.457031 98.582031 C 130.71875 100.371094 130.152344 101.78125 129.605469 103.1875 C 129.605469 103.210938 129.960938 103.378906 130.53125 103.652344 C 131.667969 102.304688 133.582031 101.234375 131.308594 99.421875 C 130.195312 97.824219 127.964844 98.097656 127.226562 95.867188 C 130.109375 96.246094 132.675781 96.730469 134.613281 94.710938 C 133.792969 93.34375 132.402344 95.550781 131.980469 93.804688 C 132.359375 92.394531 134.738281 93.320312 135.03125 91.449219 C 130.339844 91.21875 128.195312 95.382812 123.757812 96.140625 C 125.039062 96.855469 125.566406 97.128906 126.09375 97.425781 C 125.3125 99.421875 123.316406 101.441406 126.175781 103.589844 C 127.082031 101.441406 127.964844 99.210938 131.457031 98.582031 Z M 200.769531 270.839844 C 202.558594 271.492188 202.558594 271.492188 204.199219 269.660156 C 202.808594 270.125 201.695312 270.523438 200.539062 270.753906 C 199.992188 269.828125 201.023438 269.261719 201.023438 268.398438 C 198.160156 267.597656 196.648438 264.96875 194.460938 263.246094 C 193.597656 263.8125 192.25 263.476562 191.789062 264.652344 C 192.988281 265.8125 194.1875 266.925781 195.257812 267.9375 C 194.964844 268.671875 194.816406 269.03125 194.25 270.441406 C 197.046875 267.957031 198.351562 271.238281 200.769531 270.839844 Z M 105.855469 110.59375 C 104.824219 111.625 103.941406 112.511719 102.511719 113.960938 C 104.636719 113.667969 105.875 113.667969 106.613281 112.363281 C 106.421875 111.898438 106.191406 111.375 95.210938 111.859375 C 96.703125 113.644531 97.757812 114.570312 99.753906 114.046875 C 101.691406 113.519531 102.785156 112.511719 103.269531 110.660156 C 102.488281 109.773438 101.289062 111.332031 100.574219 110.238281 C 100.535156 109.566406 101.878906 108.933594 100.15625 108.089844 C 99.230469 109.839844 97.398438 110.636719 105.855469 110.59375 Z M 141.492188 140.558594 C 141.574219 142.304688 138.1875 142.386719 139.703125 144.847656 C 141.152344 144.890625 141.34375 142.722656 142.898438 142.871094 C 143.195312 142.914062 143.574219 142.472656 143.867188 142.21875 C 143.953125 142.136719 143.886719 141.902344 143.886719 141.757812 C 143.132812 141.378906 142.375 141 141.007812 140.832031 C 140.839844 139.777344 139.703125 139.945312 139.175781 139.359375 C 139.933594 138.03125 141.871094 137.546875 141.804688 135.632812 C 139.976562 134.75 139.722656 136.285156 139.199219 137.234375 C 137.765625 137.484375 138.3125 134.6875 136.464844 135.550781 C 136.230469 133.152344 138.355469 133.214844 139.367188 133.570312 C 141.027344 134.140625 142.144531 133.78125 143.382812 132.855469 C 143.972656 131.613281 142.164062 130.5625 143.066406 129.28125 C 144.015625 128.878906 144.960938 128.480469 145.804688 128.121094 C 145.886719 127.007812 145.003906 127.238281 144.457031 126.605469 C 146.371094 122.566406 146.917969 118.128906 146.792969 112.71875 C 145.277344 113.898438 144.121094 113.542969 142.667969 112.890625 C 144.5 114.109375 140.773438 116.214844 143.742188 117.246094 C 142.351562 118.210938 141.910156 119.726562 141.871094 121.390625 C 140.164062 120.757812 141.070312 118.738281 139.703125 118.296875 C 138.671875 118.210938 137.976562 118.507812 137.765625 119.683594 C 138.988281 121.515625 141.660156 122.839844 140.734375 125.808594 C 139.492188 127.21875 138.378906 125.132812 137.199219 125.746094 C 136.945312 125.449219 136.671875 124.882812 136.441406 124.925781 C 135.664062 125.007812 135.726562 125.578125 135.980469 126.164062 C 134.757812 126.398438 133.707031 127.34375 132.359375 126.964844 C 131.265625 125.640625 131.265625 125.640625 129.5625 125.660156 C 128.867188 127.027344 130.089844 128.058594 130.195312 129.28125 C 130.277344 130.480469 133.222656 130.648438 131.332031 132.519531 C 132.992188 132.855469 132.824219 133.886719 132.320312 135.042969 C 133.625 135.800781 134.925781 136.621094 136.464844 135.550781 C 138.757812 137.78125 134.757812 138.222656 135.222656 139.96875 C 136.757812 142.683594 138.902344 141.566406 141.492188 140.558594 Z M 185.8125 107.3125 C 185.414062 109.355469 184.824219 110.996094 186.003906 112.445312 C 186.191406 112.699219 186.738281 112.636719 187.160156 112.742188 C 189.515625 112.046875 187.371094 109.773438 188.609375 108.703125 C 187.8125 108.300781 187.054688 107.921875 185.054688 107.964844 C 186.277344 105.839844 186.800781 103.316406 189.242188 101.527344 C 185.75 101.925781 185.898438 98.457031 184.296875 97.339844 C 183.289062 97.59375 182.742188 97.867188 182.449219 98.980469 C 185.203125 100.621094 186.214844 102.9375 184.046875 106.050781 C 183.519531 106.765625 184.171875 107.609375 185.8125 107.3125 Z M 159.371094 230.90625 C 160.421875 232.523438 159.960938 234.269531 162.632812 235.113281 C 161.304688 233.554688 162.148438 231.894531 160.105469 231.304688 C 158.699219 230.503906 157.5 229.8125 156.320312 229.117188 C 156.53125 228.589844 156.742188 228.066406 156.953125 227.539062 C 156.003906 226.886719 155.289062 227.707031 154.511719 227.726562 C 153.648438 227.75 152.785156 227.582031 151.082031 227.414062 C 153.058594 229.746094 154.363281 231.664062 156.742188 232.460938 C 157.75 232.125 158.738281 231.769531 159.371094 230.90625 Z M 105.960938 118.886719 C 104.972656 119.222656 103.835938 119.601562 102.109375 120.191406 C 103.375 121.136719 102.636719 122.695312 104.066406 123.28125 C 105.054688 122.945312 106.003906 122.609375 107.097656 122.230469 C 106.675781 120.96875 106.277344 119.832031 103.792969 116.867188 C 106.488281 118.507812 106.488281 118.507812 107.539062 115.582031 C 106.464844 115.941406 105.519531 116.277344 105.960938 118.886719 Z M 159.308594 37.964844 C 158.507812 39.5625 157.773438 40.445312 157.710938 41.371094 C 157.605469 42.867188 155.039062 42.234375 155.667969 44.109375 C 155.773438 44.78125 156.257812 45.097656 156.910156 45.179688 C 159.519531 42.023438 159.519531 42.023438 158.65625 39.246094 C 160.445312 38.320312 161.875 38.449219 162.988281 36.828125 C 162.042969 36.492188 161.179688 36.195312 160.316406 35.878906 C 159.898438 36.742188 159.519531 37.5 159.308594 37.964844 Z M 76.574219 129.785156 C 76.214844 131.027344 75.289062 131.742188 75.773438 133.003906 C 78.363281 132.519531 77.878906 131.445312 70.664062 131.785156 C 75.835938 130.351562 75.835938 130.351562 74.722656 128.082031 C 74.257812 128.710938 73.921875 129.40625 73.398438 129.804688 C 72.617188 130.375 71.335938 130.121094 76.574219 129.785156 Z M 101.460938 153.179688 C 101.710938 153.75 102.027344 154.464844 102.320312 155.179688 C 102.59375 153.519531 104.972656 153.832031 105.222656 151.898438 C 103.730469 152.402344 102.617188 152.78125 101.585938 152.800781 C 100.367188 151.539062 97.863281 152.59375 96.789062 150.65625 C 97.167969 151.730469 97.546875 152.800781 97.96875 154.042969 C 99.125 153.644531 100.261719 153.246094 101.460938 153.179688 Z M 279.382812 137.234375 C 282.894531 135.613281 285.671875 135.761719 288.574219 137.296875 C 288.40625 137.78125 288.238281 138.285156 288.046875 138.851562 C 289.183594 140.199219 290.195312 138.367188 291.433594 138.664062 C 292.886719 139.359375 292.109375 142.175781 294.273438 142.175781 C 293.601562 143.398438 292.867188 144.660156 291.898438 146.40625 C 290.402344 146.722656 288.46875 148.59375 285.921875 147.332031 C 285.398438 148.320312 284.808594 149.4375 284.304688 150.402344 C 283.082031 151.351562 282.222656 150.171875 281.234375 150.171875 C 279.316406 150.574219 279.824219 152.699219 277.46875 154.128906 C 274.058594 155.304688 270.0625 158.167969 265.980469 160.820312 C 265.246094 160.628906 265.078125 160.019531 264.84375 159.429688 C 264.636719 158.863281 264.339844 158.316406 263.878906 157.261719 C 262.175781 158.609375 260.554688 159.640625 259.542969 161.472656 C 257.210938 160.441406 255.253906 162.039062 253.128906 162.523438 C 251.949219 163.324219 253.484375 164.585938 252.601562 165.425781 C 250.75 166.542969 249.59375 164.4375 247.996094 164.417969 C 247.46875 165.046875 247.699219 165.890625 248.101562 166.183594 C 249.089844 166.898438 250.246094 167.382812 251.363281 167.992188 C 251.046875 168.332031 250.816406 168.75 250.476562 168.878906 C 248.457031 169.636719 246.4375 170.433594 244.378906 170.980469 C 240.277344 172.054688 237.015625 174.515625 233.710938 176.9375 C 231.082031 178.871094 227.757812 179.125 224.75 180.535156 C 224.730469 181.269531 224.730469 182.050781 224.730469 182.871094 C 223.65625 184.363281 222.5 183.226562 221.679688 182.871094 C 219.617188 183.480469 219.765625 185.332031 218.652344 186.71875 C 214.339844 186.992188 211.183594 190.550781 207.058594 192.085938 C 205.628906 194.105469 205.101562 196.546875 204.828125 199.007812 C 206.640625 199.367188 205.335938 202.121094 207.355469 202.605469 C 207.101562 204.371094 206.828125 206.140625 206.554688 207.972656 C 207.667969 208.347656 209.035156 209.757812 208.488281 210.539062 C 206.871094 212.957031 211.226562 213.609375 209.667969 215.691406 C 208.132812 217.777344 212.296875 218.34375 210.867188 220.828125 C 210.027344 222.300781 213.246094 222.886719 213.414062 224.867188 C 212.867188 225.308594 212.234375 225.792969 211.601562 226.277344 C 210.65625 228.507812 214.421875 228.148438 213.75 230.210938 C 213.179688 231.535156 211.351562 230.945312 210.65625 231.976562 C 211.328125 233.703125 212.65625 231.746094 213.664062 233.199219 C 213.792969 234.753906 213.414062 236.691406 212.78125 238.691406 C 216.609375 239.175781 213.476562 243.296875 215.875 244.625 C 215.390625 244.960938 214.886719 245.316406 214.273438 245.78125 C 213.726562 247.191406 217.050781 247.042969 215.8125 248.894531 C 214.421875 250.914062 217.597656 250.429688 217.597656 252.199219 C 217.597656 253.480469 215.640625 255.355469 218.1875 256.574219 C 219.679688 257.289062 217.578125 259.097656 218.777344 260.296875 C 219.597656 261.117188 217.242188 263.160156 219.847656 263.519531 C 218.273438 266.148438 219.785156 269.113281 218.859375 271.851562 C 218.292969 273.511719 220.566406 273.40625 220.964844 274.5625 C 221.867188 277.214844 222.773438 279.867188 223.699219 282.539062 C 223.195312 283.652344 222.667969 284.789062 222.164062 285.925781 C 223.171875 286.429688 224.140625 286.894531 225.296875 287.460938 C 224.773438 288.703125 224.246094 289.964844 223.886719 290.828125 C 224.140625 292.386719 225.214844 292.34375 226.074219 293.015625 C 226.117188 294.824219 225.425781 296.824219 226.832031 299.601562 C 224.605469 298.253906 223.363281 297.5 221.722656 296.488281 C 221.492188 295.835938 221.070312 294.636719 220.667969 293.417969 C 219.070312 293.015625 217.347656 293.246094 216.042969 292.046875 C 216.230469 291.667969 216.421875 291.292969 216.777344 290.554688 C 215.328125 289.25 212.128906 289.292969 212.824219 286.242188 C 211.601562 286.21875 210.804688 286.21875 209.984375 286.199219 C 209.6875 285.292969 209.414062 284.515625 209.058594 283.507812 C 206.050781 282.644531 204.136719 280.246094 201.820312 278.203125 C 199.71875 276.351562 197.847656 274.25 195.679688 272.460938 C 191.050781 268.609375 186.632812 264.484375 181.984375 260.675781 C 180.300781 259.265625 177.820312 258.910156 176.472656 256.890625 C 176.726562 256.175781 176.9375 255.585938 177.148438 255.015625 C 172.414062 254.28125 170.835938 248.242188 165.703125 248.074219 C 167.429688 244.75 163.050781 244.097656 163.09375 241.675781 C 161.265625 241.128906 160.929688 242.601562 160.402344 243.570312 C 158.003906 241.910156 161.347656 239.636719 158.152344 237.425781 C 157.773438 237.257812 155.835938 237.554688 154.257812 236.4375 C 152.746094 235.367188 150.347656 235.238281 150.894531 231.894531 C 147.96875 233.175781 145.550781 232.945312 142.984375 230.019531 C 142.964844 229.957031 142.542969 228.757812 142.183594 227.726562 C 141.699219 227.347656 141.40625 227.054688 141.046875 226.886719 C 135.621094 224.128906 131.226562 219.183594 124.515625 219.207031 C 124.492188 220.007812 124.492188 220.804688 124.472656 221.710938 C 122.621094 219.796875 120.496094 219.375 118.308594 219.5625 C 117.65625 220.382812 117.886719 220.996094 118.121094 221.585938 C 119.421875 223.078125 120.855469 220.59375 122.179688 221.6875 C 120.6875 224.507812 117.867188 225.183594 115.195312 226.296875 C 113.511719 227.011719 111.21875 224.53125 109.875 227.875 C 109.03125 229.9375 105.917969 227.347656 104.046875 228.675781 C 103.730469 228.886719 103.480469 229.222656 103.121094 229.558594 C 103.667969 229.875 104.171875 230.167969 104.71875 230.484375 C 103.625 232.25 102.175781 232.355469 100.46875 231.410156 C 99.566406 233.34375 97.628906 233.894531 95.90625 234.082031 C 94.390625 234.230469 92.792969 233.492188 91.214844 233.136719 C 90.375 234.882812 92.433594 236.226562 91.929688 237.953125 C 91.003906 239.46875 89.214844 237.699219 88.859375 238.3125 C 88.101562 239.636719 87.535156 239.027344 86.523438 238.964844 C 85.34375 238.878906 84.105469 239.679688 82.757812 240.140625 C 82.0625 240.730469 82.757812 241.574219 82.675781 242.328125 C 81.980469 243.824219 80.992188 243.277344 79.730469 242.625 C 79.097656 243.992188 77.289062 244.285156 76.699219 246.621094 C 75.710938 245.527344 74.871094 244.558594 73.566406 243.109375 C 72.007812 247.316406 68.160156 246.726562 66.792969 249.527344 C 65.363281 249.042969 65.929688 247.210938 64.539062 246.160156 C 63.699219 247.546875 64.730469 248.558594 64.898438 249.988281 C 61.699219 249.839844 59.007812 250.621094 56.441406 252.957031 C 54.632812 254.636719 52.550781 256.804688 49.585938 256.910156 C 49.164062 256.933594 48.554688 257.039062 48.386719 257.332031 C 45.839844 261.289062 41.992188 259.332031 38.625 259.542969 C 37.886719 261.289062 39.507812 261.519531 40.496094 262.109375 C 40.074219 262.527344 39.824219 262.929688 39.488281 263.054688 C 36.246094 264.210938 32.125 264.464844 29.957031 266.652344 C 27.644531 269.007812 24.425781 268.945312 22.175781 271.449219 C 20.324219 273.511719 16.433594 273.722656 13.320312 274.773438 C 13.171875 272.839844 15.167969 273.386719 15.0625 271.996094 C 13.464844 271.28125 11.425781 273.574219 9.574219 271.070312 C 10.605469 268.96875 11.507812 266.378906 13.023438 264.253906 C 14.347656 262.421875 15.042969 260.296875 16.535156 258.511719 C 18.15625 256.59375 19.039062 254.027344 20.070312 251.671875 C 22.761719 245.421875 26.214844 239.574219 29.914062 233.914062 C 31.03125 232.210938 30.398438 230.148438 32.125 228.507812 C 33.492188 227.222656 34.734375 225.390625 35.828125 223.667969 C 37.320312 221.308594 39.59375 219.480469 39.570312 216.21875 C 39.527344 214.03125 42.851562 213.167969 42.832031 211.167969 C 42.789062 208.707031 44.894531 207.886719 45.546875 206.054688 C 46.238281 204.035156 46.976562 201.785156 48.40625 200.3125 C 52.867188 195.640625 54.484375 189.117188 59.050781 184.574219 C 60.710938 178.136719 66.140625 173.675781 68.160156 167.804688 C 68.03125 166.667969 67.464844 166.375 66.539062 165.972656 C 66.730469 164.460938 66.9375 162.839844 67.171875 160.988281 C 62.835938 161.113281 62.289062 155.601562 58.378906 154.949219 C 57.765625 153.160156 57.21875 151.539062 56.695312 150.046875 C 50.003906 145.4375 47.164062 137.570312 41.042969 132.667969 C 41.234375 131.785156 41.402344 131.046875 41.570312 130.308594 C 39.84375 128.964844 37.363281 129.996094 35.699219 128.457031 C 35.933594 127.890625 36.164062 127.324219 36.414062 126.777344 C 35.511719 126.269531 34.269531 126.101562 34.605469 124.1875 C 35.511719 121.769531 37.65625 125.746094 38.835938 123.726562 C 39.277344 123.324219 39.253906 122.734375 38.855469 122.042969 C 38.8125 121.976562 38.605469 121.683594 38.539062 121.726562 C 34.292969 123.515625 32.460938 119.242188 29.390625 118.085938 C 29.265625 118.042969 29.242188 117.707031 29.160156 117.496094 C 28.464844 115.730469 31.347656 116.277344 30.945312 114.71875 C 30.421875 112.195312 27.894531 114.339844 26.800781 112.929688 C 25.941406 111.859375 24.824219 110.972656 23.921875 110.089844 C 23.183594 108.765625 25.371094 107.648438 23.792969 106.28125 C 23.164062 106.28125 22.363281 106.28125 21.5 106.28125 C 20.15625 102.726562 17.527344 99.949219 15.105469 96.941406 C 16.957031 96.097656 17.820312 97.992188 19.1875 97.59375 C 20.09375 95.636719 17.96875 95.761719 17.335938 94.855469 C 16.769531 94.035156 17.019531 92.710938 15.78125 92.226562 C 15.210938 93.320312 14.621094 94.394531 14.054688 95.46875 C 13.800781 95.339844 13.570312 95.277344 13.421875 95.152344 C 10.394531 92.394531 7.113281 89.890625 8.3125 84.90625 C 8.5625 83.832031 7.765625 82.253906 6.207031 81.285156 C 4.777344 80.382812 5.09375 79.539062 6.335938 76.40625 C 7.828125 76.867188 7.027344 78.84375 8.332031 79.433594 C 9.363281 79.222656 9.132812 77.519531 10.4375 77.625 C 13.421875 80.042969 13.886719 80.589844 16.726562 80.402344 C 20.785156 80.128906 24.445312 81.097656 27.917969 82.96875 C 29.222656 83.664062 31.472656 82.402344 31.871094 85.117188 C 33.34375 84.609375 34.710938 84.148438 36.140625 83.664062 C 36.753906 84.441406 37.234375 85.050781 37.742188 85.703125 C 38.980469 86.25 40.054688 84.484375 41.339844 85.410156 C 41.191406 85.789062 41.042969 86.167969 40.792969 86.777344 C 41.84375 86.839844 42.957031 86.902344 44.074219 86.96875 C 44.640625 87.996094 44.578125 86.902344 45.144531 86.316406 C 46.429688 87.324219 48.953125 85.976562 49.667969 88.714844 C 52.171875 87.621094 54.757812 87.492188 57.390625 88.207031 C 56.503906 89.976562 54.296875 89.386719 53.035156 90.566406 C 53.246094 92.015625 54.84375 91.40625 55.242188 92.625 C 55.746094 90.878906 56.777344 90.269531 57.894531 90.039062 C 59.660156 91.007812 61.324219 91.933594 63.46875 93.109375 C 64.058594 91.113281 64.394531 89.933594 64.710938 88.820312 C 66.707031 89.34375 66.054688 91.21875 67.359375 92.101562 C 68.222656 90.816406 69.503906 89.429688 71.042969 89.914062 C 72.578125 90.398438 74.953125 89.535156 75.648438 92.164062 C 76.003906 91.574219 76.300781 91.089844 76.65625 90.480469 C 79.328125 91.804688 81.515625 94.332031 85.28125 93.175781 C 86.691406 92.730469 88.753906 94.394531 90.792969 95.214844 C 94.328125 93.382812 98.03125 93.53125 101.816406 95.636719 C 104.046875 96.878906 106.464844 96.644531 108.988281 95.867188 C 111.683594 95.046875 113.300781 92.796875 115.699219 91.699219 C 114.585938 89.492188 118.414062 88.734375 117.195312 86.546875 C 118.328125 84.925781 120.832031 85.726562 121.925781 83.601562 C 122.265625 82.90625 124.894531 84.292969 126.554688 82.339844 C 125.019531 81.8125 123.335938 82.234375 122.160156 81.222656 C 122.074219 78.78125 125.441406 77.917969 124.683594 75.394531 C 126.261719 74.722656 127.019531 75.121094 127.082031 76.53125 C 129.058594 77.519531 130.234375 75.625 131.980469 75.792969 C 131.5625 73.628906 130.195312 75.414062 129.480469 74.554688 C 128.890625 73.667969 127.921875 72.535156 128.785156 71.3125 C 130.027344 69.546875 131.078125 67.820312 131.644531 65.609375 C 132.152344 63.652344 134.066406 63.589844 136.316406 64.726562 C 135.410156 61.972656 138.25 61.214844 138.777344 58.984375 C 138.378906 58.730469 137.914062 58.4375 137.367188 58.097656 C 138.019531 56.015625 140.902344 57.171875 141.679688 55.238281 C 141.152344 54.945312 140.605469 54.648438 139.851562 54.226562 C 144.308594 51.957031 146.980469 48.085938 149.148438 43.960938 C 150.429688 41.519531 152.449219 39.519531 152.976562 36.554688 C 153.4375 33.882812 156.574219 32.535156 157.203125 29.738281 C 157.582031 28.117188 159.054688 28.179688 160.210938 27.652344 C 161.265625 26.707031 159.6875 25.214844 160.929688 24.183594 C 162.296875 23.046875 163.515625 21.699219 164.820312 20.457031 C 166.355469 19.007812 165.050781 16.691406 166.398438 15.199219 C 167.597656 13.832031 170.269531 13.535156 169.550781 10.800781 C 171.339844 10.421875 171.613281 8.382812 173.109375 7.601562 C 174.707031 6.78125 172.351562 4.027344 174.894531 3.5 C 177.167969 6.464844 177.167969 6.464844 176.222656 11.832031 C 180.300781 14.335938 178.15625 18.101562 177.96875 21.53125 C 178.746094 22.984375 180.535156 22.917969 181.5625 23.949219 C 181.878906 25.148438 181.859375 26.347656 181.902344 27.546875 C 181.964844 29.738281 180.46875 31.714844 181.628906 34.199219 C 182.382812 35.816406 182.742188 38.214844 181.730469 40.339844 C 181.101562 41.6875 184.84375 41.605469 182.996094 43.601562 C 185.140625 48.441406 185.035156 53.808594 186.589844 58.984375 C 186.171875 59.929688 185.667969 61.066406 185.140625 62.203125 C 185.5625 62.414062 186.042969 62.519531 186.316406 62.8125 C 187.390625 63.929688 187.582031 65.402344 187.9375 66.9375 C 187.347656 67.421875 186.738281 67.90625 185.960938 68.535156 C 186.527344 71.019531 187.8125 73.394531 187.347656 76.277344 C 187.160156 77.519531 186.527344 79.476562 188.632812 80.886719 C 190.398438 82.085938 188.378906 84.695312 189.222656 86.839844 C 189.875 88.480469 192.082031 89.367188 191.347656 91.933594 C 190.902344 93.40625 192.609375 95.257812 191.722656 97.320312 C 191.050781 98.875 193.953125 99.210938 193.554688 101.210938 C 193.195312 102.9375 193.640625 104.765625 193.597656 106.578125 C 193.554688 108.195312 194.25 110.070312 195.238281 111.394531 C 196.246094 112.761719 193.976562 114.59375 196.269531 115.5625 C 197.382812 116.023438 196.753906 118.042969 198.289062 118.527344 C 200.222656 119.160156 202.074219 120.296875 204.050781 120.503906 C 207.667969 120.882812 210.910156 122.988281 214.695312 122.527344 C 215.789062 122.378906 215.472656 124.503906 216.96875 124.378906 C 217.808594 124.230469 218.335938 123.621094 218.480469 122.484375 C 219.871094 123.640625 221.847656 121.914062 223.152344 124.355469 C 223.847656 125.660156 226.453125 127.113281 228.851562 125.785156 C 229.125 125.640625 229.777344 125.703125 229.988281 125.933594 C 232.660156 128.585938 236.511719 126.671875 239.433594 128.4375 C 242.148438 130.078125 245.449219 129.28125 248.25 130.164062 C 251.382812 131.152344 254.601562 131.742188 257.757812 132.121094 C 260.890625 132.476562 263.898438 134.8125 267.242188 133.085938 C 270.671875 136.433594 276.183594 133.023438 279.382812 137.234375 " fill-opacity="1" fill-rule="nonzero"/></g><path fill="#000000" d="M 137.199219 125.746094 C 137.386719 126.332031 137.597656 126.921875 137.808594 127.574219 C 136.925781 128.480469 136.019531 129.40625 135.09375 130.332031 C 134.296875 129.828125 133.917969 129.152344 134.445312 128.289062 C 134.90625 127.554688 136.632812 127.722656 135.980469 126.164062 C 135.726562 125.578125 135.664062 125.007812 136.441406 124.925781 C 136.671875 124.882812 136.945312 125.449219 137.199219 125.746094 " fill-opacity="1" fill-rule="nonzero"/></svg>